%TF.GenerationSoftware,KiCad,Pcbnew,5.1.9+dfsg1-1*%
%TF.CreationDate,2021-04-21T10:51:01+05:30*%
%TF.ProjectId,PCB_Init,5043425f-496e-4697-942e-6b696361645f,rev?*%
%TF.SameCoordinates,Original*%
%TF.FileFunction,Copper,L1,Top*%
%TF.FilePolarity,Positive*%
%FSLAX46Y46*%
G04 Gerber Fmt 4.6, Leading zero omitted, Abs format (unit mm)*
G04 Created by KiCad (PCBNEW 5.1.9+dfsg1-1) date 2021-04-21 10:51:01*
%MOMM*%
%LPD*%
G01*
G04 APERTURE LIST*
%TA.AperFunction,NonConductor*%
%ADD10C,0.600000*%
%TD*%
%TA.AperFunction,EtchedComponent*%
%ADD11C,0.010000*%
%TD*%
%TA.AperFunction,ComponentPad*%
%ADD12C,2.400000*%
%TD*%
%TA.AperFunction,ComponentPad*%
%ADD13O,1.700000X1.700000*%
%TD*%
%TA.AperFunction,ComponentPad*%
%ADD14R,1.700000X1.700000*%
%TD*%
%TA.AperFunction,ComponentPad*%
%ADD15C,1.600000*%
%TD*%
%TA.AperFunction,ComponentPad*%
%ADD16R,1.600000X1.600000*%
%TD*%
%TA.AperFunction,ComponentPad*%
%ADD17O,2.250000X1.250000*%
%TD*%
%TA.AperFunction,ComponentPad*%
%ADD18R,2.250000X1.250000*%
%TD*%
%TA.AperFunction,ComponentPad*%
%ADD19C,1.500000*%
%TD*%
%TA.AperFunction,ComponentPad*%
%ADD20R,1.500000X1.500000*%
%TD*%
%TA.AperFunction,ComponentPad*%
%ADD21O,2.500000X4.500000*%
%TD*%
%TA.AperFunction,ComponentPad*%
%ADD22R,2.500000X4.500000*%
%TD*%
%TA.AperFunction,ComponentPad*%
%ADD23O,1.400000X1.400000*%
%TD*%
%TA.AperFunction,ComponentPad*%
%ADD24C,1.400000*%
%TD*%
%TA.AperFunction,ComponentPad*%
%ADD25C,1.440000*%
%TD*%
%TA.AperFunction,ComponentPad*%
%ADD26C,1.800000*%
%TD*%
%TA.AperFunction,ComponentPad*%
%ADD27R,1.800000X1.800000*%
%TD*%
%TA.AperFunction,ComponentPad*%
%ADD28O,1.980000X3.960000*%
%TD*%
%TA.AperFunction,ComponentPad*%
%ADD29R,1.980000X3.960000*%
%TD*%
%TA.AperFunction,ComponentPad*%
%ADD30C,2.000000*%
%TD*%
%TA.AperFunction,ComponentPad*%
%ADD31R,2.000000X2.000000*%
%TD*%
%TA.AperFunction,Conductor*%
%ADD32C,0.250000*%
%TD*%
%TA.AperFunction,Conductor*%
%ADD33C,0.400000*%
%TD*%
G04 APERTURE END LIST*
D10*
X141590000Y-88987142D02*
X140590000Y-87558571D01*
X139875714Y-88987142D02*
X139875714Y-85987142D01*
X141018571Y-85987142D01*
X141304285Y-86130000D01*
X141447142Y-86272857D01*
X141590000Y-86558571D01*
X141590000Y-86987142D01*
X141447142Y-87272857D01*
X141304285Y-87415714D01*
X141018571Y-87558571D01*
X139875714Y-87558571D01*
X144018571Y-88844285D02*
X143732857Y-88987142D01*
X143161428Y-88987142D01*
X142875714Y-88844285D01*
X142732857Y-88558571D01*
X142732857Y-87415714D01*
X142875714Y-87130000D01*
X143161428Y-86987142D01*
X143732857Y-86987142D01*
X144018571Y-87130000D01*
X144161428Y-87415714D01*
X144161428Y-87701428D01*
X142732857Y-87987142D01*
X145447142Y-87844285D02*
X147732857Y-87844285D01*
X148732857Y-85987142D02*
X149732857Y-88987142D01*
X150732857Y-85987142D01*
X152875714Y-88844285D02*
X152590000Y-88987142D01*
X152018571Y-88987142D01*
X151732857Y-88844285D01*
X151590000Y-88558571D01*
X151590000Y-87415714D01*
X151732857Y-87130000D01*
X152018571Y-86987142D01*
X152590000Y-86987142D01*
X152875714Y-87130000D01*
X153018571Y-87415714D01*
X153018571Y-87701428D01*
X151590000Y-87987142D01*
X154304285Y-86987142D02*
X154304285Y-88987142D01*
X154304285Y-87272857D02*
X154447142Y-87130000D01*
X154732857Y-86987142D01*
X155161428Y-86987142D01*
X155447142Y-87130000D01*
X155590000Y-87415714D01*
X155590000Y-88987142D01*
X156590000Y-86987142D02*
X157732857Y-86987142D01*
X157018571Y-85987142D02*
X157018571Y-88558571D01*
X157161428Y-88844285D01*
X157447142Y-88987142D01*
X157732857Y-88987142D01*
D11*
%TO.C,REF\u002A\u002A*%
G36*
X21183600Y-15269054D02*
G01*
X21194465Y-15382993D01*
X21226082Y-15490616D01*
X21276985Y-15589615D01*
X21345707Y-15677684D01*
X21430781Y-15752516D01*
X21527768Y-15810384D01*
X21634036Y-15850005D01*
X21741050Y-15868573D01*
X21846700Y-15867434D01*
X21948875Y-15847930D01*
X22045466Y-15811406D01*
X22134362Y-15759205D01*
X22213454Y-15692673D01*
X22280631Y-15613152D01*
X22333783Y-15521987D01*
X22370801Y-15420523D01*
X22389573Y-15310102D01*
X22391511Y-15260206D01*
X22391511Y-15172267D01*
X22443440Y-15172267D01*
X22479747Y-15175111D01*
X22506645Y-15186911D01*
X22533751Y-15210649D01*
X22572133Y-15249031D01*
X22572133Y-17440602D01*
X22572124Y-17702739D01*
X22572092Y-17943241D01*
X22572028Y-18163048D01*
X22571924Y-18363101D01*
X22571773Y-18544344D01*
X22571566Y-18707716D01*
X22571294Y-18854160D01*
X22570950Y-18984617D01*
X22570526Y-19100029D01*
X22570013Y-19201338D01*
X22569403Y-19289484D01*
X22568688Y-19365410D01*
X22567860Y-19430057D01*
X22566911Y-19484367D01*
X22565833Y-19529280D01*
X22564617Y-19565740D01*
X22563255Y-19594687D01*
X22561739Y-19617063D01*
X22560062Y-19633809D01*
X22558214Y-19645868D01*
X22556187Y-19654180D01*
X22553975Y-19659687D01*
X22552892Y-19661537D01*
X22548729Y-19668549D01*
X22545195Y-19674996D01*
X22541365Y-19680900D01*
X22536318Y-19686286D01*
X22529129Y-19691178D01*
X22518877Y-19695598D01*
X22504636Y-19699572D01*
X22485486Y-19703121D01*
X22460501Y-19706270D01*
X22428760Y-19709042D01*
X22389338Y-19711461D01*
X22341314Y-19713551D01*
X22283763Y-19715335D01*
X22215763Y-19716837D01*
X22136390Y-19718080D01*
X22044721Y-19719089D01*
X21939834Y-19719885D01*
X21820804Y-19720494D01*
X21686710Y-19720939D01*
X21536627Y-19721243D01*
X21369633Y-19721430D01*
X21184804Y-19721524D01*
X20981217Y-19721548D01*
X20757950Y-19721525D01*
X20514078Y-19721480D01*
X20248679Y-19721437D01*
X20210296Y-19721432D01*
X19943318Y-19721389D01*
X19697998Y-19721318D01*
X19473417Y-19721213D01*
X19268655Y-19721066D01*
X19082794Y-19720869D01*
X18914912Y-19720616D01*
X18764092Y-19720300D01*
X18629413Y-19719913D01*
X18509956Y-19719447D01*
X18404801Y-19718897D01*
X18313029Y-19718253D01*
X18233721Y-19717511D01*
X18165957Y-19716661D01*
X18108818Y-19715697D01*
X18061383Y-19714611D01*
X18022734Y-19713397D01*
X17991951Y-19712047D01*
X17968115Y-19710555D01*
X17950306Y-19708911D01*
X17937605Y-19707111D01*
X17929092Y-19705145D01*
X17924734Y-19703477D01*
X17916272Y-19699906D01*
X17908503Y-19697270D01*
X17901398Y-19694634D01*
X17894927Y-19691062D01*
X17889061Y-19685621D01*
X17883771Y-19677375D01*
X17879026Y-19665390D01*
X17874798Y-19648731D01*
X17871057Y-19626463D01*
X17867773Y-19597652D01*
X17864917Y-19561363D01*
X17862460Y-19516661D01*
X17860371Y-19462611D01*
X17858622Y-19398279D01*
X17857183Y-19322730D01*
X17856024Y-19235030D01*
X17855117Y-19134243D01*
X17854431Y-19019434D01*
X17853937Y-18889670D01*
X17853605Y-18744015D01*
X17853407Y-18581535D01*
X17853313Y-18401295D01*
X17853292Y-18202360D01*
X17853315Y-17983796D01*
X17853354Y-17744668D01*
X17853378Y-17484040D01*
X17853378Y-17441889D01*
X17853364Y-17178992D01*
X17853339Y-16937732D01*
X17853329Y-16717165D01*
X17853358Y-16516352D01*
X17853452Y-16334349D01*
X17853638Y-16170216D01*
X17853941Y-16023011D01*
X17854386Y-15891792D01*
X17854966Y-15781867D01*
X18157803Y-15781867D01*
X18197593Y-15839711D01*
X18208764Y-15855479D01*
X18218834Y-15869441D01*
X18227862Y-15882784D01*
X18235903Y-15896693D01*
X18243014Y-15912356D01*
X18249253Y-15930958D01*
X18254675Y-15953686D01*
X18259338Y-15981727D01*
X18263299Y-16016267D01*
X18266615Y-16058492D01*
X18269341Y-16109589D01*
X18271536Y-16170744D01*
X18273255Y-16243144D01*
X18274556Y-16327975D01*
X18275495Y-16426422D01*
X18276130Y-16539674D01*
X18276516Y-16668916D01*
X18276712Y-16815334D01*
X18276773Y-16980116D01*
X18276757Y-17164447D01*
X18276720Y-17369513D01*
X18276711Y-17492133D01*
X18276735Y-17709082D01*
X18276769Y-17904642D01*
X18276757Y-18079999D01*
X18276642Y-18236341D01*
X18276370Y-18374857D01*
X18275882Y-18496734D01*
X18275124Y-18603160D01*
X18274038Y-18695322D01*
X18272569Y-18774409D01*
X18270660Y-18841608D01*
X18268256Y-18898107D01*
X18265299Y-18945093D01*
X18261734Y-18983755D01*
X18257505Y-19015280D01*
X18252554Y-19040855D01*
X18246827Y-19061670D01*
X18240267Y-19078911D01*
X18232817Y-19093765D01*
X18224421Y-19107422D01*
X18215024Y-19121069D01*
X18204568Y-19135893D01*
X18198477Y-19144783D01*
X18159704Y-19202400D01*
X18691268Y-19202400D01*
X18814517Y-19202365D01*
X18917013Y-19202215D01*
X19000580Y-19201878D01*
X19067044Y-19201286D01*
X19118229Y-19200367D01*
X19155959Y-19199051D01*
X19182060Y-19197269D01*
X19198356Y-19194951D01*
X19206672Y-19192026D01*
X19208832Y-19188424D01*
X19206661Y-19184075D01*
X19205465Y-19182645D01*
X19180315Y-19145573D01*
X19154417Y-19092772D01*
X19130808Y-19030770D01*
X19122539Y-19004357D01*
X19117922Y-18986416D01*
X19114021Y-18965355D01*
X19110752Y-18939089D01*
X19108034Y-18905532D01*
X19105785Y-18862599D01*
X19103923Y-18808204D01*
X19102364Y-18740262D01*
X19101028Y-18656688D01*
X19099831Y-18555395D01*
X19098692Y-18434300D01*
X19098315Y-18389600D01*
X19097298Y-18264449D01*
X19096540Y-18160082D01*
X19096097Y-18074707D01*
X19096030Y-18006533D01*
X19096395Y-17953765D01*
X19097252Y-17914614D01*
X19098659Y-17887285D01*
X19100675Y-17869986D01*
X19103357Y-17860926D01*
X19106764Y-17858312D01*
X19110956Y-17860351D01*
X19115429Y-17864667D01*
X19125784Y-17877602D01*
X19147842Y-17906676D01*
X19180043Y-17949759D01*
X19220826Y-18004718D01*
X19268630Y-18069423D01*
X19321895Y-18141742D01*
X19379060Y-18219544D01*
X19438563Y-18300698D01*
X19498845Y-18383072D01*
X19558345Y-18464536D01*
X19615502Y-18542957D01*
X19668755Y-18616204D01*
X19716543Y-18682147D01*
X19757307Y-18738654D01*
X19789484Y-18783593D01*
X19811515Y-18814834D01*
X19816083Y-18821466D01*
X19839004Y-18858369D01*
X19865812Y-18906359D01*
X19891211Y-18955897D01*
X19894432Y-18962577D01*
X19916110Y-19010772D01*
X19928696Y-19048334D01*
X19934426Y-19084160D01*
X19935544Y-19126200D01*
X19934910Y-19202400D01*
X21089349Y-19202400D01*
X20998185Y-19108669D01*
X20951388Y-19058775D01*
X20901101Y-19002295D01*
X20855056Y-18948026D01*
X20834631Y-18922673D01*
X20804193Y-18883128D01*
X20764138Y-18829916D01*
X20715639Y-18764667D01*
X20659865Y-18689011D01*
X20597989Y-18604577D01*
X20531181Y-18512994D01*
X20460613Y-18415892D01*
X20387455Y-18314901D01*
X20312879Y-18211650D01*
X20238056Y-18107768D01*
X20164157Y-18004885D01*
X20092354Y-17904631D01*
X20023816Y-17808636D01*
X19959716Y-17718527D01*
X19901225Y-17635936D01*
X19849514Y-17562492D01*
X19805753Y-17499824D01*
X19771115Y-17449561D01*
X19746770Y-17413334D01*
X19733889Y-17392771D01*
X19732131Y-17388668D01*
X19740090Y-17377342D01*
X19760885Y-17350162D01*
X19793153Y-17308829D01*
X19835530Y-17255044D01*
X19886653Y-17190506D01*
X19945159Y-17116918D01*
X20009686Y-17035978D01*
X20078869Y-16949388D01*
X20151347Y-16858848D01*
X20225754Y-16766060D01*
X20285483Y-16691702D01*
X21296489Y-16691702D01*
X21302398Y-16704659D01*
X21316728Y-16726908D01*
X21317775Y-16728391D01*
X21336562Y-16758544D01*
X21356209Y-16795375D01*
X21360108Y-16803511D01*
X21363644Y-16811940D01*
X21366770Y-16822059D01*
X21369514Y-16835260D01*
X21371908Y-16852938D01*
X21373981Y-16876484D01*
X21375765Y-16907293D01*
X21377288Y-16946757D01*
X21378581Y-16996269D01*
X21379674Y-17057223D01*
X21380597Y-17131011D01*
X21381381Y-17219028D01*
X21382055Y-17322665D01*
X21382650Y-17443316D01*
X21383195Y-17582374D01*
X21383721Y-17741232D01*
X21384255Y-17920089D01*
X21384794Y-18105207D01*
X21385228Y-18269145D01*
X21385491Y-18413303D01*
X21385516Y-18539079D01*
X21385235Y-18647871D01*
X21384581Y-18741077D01*
X21383486Y-18820097D01*
X21381882Y-18886328D01*
X21379703Y-18941170D01*
X21376881Y-18986021D01*
X21373349Y-19022278D01*
X21369039Y-19051341D01*
X21363883Y-19074609D01*
X21357815Y-19093479D01*
X21350767Y-19109351D01*
X21342671Y-19123622D01*
X21333460Y-19137691D01*
X21324960Y-19150158D01*
X21307824Y-19176452D01*
X21297678Y-19194037D01*
X21296489Y-19197257D01*
X21307396Y-19198334D01*
X21338589Y-19199335D01*
X21387777Y-19200235D01*
X21452667Y-19201010D01*
X21530970Y-19201637D01*
X21620393Y-19202091D01*
X21718644Y-19202349D01*
X21787555Y-19202400D01*
X21892548Y-19202180D01*
X21989390Y-19201548D01*
X22075893Y-19200549D01*
X22149868Y-19199227D01*
X22209126Y-19197626D01*
X22251480Y-19195791D01*
X22274740Y-19193765D01*
X22278622Y-19192493D01*
X22270924Y-19177591D01*
X22262926Y-19169560D01*
X22249754Y-19152434D01*
X22232515Y-19122183D01*
X22220593Y-19097622D01*
X22193955Y-19038711D01*
X22190880Y-17861845D01*
X22187805Y-16684978D01*
X21742147Y-16684978D01*
X21644330Y-16685142D01*
X21553936Y-16685611D01*
X21473370Y-16686347D01*
X21405038Y-16687316D01*
X21351344Y-16688480D01*
X21314695Y-16689803D01*
X21297496Y-16691249D01*
X21296489Y-16691702D01*
X20285483Y-16691702D01*
X20300730Y-16672722D01*
X20374910Y-16580537D01*
X20446931Y-16491204D01*
X20515431Y-16406424D01*
X20579045Y-16327898D01*
X20636412Y-16257326D01*
X20686167Y-16196409D01*
X20726948Y-16146847D01*
X20744112Y-16126178D01*
X20830404Y-16025516D01*
X20907003Y-15942259D01*
X20975817Y-15874438D01*
X21038752Y-15820089D01*
X21048133Y-15812722D01*
X21087644Y-15782117D01*
X19955884Y-15781867D01*
X19961173Y-15829844D01*
X19957870Y-15887188D01*
X19936339Y-15955463D01*
X19896365Y-16035212D01*
X19851057Y-16107495D01*
X19834839Y-16130140D01*
X19806786Y-16167696D01*
X19768570Y-16218021D01*
X19721863Y-16278973D01*
X19668339Y-16348411D01*
X19609669Y-16424194D01*
X19547525Y-16504180D01*
X19483579Y-16586228D01*
X19419505Y-16668196D01*
X19356973Y-16747943D01*
X19297657Y-16823327D01*
X19243229Y-16892207D01*
X19195361Y-16952442D01*
X19155725Y-17001889D01*
X19125994Y-17038408D01*
X19107839Y-17059858D01*
X19104780Y-17063156D01*
X19101921Y-17055149D01*
X19099707Y-17024855D01*
X19098143Y-16972556D01*
X19097233Y-16898531D01*
X19096980Y-16803063D01*
X19097387Y-16686434D01*
X19098296Y-16566445D01*
X19099618Y-16434333D01*
X19101143Y-16322594D01*
X19103119Y-16229025D01*
X19105794Y-16151419D01*
X19109418Y-16087574D01*
X19114239Y-16035283D01*
X19120506Y-15992344D01*
X19128468Y-15956551D01*
X19138373Y-15925700D01*
X19150469Y-15897586D01*
X19165007Y-15870005D01*
X19179689Y-15844966D01*
X19217686Y-15781867D01*
X18157803Y-15781867D01*
X17854966Y-15781867D01*
X17854999Y-15775617D01*
X17855805Y-15673544D01*
X17856830Y-15584633D01*
X17858100Y-15507941D01*
X17859640Y-15442527D01*
X17861476Y-15387449D01*
X17863633Y-15341765D01*
X17866137Y-15304534D01*
X17869013Y-15274813D01*
X17872287Y-15251662D01*
X17875985Y-15234139D01*
X17880131Y-15221301D01*
X17884753Y-15212208D01*
X17889874Y-15205918D01*
X17895522Y-15201488D01*
X17901721Y-15197978D01*
X17908496Y-15194445D01*
X17914492Y-15190876D01*
X17919725Y-15188300D01*
X17927901Y-15185972D01*
X17940114Y-15183878D01*
X17957459Y-15182007D01*
X17981031Y-15180347D01*
X18011923Y-15178884D01*
X18051232Y-15177608D01*
X18100050Y-15176504D01*
X18159473Y-15175561D01*
X18230596Y-15174767D01*
X18314512Y-15174109D01*
X18412317Y-15173575D01*
X18525106Y-15173153D01*
X18653971Y-15172829D01*
X18800009Y-15172592D01*
X18964314Y-15172430D01*
X19147980Y-15172330D01*
X19352103Y-15172280D01*
X19563247Y-15172267D01*
X21183600Y-15172267D01*
X21183600Y-15269054D01*
G37*
X21183600Y-15269054D02*
X21194465Y-15382993D01*
X21226082Y-15490616D01*
X21276985Y-15589615D01*
X21345707Y-15677684D01*
X21430781Y-15752516D01*
X21527768Y-15810384D01*
X21634036Y-15850005D01*
X21741050Y-15868573D01*
X21846700Y-15867434D01*
X21948875Y-15847930D01*
X22045466Y-15811406D01*
X22134362Y-15759205D01*
X22213454Y-15692673D01*
X22280631Y-15613152D01*
X22333783Y-15521987D01*
X22370801Y-15420523D01*
X22389573Y-15310102D01*
X22391511Y-15260206D01*
X22391511Y-15172267D01*
X22443440Y-15172267D01*
X22479747Y-15175111D01*
X22506645Y-15186911D01*
X22533751Y-15210649D01*
X22572133Y-15249031D01*
X22572133Y-17440602D01*
X22572124Y-17702739D01*
X22572092Y-17943241D01*
X22572028Y-18163048D01*
X22571924Y-18363101D01*
X22571773Y-18544344D01*
X22571566Y-18707716D01*
X22571294Y-18854160D01*
X22570950Y-18984617D01*
X22570526Y-19100029D01*
X22570013Y-19201338D01*
X22569403Y-19289484D01*
X22568688Y-19365410D01*
X22567860Y-19430057D01*
X22566911Y-19484367D01*
X22565833Y-19529280D01*
X22564617Y-19565740D01*
X22563255Y-19594687D01*
X22561739Y-19617063D01*
X22560062Y-19633809D01*
X22558214Y-19645868D01*
X22556187Y-19654180D01*
X22553975Y-19659687D01*
X22552892Y-19661537D01*
X22548729Y-19668549D01*
X22545195Y-19674996D01*
X22541365Y-19680900D01*
X22536318Y-19686286D01*
X22529129Y-19691178D01*
X22518877Y-19695598D01*
X22504636Y-19699572D01*
X22485486Y-19703121D01*
X22460501Y-19706270D01*
X22428760Y-19709042D01*
X22389338Y-19711461D01*
X22341314Y-19713551D01*
X22283763Y-19715335D01*
X22215763Y-19716837D01*
X22136390Y-19718080D01*
X22044721Y-19719089D01*
X21939834Y-19719885D01*
X21820804Y-19720494D01*
X21686710Y-19720939D01*
X21536627Y-19721243D01*
X21369633Y-19721430D01*
X21184804Y-19721524D01*
X20981217Y-19721548D01*
X20757950Y-19721525D01*
X20514078Y-19721480D01*
X20248679Y-19721437D01*
X20210296Y-19721432D01*
X19943318Y-19721389D01*
X19697998Y-19721318D01*
X19473417Y-19721213D01*
X19268655Y-19721066D01*
X19082794Y-19720869D01*
X18914912Y-19720616D01*
X18764092Y-19720300D01*
X18629413Y-19719913D01*
X18509956Y-19719447D01*
X18404801Y-19718897D01*
X18313029Y-19718253D01*
X18233721Y-19717511D01*
X18165957Y-19716661D01*
X18108818Y-19715697D01*
X18061383Y-19714611D01*
X18022734Y-19713397D01*
X17991951Y-19712047D01*
X17968115Y-19710555D01*
X17950306Y-19708911D01*
X17937605Y-19707111D01*
X17929092Y-19705145D01*
X17924734Y-19703477D01*
X17916272Y-19699906D01*
X17908503Y-19697270D01*
X17901398Y-19694634D01*
X17894927Y-19691062D01*
X17889061Y-19685621D01*
X17883771Y-19677375D01*
X17879026Y-19665390D01*
X17874798Y-19648731D01*
X17871057Y-19626463D01*
X17867773Y-19597652D01*
X17864917Y-19561363D01*
X17862460Y-19516661D01*
X17860371Y-19462611D01*
X17858622Y-19398279D01*
X17857183Y-19322730D01*
X17856024Y-19235030D01*
X17855117Y-19134243D01*
X17854431Y-19019434D01*
X17853937Y-18889670D01*
X17853605Y-18744015D01*
X17853407Y-18581535D01*
X17853313Y-18401295D01*
X17853292Y-18202360D01*
X17853315Y-17983796D01*
X17853354Y-17744668D01*
X17853378Y-17484040D01*
X17853378Y-17441889D01*
X17853364Y-17178992D01*
X17853339Y-16937732D01*
X17853329Y-16717165D01*
X17853358Y-16516352D01*
X17853452Y-16334349D01*
X17853638Y-16170216D01*
X17853941Y-16023011D01*
X17854386Y-15891792D01*
X17854966Y-15781867D01*
X18157803Y-15781867D01*
X18197593Y-15839711D01*
X18208764Y-15855479D01*
X18218834Y-15869441D01*
X18227862Y-15882784D01*
X18235903Y-15896693D01*
X18243014Y-15912356D01*
X18249253Y-15930958D01*
X18254675Y-15953686D01*
X18259338Y-15981727D01*
X18263299Y-16016267D01*
X18266615Y-16058492D01*
X18269341Y-16109589D01*
X18271536Y-16170744D01*
X18273255Y-16243144D01*
X18274556Y-16327975D01*
X18275495Y-16426422D01*
X18276130Y-16539674D01*
X18276516Y-16668916D01*
X18276712Y-16815334D01*
X18276773Y-16980116D01*
X18276757Y-17164447D01*
X18276720Y-17369513D01*
X18276711Y-17492133D01*
X18276735Y-17709082D01*
X18276769Y-17904642D01*
X18276757Y-18079999D01*
X18276642Y-18236341D01*
X18276370Y-18374857D01*
X18275882Y-18496734D01*
X18275124Y-18603160D01*
X18274038Y-18695322D01*
X18272569Y-18774409D01*
X18270660Y-18841608D01*
X18268256Y-18898107D01*
X18265299Y-18945093D01*
X18261734Y-18983755D01*
X18257505Y-19015280D01*
X18252554Y-19040855D01*
X18246827Y-19061670D01*
X18240267Y-19078911D01*
X18232817Y-19093765D01*
X18224421Y-19107422D01*
X18215024Y-19121069D01*
X18204568Y-19135893D01*
X18198477Y-19144783D01*
X18159704Y-19202400D01*
X18691268Y-19202400D01*
X18814517Y-19202365D01*
X18917013Y-19202215D01*
X19000580Y-19201878D01*
X19067044Y-19201286D01*
X19118229Y-19200367D01*
X19155959Y-19199051D01*
X19182060Y-19197269D01*
X19198356Y-19194951D01*
X19206672Y-19192026D01*
X19208832Y-19188424D01*
X19206661Y-19184075D01*
X19205465Y-19182645D01*
X19180315Y-19145573D01*
X19154417Y-19092772D01*
X19130808Y-19030770D01*
X19122539Y-19004357D01*
X19117922Y-18986416D01*
X19114021Y-18965355D01*
X19110752Y-18939089D01*
X19108034Y-18905532D01*
X19105785Y-18862599D01*
X19103923Y-18808204D01*
X19102364Y-18740262D01*
X19101028Y-18656688D01*
X19099831Y-18555395D01*
X19098692Y-18434300D01*
X19098315Y-18389600D01*
X19097298Y-18264449D01*
X19096540Y-18160082D01*
X19096097Y-18074707D01*
X19096030Y-18006533D01*
X19096395Y-17953765D01*
X19097252Y-17914614D01*
X19098659Y-17887285D01*
X19100675Y-17869986D01*
X19103357Y-17860926D01*
X19106764Y-17858312D01*
X19110956Y-17860351D01*
X19115429Y-17864667D01*
X19125784Y-17877602D01*
X19147842Y-17906676D01*
X19180043Y-17949759D01*
X19220826Y-18004718D01*
X19268630Y-18069423D01*
X19321895Y-18141742D01*
X19379060Y-18219544D01*
X19438563Y-18300698D01*
X19498845Y-18383072D01*
X19558345Y-18464536D01*
X19615502Y-18542957D01*
X19668755Y-18616204D01*
X19716543Y-18682147D01*
X19757307Y-18738654D01*
X19789484Y-18783593D01*
X19811515Y-18814834D01*
X19816083Y-18821466D01*
X19839004Y-18858369D01*
X19865812Y-18906359D01*
X19891211Y-18955897D01*
X19894432Y-18962577D01*
X19916110Y-19010772D01*
X19928696Y-19048334D01*
X19934426Y-19084160D01*
X19935544Y-19126200D01*
X19934910Y-19202400D01*
X21089349Y-19202400D01*
X20998185Y-19108669D01*
X20951388Y-19058775D01*
X20901101Y-19002295D01*
X20855056Y-18948026D01*
X20834631Y-18922673D01*
X20804193Y-18883128D01*
X20764138Y-18829916D01*
X20715639Y-18764667D01*
X20659865Y-18689011D01*
X20597989Y-18604577D01*
X20531181Y-18512994D01*
X20460613Y-18415892D01*
X20387455Y-18314901D01*
X20312879Y-18211650D01*
X20238056Y-18107768D01*
X20164157Y-18004885D01*
X20092354Y-17904631D01*
X20023816Y-17808636D01*
X19959716Y-17718527D01*
X19901225Y-17635936D01*
X19849514Y-17562492D01*
X19805753Y-17499824D01*
X19771115Y-17449561D01*
X19746770Y-17413334D01*
X19733889Y-17392771D01*
X19732131Y-17388668D01*
X19740090Y-17377342D01*
X19760885Y-17350162D01*
X19793153Y-17308829D01*
X19835530Y-17255044D01*
X19886653Y-17190506D01*
X19945159Y-17116918D01*
X20009686Y-17035978D01*
X20078869Y-16949388D01*
X20151347Y-16858848D01*
X20225754Y-16766060D01*
X20285483Y-16691702D01*
X21296489Y-16691702D01*
X21302398Y-16704659D01*
X21316728Y-16726908D01*
X21317775Y-16728391D01*
X21336562Y-16758544D01*
X21356209Y-16795375D01*
X21360108Y-16803511D01*
X21363644Y-16811940D01*
X21366770Y-16822059D01*
X21369514Y-16835260D01*
X21371908Y-16852938D01*
X21373981Y-16876484D01*
X21375765Y-16907293D01*
X21377288Y-16946757D01*
X21378581Y-16996269D01*
X21379674Y-17057223D01*
X21380597Y-17131011D01*
X21381381Y-17219028D01*
X21382055Y-17322665D01*
X21382650Y-17443316D01*
X21383195Y-17582374D01*
X21383721Y-17741232D01*
X21384255Y-17920089D01*
X21384794Y-18105207D01*
X21385228Y-18269145D01*
X21385491Y-18413303D01*
X21385516Y-18539079D01*
X21385235Y-18647871D01*
X21384581Y-18741077D01*
X21383486Y-18820097D01*
X21381882Y-18886328D01*
X21379703Y-18941170D01*
X21376881Y-18986021D01*
X21373349Y-19022278D01*
X21369039Y-19051341D01*
X21363883Y-19074609D01*
X21357815Y-19093479D01*
X21350767Y-19109351D01*
X21342671Y-19123622D01*
X21333460Y-19137691D01*
X21324960Y-19150158D01*
X21307824Y-19176452D01*
X21297678Y-19194037D01*
X21296489Y-19197257D01*
X21307396Y-19198334D01*
X21338589Y-19199335D01*
X21387777Y-19200235D01*
X21452667Y-19201010D01*
X21530970Y-19201637D01*
X21620393Y-19202091D01*
X21718644Y-19202349D01*
X21787555Y-19202400D01*
X21892548Y-19202180D01*
X21989390Y-19201548D01*
X22075893Y-19200549D01*
X22149868Y-19199227D01*
X22209126Y-19197626D01*
X22251480Y-19195791D01*
X22274740Y-19193765D01*
X22278622Y-19192493D01*
X22270924Y-19177591D01*
X22262926Y-19169560D01*
X22249754Y-19152434D01*
X22232515Y-19122183D01*
X22220593Y-19097622D01*
X22193955Y-19038711D01*
X22190880Y-17861845D01*
X22187805Y-16684978D01*
X21742147Y-16684978D01*
X21644330Y-16685142D01*
X21553936Y-16685611D01*
X21473370Y-16686347D01*
X21405038Y-16687316D01*
X21351344Y-16688480D01*
X21314695Y-16689803D01*
X21297496Y-16691249D01*
X21296489Y-16691702D01*
X20285483Y-16691702D01*
X20300730Y-16672722D01*
X20374910Y-16580537D01*
X20446931Y-16491204D01*
X20515431Y-16406424D01*
X20579045Y-16327898D01*
X20636412Y-16257326D01*
X20686167Y-16196409D01*
X20726948Y-16146847D01*
X20744112Y-16126178D01*
X20830404Y-16025516D01*
X20907003Y-15942259D01*
X20975817Y-15874438D01*
X21038752Y-15820089D01*
X21048133Y-15812722D01*
X21087644Y-15782117D01*
X19955884Y-15781867D01*
X19961173Y-15829844D01*
X19957870Y-15887188D01*
X19936339Y-15955463D01*
X19896365Y-16035212D01*
X19851057Y-16107495D01*
X19834839Y-16130140D01*
X19806786Y-16167696D01*
X19768570Y-16218021D01*
X19721863Y-16278973D01*
X19668339Y-16348411D01*
X19609669Y-16424194D01*
X19547525Y-16504180D01*
X19483579Y-16586228D01*
X19419505Y-16668196D01*
X19356973Y-16747943D01*
X19297657Y-16823327D01*
X19243229Y-16892207D01*
X19195361Y-16952442D01*
X19155725Y-17001889D01*
X19125994Y-17038408D01*
X19107839Y-17059858D01*
X19104780Y-17063156D01*
X19101921Y-17055149D01*
X19099707Y-17024855D01*
X19098143Y-16972556D01*
X19097233Y-16898531D01*
X19096980Y-16803063D01*
X19097387Y-16686434D01*
X19098296Y-16566445D01*
X19099618Y-16434333D01*
X19101143Y-16322594D01*
X19103119Y-16229025D01*
X19105794Y-16151419D01*
X19109418Y-16087574D01*
X19114239Y-16035283D01*
X19120506Y-15992344D01*
X19128468Y-15956551D01*
X19138373Y-15925700D01*
X19150469Y-15897586D01*
X19165007Y-15870005D01*
X19179689Y-15844966D01*
X19217686Y-15781867D01*
X18157803Y-15781867D01*
X17854966Y-15781867D01*
X17854999Y-15775617D01*
X17855805Y-15673544D01*
X17856830Y-15584633D01*
X17858100Y-15507941D01*
X17859640Y-15442527D01*
X17861476Y-15387449D01*
X17863633Y-15341765D01*
X17866137Y-15304534D01*
X17869013Y-15274813D01*
X17872287Y-15251662D01*
X17875985Y-15234139D01*
X17880131Y-15221301D01*
X17884753Y-15212208D01*
X17889874Y-15205918D01*
X17895522Y-15201488D01*
X17901721Y-15197978D01*
X17908496Y-15194445D01*
X17914492Y-15190876D01*
X17919725Y-15188300D01*
X17927901Y-15185972D01*
X17940114Y-15183878D01*
X17957459Y-15182007D01*
X17981031Y-15180347D01*
X18011923Y-15178884D01*
X18051232Y-15177608D01*
X18100050Y-15176504D01*
X18159473Y-15175561D01*
X18230596Y-15174767D01*
X18314512Y-15174109D01*
X18412317Y-15173575D01*
X18525106Y-15173153D01*
X18653971Y-15172829D01*
X18800009Y-15172592D01*
X18964314Y-15172430D01*
X19147980Y-15172330D01*
X19352103Y-15172280D01*
X19563247Y-15172267D01*
X21183600Y-15172267D01*
X21183600Y-15269054D01*
G36*
X24458429Y-15729071D02*
G01*
X24618570Y-15750245D01*
X24782510Y-15790385D01*
X24952313Y-15849889D01*
X25130043Y-15929154D01*
X25141310Y-15934699D01*
X25199005Y-15962725D01*
X25250552Y-15986802D01*
X25292191Y-16005249D01*
X25320162Y-16016386D01*
X25329733Y-16018933D01*
X25348950Y-16023941D01*
X25353561Y-16028147D01*
X25348458Y-16038580D01*
X25332418Y-16064868D01*
X25307288Y-16104257D01*
X25274914Y-16153991D01*
X25237143Y-16211315D01*
X25195822Y-16273476D01*
X25152798Y-16337718D01*
X25109917Y-16401285D01*
X25069026Y-16461425D01*
X25031971Y-16515380D01*
X25000600Y-16560397D01*
X24976759Y-16593721D01*
X24962294Y-16612597D01*
X24960309Y-16614787D01*
X24950191Y-16610138D01*
X24927850Y-16592962D01*
X24897280Y-16566440D01*
X24881536Y-16551964D01*
X24785047Y-16476682D01*
X24678336Y-16421241D01*
X24562832Y-16386141D01*
X24439962Y-16371880D01*
X24370561Y-16373051D01*
X24249423Y-16390212D01*
X24140205Y-16426094D01*
X24042582Y-16480959D01*
X23956228Y-16555070D01*
X23880815Y-16648688D01*
X23816018Y-16762076D01*
X23778601Y-16848667D01*
X23734748Y-16984366D01*
X23702428Y-17131850D01*
X23681557Y-17287314D01*
X23672051Y-17446956D01*
X23673827Y-17606973D01*
X23686803Y-17763561D01*
X23710894Y-17912918D01*
X23746018Y-18051240D01*
X23792092Y-18174724D01*
X23808373Y-18208978D01*
X23876620Y-18323064D01*
X23957079Y-18419557D01*
X24048570Y-18497670D01*
X24149911Y-18556617D01*
X24259920Y-18595612D01*
X24377415Y-18613868D01*
X24418883Y-18615211D01*
X24540441Y-18604290D01*
X24660878Y-18571474D01*
X24778666Y-18517439D01*
X24892277Y-18442865D01*
X24983685Y-18364539D01*
X25030215Y-18320008D01*
X25211483Y-18617271D01*
X25256580Y-18691433D01*
X25297819Y-18759646D01*
X25333735Y-18819459D01*
X25362866Y-18868420D01*
X25383750Y-18904079D01*
X25394924Y-18923984D01*
X25396375Y-18927079D01*
X25388146Y-18936718D01*
X25362567Y-18953999D01*
X25322873Y-18977283D01*
X25272297Y-19004934D01*
X25214074Y-19035315D01*
X25151437Y-19066790D01*
X25087621Y-19097722D01*
X25025860Y-19126473D01*
X24969388Y-19151408D01*
X24921438Y-19170889D01*
X24897986Y-19179318D01*
X24764221Y-19217133D01*
X24626327Y-19242136D01*
X24478622Y-19255140D01*
X24351833Y-19257468D01*
X24283878Y-19256373D01*
X24218277Y-19254275D01*
X24160847Y-19251434D01*
X24117403Y-19248106D01*
X24103298Y-19246422D01*
X23964284Y-19217587D01*
X23822757Y-19172468D01*
X23685275Y-19113750D01*
X23558394Y-19044120D01*
X23480889Y-18991441D01*
X23353481Y-18883239D01*
X23235178Y-18756671D01*
X23128172Y-18614866D01*
X23034652Y-18460951D01*
X22956810Y-18298053D01*
X22912956Y-18180756D01*
X22862708Y-17997128D01*
X22829209Y-17802581D01*
X22812449Y-17601325D01*
X22812416Y-17397568D01*
X22829101Y-17195521D01*
X22862493Y-16999392D01*
X22912580Y-16813391D01*
X22916397Y-16801803D01*
X22979281Y-16639750D01*
X23056028Y-16491832D01*
X23149242Y-16353865D01*
X23261527Y-16221661D01*
X23305392Y-16176399D01*
X23441534Y-16052457D01*
X23581491Y-15949915D01*
X23727411Y-15867656D01*
X23881442Y-15804564D01*
X24045732Y-15759523D01*
X24141289Y-15742033D01*
X24300023Y-15726466D01*
X24458429Y-15729071D01*
G37*
X24458429Y-15729071D02*
X24618570Y-15750245D01*
X24782510Y-15790385D01*
X24952313Y-15849889D01*
X25130043Y-15929154D01*
X25141310Y-15934699D01*
X25199005Y-15962725D01*
X25250552Y-15986802D01*
X25292191Y-16005249D01*
X25320162Y-16016386D01*
X25329733Y-16018933D01*
X25348950Y-16023941D01*
X25353561Y-16028147D01*
X25348458Y-16038580D01*
X25332418Y-16064868D01*
X25307288Y-16104257D01*
X25274914Y-16153991D01*
X25237143Y-16211315D01*
X25195822Y-16273476D01*
X25152798Y-16337718D01*
X25109917Y-16401285D01*
X25069026Y-16461425D01*
X25031971Y-16515380D01*
X25000600Y-16560397D01*
X24976759Y-16593721D01*
X24962294Y-16612597D01*
X24960309Y-16614787D01*
X24950191Y-16610138D01*
X24927850Y-16592962D01*
X24897280Y-16566440D01*
X24881536Y-16551964D01*
X24785047Y-16476682D01*
X24678336Y-16421241D01*
X24562832Y-16386141D01*
X24439962Y-16371880D01*
X24370561Y-16373051D01*
X24249423Y-16390212D01*
X24140205Y-16426094D01*
X24042582Y-16480959D01*
X23956228Y-16555070D01*
X23880815Y-16648688D01*
X23816018Y-16762076D01*
X23778601Y-16848667D01*
X23734748Y-16984366D01*
X23702428Y-17131850D01*
X23681557Y-17287314D01*
X23672051Y-17446956D01*
X23673827Y-17606973D01*
X23686803Y-17763561D01*
X23710894Y-17912918D01*
X23746018Y-18051240D01*
X23792092Y-18174724D01*
X23808373Y-18208978D01*
X23876620Y-18323064D01*
X23957079Y-18419557D01*
X24048570Y-18497670D01*
X24149911Y-18556617D01*
X24259920Y-18595612D01*
X24377415Y-18613868D01*
X24418883Y-18615211D01*
X24540441Y-18604290D01*
X24660878Y-18571474D01*
X24778666Y-18517439D01*
X24892277Y-18442865D01*
X24983685Y-18364539D01*
X25030215Y-18320008D01*
X25211483Y-18617271D01*
X25256580Y-18691433D01*
X25297819Y-18759646D01*
X25333735Y-18819459D01*
X25362866Y-18868420D01*
X25383750Y-18904079D01*
X25394924Y-18923984D01*
X25396375Y-18927079D01*
X25388146Y-18936718D01*
X25362567Y-18953999D01*
X25322873Y-18977283D01*
X25272297Y-19004934D01*
X25214074Y-19035315D01*
X25151437Y-19066790D01*
X25087621Y-19097722D01*
X25025860Y-19126473D01*
X24969388Y-19151408D01*
X24921438Y-19170889D01*
X24897986Y-19179318D01*
X24764221Y-19217133D01*
X24626327Y-19242136D01*
X24478622Y-19255140D01*
X24351833Y-19257468D01*
X24283878Y-19256373D01*
X24218277Y-19254275D01*
X24160847Y-19251434D01*
X24117403Y-19248106D01*
X24103298Y-19246422D01*
X23964284Y-19217587D01*
X23822757Y-19172468D01*
X23685275Y-19113750D01*
X23558394Y-19044120D01*
X23480889Y-18991441D01*
X23353481Y-18883239D01*
X23235178Y-18756671D01*
X23128172Y-18614866D01*
X23034652Y-18460951D01*
X22956810Y-18298053D01*
X22912956Y-18180756D01*
X22862708Y-17997128D01*
X22829209Y-17802581D01*
X22812449Y-17601325D01*
X22812416Y-17397568D01*
X22829101Y-17195521D01*
X22862493Y-16999392D01*
X22912580Y-16813391D01*
X22916397Y-16801803D01*
X22979281Y-16639750D01*
X23056028Y-16491832D01*
X23149242Y-16353865D01*
X23261527Y-16221661D01*
X23305392Y-16176399D01*
X23441534Y-16052457D01*
X23581491Y-15949915D01*
X23727411Y-15867656D01*
X23881442Y-15804564D01*
X24045732Y-15759523D01*
X24141289Y-15742033D01*
X24300023Y-15726466D01*
X24458429Y-15729071D01*
G36*
X26803574Y-16646552D02*
G01*
X26955492Y-16666567D01*
X27090756Y-16700202D01*
X27210239Y-16747725D01*
X27314815Y-16809405D01*
X27392424Y-16872965D01*
X27461265Y-16947099D01*
X27515006Y-17026871D01*
X27557910Y-17119091D01*
X27573384Y-17162161D01*
X27586244Y-17201142D01*
X27597446Y-17237289D01*
X27607120Y-17272434D01*
X27615396Y-17308410D01*
X27622403Y-17347050D01*
X27628272Y-17390185D01*
X27633131Y-17439649D01*
X27637110Y-17497273D01*
X27640340Y-17564891D01*
X27642949Y-17644334D01*
X27645067Y-17737436D01*
X27646824Y-17846027D01*
X27648349Y-17971942D01*
X27649772Y-18117012D01*
X27651025Y-18259778D01*
X27652351Y-18415968D01*
X27653556Y-18551239D01*
X27654766Y-18667246D01*
X27656106Y-18765645D01*
X27657700Y-18848093D01*
X27659675Y-18916246D01*
X27662156Y-18971760D01*
X27665269Y-19016292D01*
X27669138Y-19051498D01*
X27673889Y-19079034D01*
X27679648Y-19100556D01*
X27686539Y-19117722D01*
X27694689Y-19132186D01*
X27704223Y-19145606D01*
X27715266Y-19159638D01*
X27719566Y-19165071D01*
X27735386Y-19187910D01*
X27742422Y-19203463D01*
X27742444Y-19203922D01*
X27731567Y-19206121D01*
X27700582Y-19208147D01*
X27651957Y-19209942D01*
X27588163Y-19211451D01*
X27511669Y-19212616D01*
X27424944Y-19213380D01*
X27330457Y-19213686D01*
X27319550Y-19213689D01*
X26896657Y-19213689D01*
X26893395Y-19117622D01*
X26890133Y-19021556D01*
X26828044Y-19072543D01*
X26730714Y-19140057D01*
X26620813Y-19194749D01*
X26534349Y-19224978D01*
X26465278Y-19239666D01*
X26381925Y-19249659D01*
X26292159Y-19254646D01*
X26203845Y-19254313D01*
X26124851Y-19248351D01*
X26088622Y-19242638D01*
X25948603Y-19204776D01*
X25822178Y-19149932D01*
X25710260Y-19078924D01*
X25613762Y-18992568D01*
X25533600Y-18891679D01*
X25470687Y-18777076D01*
X25426312Y-18650984D01*
X25413978Y-18594401D01*
X25406368Y-18532202D01*
X25402739Y-18457363D01*
X25402245Y-18423467D01*
X25402310Y-18420282D01*
X26162248Y-18420282D01*
X26171541Y-18495333D01*
X26199728Y-18559160D01*
X26248197Y-18614798D01*
X26253254Y-18619211D01*
X26301548Y-18654037D01*
X26353257Y-18676620D01*
X26413989Y-18688540D01*
X26489352Y-18691383D01*
X26507459Y-18690978D01*
X26561278Y-18688325D01*
X26601308Y-18682909D01*
X26636324Y-18672745D01*
X26675103Y-18655850D01*
X26685745Y-18650672D01*
X26746396Y-18614844D01*
X26793215Y-18572212D01*
X26805952Y-18556973D01*
X26850622Y-18500462D01*
X26850622Y-18304586D01*
X26850086Y-18225939D01*
X26848396Y-18167988D01*
X26845428Y-18128875D01*
X26841057Y-18106741D01*
X26836972Y-18100274D01*
X26821047Y-18097111D01*
X26787264Y-18094488D01*
X26740340Y-18092655D01*
X26684993Y-18091857D01*
X26676106Y-18091842D01*
X26555330Y-18097096D01*
X26452660Y-18113263D01*
X26366106Y-18140961D01*
X26293681Y-18180808D01*
X26238751Y-18227758D01*
X26194204Y-18285645D01*
X26169480Y-18348693D01*
X26162248Y-18420282D01*
X25402310Y-18420282D01*
X25404178Y-18329712D01*
X25412522Y-18250812D01*
X25428768Y-18179590D01*
X25454405Y-18108864D01*
X25478401Y-18056493D01*
X25537020Y-17961196D01*
X25615117Y-17873170D01*
X25710315Y-17794017D01*
X25820238Y-17725340D01*
X25942510Y-17668741D01*
X26074755Y-17625821D01*
X26139422Y-17610882D01*
X26275604Y-17588777D01*
X26424049Y-17574194D01*
X26575505Y-17567813D01*
X26702064Y-17569445D01*
X26863950Y-17576224D01*
X26856530Y-17517245D01*
X26837238Y-17418092D01*
X26806104Y-17337372D01*
X26762269Y-17274466D01*
X26704871Y-17228756D01*
X26633048Y-17199622D01*
X26545941Y-17186447D01*
X26442686Y-17188611D01*
X26404711Y-17192612D01*
X26263520Y-17217780D01*
X26126707Y-17258814D01*
X26032178Y-17296815D01*
X25987018Y-17316190D01*
X25948585Y-17331760D01*
X25922234Y-17341405D01*
X25914546Y-17343452D01*
X25904802Y-17334374D01*
X25888083Y-17305405D01*
X25864232Y-17256217D01*
X25833093Y-17186484D01*
X25794507Y-17095879D01*
X25787910Y-17080089D01*
X25757853Y-17007772D01*
X25730874Y-16942425D01*
X25708136Y-16886906D01*
X25690806Y-16844072D01*
X25680048Y-16816781D01*
X25676941Y-16807942D01*
X25686940Y-16803187D01*
X25713217Y-16797910D01*
X25741489Y-16794231D01*
X25771646Y-16789474D01*
X25819433Y-16780028D01*
X25880612Y-16766820D01*
X25950946Y-16750776D01*
X26026194Y-16732820D01*
X26054755Y-16725797D01*
X26159816Y-16700209D01*
X26247480Y-16680147D01*
X26322068Y-16664969D01*
X26387903Y-16654035D01*
X26449307Y-16646704D01*
X26510602Y-16642335D01*
X26576110Y-16640287D01*
X26634128Y-16639889D01*
X26803574Y-16646552D01*
G37*
X26803574Y-16646552D02*
X26955492Y-16666567D01*
X27090756Y-16700202D01*
X27210239Y-16747725D01*
X27314815Y-16809405D01*
X27392424Y-16872965D01*
X27461265Y-16947099D01*
X27515006Y-17026871D01*
X27557910Y-17119091D01*
X27573384Y-17162161D01*
X27586244Y-17201142D01*
X27597446Y-17237289D01*
X27607120Y-17272434D01*
X27615396Y-17308410D01*
X27622403Y-17347050D01*
X27628272Y-17390185D01*
X27633131Y-17439649D01*
X27637110Y-17497273D01*
X27640340Y-17564891D01*
X27642949Y-17644334D01*
X27645067Y-17737436D01*
X27646824Y-17846027D01*
X27648349Y-17971942D01*
X27649772Y-18117012D01*
X27651025Y-18259778D01*
X27652351Y-18415968D01*
X27653556Y-18551239D01*
X27654766Y-18667246D01*
X27656106Y-18765645D01*
X27657700Y-18848093D01*
X27659675Y-18916246D01*
X27662156Y-18971760D01*
X27665269Y-19016292D01*
X27669138Y-19051498D01*
X27673889Y-19079034D01*
X27679648Y-19100556D01*
X27686539Y-19117722D01*
X27694689Y-19132186D01*
X27704223Y-19145606D01*
X27715266Y-19159638D01*
X27719566Y-19165071D01*
X27735386Y-19187910D01*
X27742422Y-19203463D01*
X27742444Y-19203922D01*
X27731567Y-19206121D01*
X27700582Y-19208147D01*
X27651957Y-19209942D01*
X27588163Y-19211451D01*
X27511669Y-19212616D01*
X27424944Y-19213380D01*
X27330457Y-19213686D01*
X27319550Y-19213689D01*
X26896657Y-19213689D01*
X26893395Y-19117622D01*
X26890133Y-19021556D01*
X26828044Y-19072543D01*
X26730714Y-19140057D01*
X26620813Y-19194749D01*
X26534349Y-19224978D01*
X26465278Y-19239666D01*
X26381925Y-19249659D01*
X26292159Y-19254646D01*
X26203845Y-19254313D01*
X26124851Y-19248351D01*
X26088622Y-19242638D01*
X25948603Y-19204776D01*
X25822178Y-19149932D01*
X25710260Y-19078924D01*
X25613762Y-18992568D01*
X25533600Y-18891679D01*
X25470687Y-18777076D01*
X25426312Y-18650984D01*
X25413978Y-18594401D01*
X25406368Y-18532202D01*
X25402739Y-18457363D01*
X25402245Y-18423467D01*
X25402310Y-18420282D01*
X26162248Y-18420282D01*
X26171541Y-18495333D01*
X26199728Y-18559160D01*
X26248197Y-18614798D01*
X26253254Y-18619211D01*
X26301548Y-18654037D01*
X26353257Y-18676620D01*
X26413989Y-18688540D01*
X26489352Y-18691383D01*
X26507459Y-18690978D01*
X26561278Y-18688325D01*
X26601308Y-18682909D01*
X26636324Y-18672745D01*
X26675103Y-18655850D01*
X26685745Y-18650672D01*
X26746396Y-18614844D01*
X26793215Y-18572212D01*
X26805952Y-18556973D01*
X26850622Y-18500462D01*
X26850622Y-18304586D01*
X26850086Y-18225939D01*
X26848396Y-18167988D01*
X26845428Y-18128875D01*
X26841057Y-18106741D01*
X26836972Y-18100274D01*
X26821047Y-18097111D01*
X26787264Y-18094488D01*
X26740340Y-18092655D01*
X26684993Y-18091857D01*
X26676106Y-18091842D01*
X26555330Y-18097096D01*
X26452660Y-18113263D01*
X26366106Y-18140961D01*
X26293681Y-18180808D01*
X26238751Y-18227758D01*
X26194204Y-18285645D01*
X26169480Y-18348693D01*
X26162248Y-18420282D01*
X25402310Y-18420282D01*
X25404178Y-18329712D01*
X25412522Y-18250812D01*
X25428768Y-18179590D01*
X25454405Y-18108864D01*
X25478401Y-18056493D01*
X25537020Y-17961196D01*
X25615117Y-17873170D01*
X25710315Y-17794017D01*
X25820238Y-17725340D01*
X25942510Y-17668741D01*
X26074755Y-17625821D01*
X26139422Y-17610882D01*
X26275604Y-17588777D01*
X26424049Y-17574194D01*
X26575505Y-17567813D01*
X26702064Y-17569445D01*
X26863950Y-17576224D01*
X26856530Y-17517245D01*
X26837238Y-17418092D01*
X26806104Y-17337372D01*
X26762269Y-17274466D01*
X26704871Y-17228756D01*
X26633048Y-17199622D01*
X26545941Y-17186447D01*
X26442686Y-17188611D01*
X26404711Y-17192612D01*
X26263520Y-17217780D01*
X26126707Y-17258814D01*
X26032178Y-17296815D01*
X25987018Y-17316190D01*
X25948585Y-17331760D01*
X25922234Y-17341405D01*
X25914546Y-17343452D01*
X25904802Y-17334374D01*
X25888083Y-17305405D01*
X25864232Y-17256217D01*
X25833093Y-17186484D01*
X25794507Y-17095879D01*
X25787910Y-17080089D01*
X25757853Y-17007772D01*
X25730874Y-16942425D01*
X25708136Y-16886906D01*
X25690806Y-16844072D01*
X25680048Y-16816781D01*
X25676941Y-16807942D01*
X25686940Y-16803187D01*
X25713217Y-16797910D01*
X25741489Y-16794231D01*
X25771646Y-16789474D01*
X25819433Y-16780028D01*
X25880612Y-16766820D01*
X25950946Y-16750776D01*
X26026194Y-16732820D01*
X26054755Y-16725797D01*
X26159816Y-16700209D01*
X26247480Y-16680147D01*
X26322068Y-16664969D01*
X26387903Y-16654035D01*
X26449307Y-16646704D01*
X26510602Y-16642335D01*
X26576110Y-16640287D01*
X26634128Y-16639889D01*
X26803574Y-16646552D01*
G36*
X30316507Y-17252245D02*
G01*
X30316526Y-17486662D01*
X30316552Y-17699603D01*
X30316625Y-17892168D01*
X30316782Y-18065459D01*
X30317064Y-18220576D01*
X30317509Y-18358620D01*
X30318156Y-18480692D01*
X30319045Y-18587894D01*
X30320213Y-18681326D01*
X30321701Y-18762090D01*
X30323546Y-18831286D01*
X30325789Y-18890015D01*
X30328469Y-18939379D01*
X30331623Y-18980478D01*
X30335292Y-19014413D01*
X30339513Y-19042286D01*
X30344327Y-19065198D01*
X30349773Y-19084249D01*
X30355888Y-19100540D01*
X30362712Y-19115173D01*
X30370285Y-19129249D01*
X30378645Y-19143868D01*
X30383839Y-19152974D01*
X30418104Y-19213689D01*
X29559955Y-19213689D01*
X29559955Y-19117733D01*
X29559224Y-19074370D01*
X29557272Y-19041205D01*
X29554463Y-19023424D01*
X29553221Y-19021778D01*
X29541799Y-19028662D01*
X29519084Y-19046505D01*
X29496385Y-19065879D01*
X29441800Y-19106614D01*
X29372321Y-19147617D01*
X29295270Y-19185123D01*
X29217965Y-19215364D01*
X29187113Y-19225012D01*
X29118616Y-19239578D01*
X29035764Y-19249539D01*
X28946371Y-19254583D01*
X28858248Y-19254396D01*
X28779207Y-19248666D01*
X28741511Y-19242858D01*
X28603414Y-19204797D01*
X28476113Y-19147073D01*
X28360292Y-19070211D01*
X28256637Y-18974739D01*
X28165833Y-18861179D01*
X28099031Y-18750381D01*
X28044164Y-18633625D01*
X28002163Y-18514276D01*
X27972167Y-18388283D01*
X27953311Y-18251594D01*
X27944732Y-18100158D01*
X27944006Y-18022711D01*
X27946100Y-17965934D01*
X28775217Y-17965934D01*
X28775424Y-18059002D01*
X28778337Y-18146692D01*
X28784000Y-18223772D01*
X28792455Y-18285009D01*
X28795038Y-18297350D01*
X28826840Y-18404633D01*
X28868498Y-18491658D01*
X28920363Y-18558642D01*
X28982781Y-18605805D01*
X29056100Y-18633365D01*
X29140669Y-18641541D01*
X29236835Y-18630551D01*
X29300311Y-18614829D01*
X29349454Y-18596639D01*
X29403583Y-18570791D01*
X29444244Y-18547089D01*
X29514800Y-18500721D01*
X29514800Y-17350530D01*
X29447392Y-17306962D01*
X29368867Y-17266040D01*
X29284681Y-17239389D01*
X29199557Y-17227465D01*
X29118216Y-17230722D01*
X29045380Y-17249615D01*
X29013426Y-17265184D01*
X28955501Y-17308181D01*
X28906544Y-17364953D01*
X28865390Y-17437575D01*
X28830874Y-17528121D01*
X28801833Y-17638666D01*
X28800552Y-17644533D01*
X28790381Y-17706788D01*
X28782739Y-17784594D01*
X28777670Y-17872720D01*
X28775217Y-17965934D01*
X27946100Y-17965934D01*
X27951857Y-17809895D01*
X27973802Y-17614059D01*
X28009786Y-17435332D01*
X28059759Y-17273845D01*
X28123668Y-17129726D01*
X28201462Y-17003106D01*
X28293089Y-16894115D01*
X28398497Y-16802883D01*
X28443662Y-16771932D01*
X28544611Y-16715785D01*
X28647901Y-16676174D01*
X28757989Y-16652014D01*
X28879330Y-16642219D01*
X28971836Y-16643265D01*
X29101490Y-16654231D01*
X29214084Y-16676046D01*
X29312875Y-16709714D01*
X29401121Y-16756236D01*
X29449986Y-16790448D01*
X29479353Y-16812362D01*
X29501043Y-16827333D01*
X29509253Y-16831733D01*
X29510868Y-16820904D01*
X29512159Y-16790251D01*
X29513138Y-16742526D01*
X29513817Y-16680479D01*
X29514210Y-16606862D01*
X29514330Y-16524427D01*
X29514188Y-16435925D01*
X29513797Y-16344107D01*
X29513171Y-16251724D01*
X29512320Y-16161528D01*
X29511260Y-16076271D01*
X29510001Y-15998703D01*
X29508556Y-15931576D01*
X29506938Y-15877641D01*
X29505161Y-15839650D01*
X29504669Y-15832667D01*
X29497092Y-15762251D01*
X29485531Y-15707102D01*
X29467792Y-15659981D01*
X29441682Y-15613647D01*
X29435415Y-15604067D01*
X29410983Y-15567378D01*
X30316311Y-15567378D01*
X30316507Y-17252245D01*
G37*
X30316507Y-17252245D02*
X30316526Y-17486662D01*
X30316552Y-17699603D01*
X30316625Y-17892168D01*
X30316782Y-18065459D01*
X30317064Y-18220576D01*
X30317509Y-18358620D01*
X30318156Y-18480692D01*
X30319045Y-18587894D01*
X30320213Y-18681326D01*
X30321701Y-18762090D01*
X30323546Y-18831286D01*
X30325789Y-18890015D01*
X30328469Y-18939379D01*
X30331623Y-18980478D01*
X30335292Y-19014413D01*
X30339513Y-19042286D01*
X30344327Y-19065198D01*
X30349773Y-19084249D01*
X30355888Y-19100540D01*
X30362712Y-19115173D01*
X30370285Y-19129249D01*
X30378645Y-19143868D01*
X30383839Y-19152974D01*
X30418104Y-19213689D01*
X29559955Y-19213689D01*
X29559955Y-19117733D01*
X29559224Y-19074370D01*
X29557272Y-19041205D01*
X29554463Y-19023424D01*
X29553221Y-19021778D01*
X29541799Y-19028662D01*
X29519084Y-19046505D01*
X29496385Y-19065879D01*
X29441800Y-19106614D01*
X29372321Y-19147617D01*
X29295270Y-19185123D01*
X29217965Y-19215364D01*
X29187113Y-19225012D01*
X29118616Y-19239578D01*
X29035764Y-19249539D01*
X28946371Y-19254583D01*
X28858248Y-19254396D01*
X28779207Y-19248666D01*
X28741511Y-19242858D01*
X28603414Y-19204797D01*
X28476113Y-19147073D01*
X28360292Y-19070211D01*
X28256637Y-18974739D01*
X28165833Y-18861179D01*
X28099031Y-18750381D01*
X28044164Y-18633625D01*
X28002163Y-18514276D01*
X27972167Y-18388283D01*
X27953311Y-18251594D01*
X27944732Y-18100158D01*
X27944006Y-18022711D01*
X27946100Y-17965934D01*
X28775217Y-17965934D01*
X28775424Y-18059002D01*
X28778337Y-18146692D01*
X28784000Y-18223772D01*
X28792455Y-18285009D01*
X28795038Y-18297350D01*
X28826840Y-18404633D01*
X28868498Y-18491658D01*
X28920363Y-18558642D01*
X28982781Y-18605805D01*
X29056100Y-18633365D01*
X29140669Y-18641541D01*
X29236835Y-18630551D01*
X29300311Y-18614829D01*
X29349454Y-18596639D01*
X29403583Y-18570791D01*
X29444244Y-18547089D01*
X29514800Y-18500721D01*
X29514800Y-17350530D01*
X29447392Y-17306962D01*
X29368867Y-17266040D01*
X29284681Y-17239389D01*
X29199557Y-17227465D01*
X29118216Y-17230722D01*
X29045380Y-17249615D01*
X29013426Y-17265184D01*
X28955501Y-17308181D01*
X28906544Y-17364953D01*
X28865390Y-17437575D01*
X28830874Y-17528121D01*
X28801833Y-17638666D01*
X28800552Y-17644533D01*
X28790381Y-17706788D01*
X28782739Y-17784594D01*
X28777670Y-17872720D01*
X28775217Y-17965934D01*
X27946100Y-17965934D01*
X27951857Y-17809895D01*
X27973802Y-17614059D01*
X28009786Y-17435332D01*
X28059759Y-17273845D01*
X28123668Y-17129726D01*
X28201462Y-17003106D01*
X28293089Y-16894115D01*
X28398497Y-16802883D01*
X28443662Y-16771932D01*
X28544611Y-16715785D01*
X28647901Y-16676174D01*
X28757989Y-16652014D01*
X28879330Y-16642219D01*
X28971836Y-16643265D01*
X29101490Y-16654231D01*
X29214084Y-16676046D01*
X29312875Y-16709714D01*
X29401121Y-16756236D01*
X29449986Y-16790448D01*
X29479353Y-16812362D01*
X29501043Y-16827333D01*
X29509253Y-16831733D01*
X29510868Y-16820904D01*
X29512159Y-16790251D01*
X29513138Y-16742526D01*
X29513817Y-16680479D01*
X29514210Y-16606862D01*
X29514330Y-16524427D01*
X29514188Y-16435925D01*
X29513797Y-16344107D01*
X29513171Y-16251724D01*
X29512320Y-16161528D01*
X29511260Y-16076271D01*
X29510001Y-15998703D01*
X29508556Y-15931576D01*
X29506938Y-15877641D01*
X29505161Y-15839650D01*
X29504669Y-15832667D01*
X29497092Y-15762251D01*
X29485531Y-15707102D01*
X29467792Y-15659981D01*
X29441682Y-15613647D01*
X29435415Y-15604067D01*
X29410983Y-15567378D01*
X30316311Y-15567378D01*
X30316507Y-17252245D01*
G36*
X21856957Y-14806571D02*
G01*
X21953232Y-14830809D01*
X22039816Y-14873641D01*
X22114627Y-14933419D01*
X22175582Y-15008494D01*
X22220601Y-15097220D01*
X22246864Y-15193530D01*
X22252714Y-15290795D01*
X22237860Y-15384654D01*
X22204160Y-15472511D01*
X22153472Y-15551770D01*
X22087655Y-15619836D01*
X22008566Y-15674112D01*
X21918066Y-15712002D01*
X21866800Y-15724426D01*
X21822302Y-15731947D01*
X21788001Y-15734919D01*
X21755040Y-15733094D01*
X21714566Y-15726225D01*
X21681469Y-15719250D01*
X21588053Y-15687741D01*
X21504381Y-15636617D01*
X21432335Y-15567429D01*
X21373800Y-15481728D01*
X21359852Y-15454489D01*
X21343414Y-15418122D01*
X21333106Y-15387582D01*
X21327540Y-15355450D01*
X21325331Y-15314307D01*
X21325052Y-15268222D01*
X21329139Y-15183865D01*
X21342554Y-15114586D01*
X21367744Y-15053961D01*
X21407154Y-14995567D01*
X21445702Y-14951302D01*
X21517594Y-14885484D01*
X21592687Y-14840053D01*
X21675438Y-14812850D01*
X21753072Y-14802576D01*
X21856957Y-14806571D01*
G37*
X21856957Y-14806571D02*
X21953232Y-14830809D01*
X22039816Y-14873641D01*
X22114627Y-14933419D01*
X22175582Y-15008494D01*
X22220601Y-15097220D01*
X22246864Y-15193530D01*
X22252714Y-15290795D01*
X22237860Y-15384654D01*
X22204160Y-15472511D01*
X22153472Y-15551770D01*
X22087655Y-15619836D01*
X22008566Y-15674112D01*
X21918066Y-15712002D01*
X21866800Y-15724426D01*
X21822302Y-15731947D01*
X21788001Y-15734919D01*
X21755040Y-15733094D01*
X21714566Y-15726225D01*
X21681469Y-15719250D01*
X21588053Y-15687741D01*
X21504381Y-15636617D01*
X21432335Y-15567429D01*
X21373800Y-15481728D01*
X21359852Y-15454489D01*
X21343414Y-15418122D01*
X21333106Y-15387582D01*
X21327540Y-15355450D01*
X21325331Y-15314307D01*
X21325052Y-15268222D01*
X21329139Y-15183865D01*
X21342554Y-15114586D01*
X21367744Y-15053961D01*
X21407154Y-14995567D01*
X21445702Y-14951302D01*
X21517594Y-14885484D01*
X21592687Y-14840053D01*
X21675438Y-14812850D01*
X21753072Y-14802576D01*
X21856957Y-14806571D01*
G36*
X261871900Y-160071903D02*
G01*
X261983450Y-160127522D01*
X262081908Y-160229931D01*
X262109023Y-160267864D01*
X262138562Y-160317500D01*
X262157728Y-160371412D01*
X262168693Y-160443364D01*
X262173629Y-160547122D01*
X262174713Y-160684101D01*
X262169818Y-160871815D01*
X262152804Y-161012758D01*
X262120177Y-161117908D01*
X262068442Y-161198243D01*
X261994104Y-161264741D01*
X261988642Y-161268678D01*
X261915380Y-161308953D01*
X261827160Y-161328880D01*
X261714962Y-161333793D01*
X261532567Y-161333793D01*
X261532491Y-161510857D01*
X261530793Y-161609470D01*
X261520450Y-161667314D01*
X261493422Y-161702006D01*
X261441668Y-161731164D01*
X261429239Y-161737121D01*
X261371077Y-161765039D01*
X261326044Y-161782672D01*
X261292559Y-161784194D01*
X261269038Y-161763781D01*
X261253900Y-161715607D01*
X261245563Y-161633846D01*
X261242444Y-161512672D01*
X261242960Y-161346260D01*
X261245529Y-161128785D01*
X261246332Y-161063736D01*
X261249222Y-160839502D01*
X261251812Y-160692821D01*
X261532414Y-160692821D01*
X261533991Y-160817326D01*
X261541000Y-160898787D01*
X261556858Y-160952515D01*
X261584981Y-160993823D01*
X261604075Y-161013971D01*
X261682135Y-161072921D01*
X261751247Y-161077720D01*
X261822560Y-161029038D01*
X261824368Y-161027241D01*
X261853383Y-160989618D01*
X261871033Y-160938484D01*
X261879936Y-160859738D01*
X261882709Y-160739276D01*
X261882759Y-160712588D01*
X261876058Y-160546583D01*
X261854248Y-160431505D01*
X261814765Y-160361254D01*
X261755044Y-160329729D01*
X261720528Y-160326552D01*
X261638611Y-160341460D01*
X261582421Y-160390548D01*
X261548598Y-160480362D01*
X261533780Y-160617445D01*
X261532414Y-160692821D01*
X261251812Y-160692821D01*
X261252287Y-160665952D01*
X261256247Y-160535382D01*
X261261826Y-160440087D01*
X261269746Y-160372364D01*
X261280731Y-160324507D01*
X261295501Y-160288813D01*
X261314782Y-160257578D01*
X261323049Y-160245824D01*
X261432712Y-160134797D01*
X261571365Y-160071847D01*
X261731754Y-160054297D01*
X261871900Y-160071903D01*
G37*
X261871900Y-160071903D02*
X261983450Y-160127522D01*
X262081908Y-160229931D01*
X262109023Y-160267864D01*
X262138562Y-160317500D01*
X262157728Y-160371412D01*
X262168693Y-160443364D01*
X262173629Y-160547122D01*
X262174713Y-160684101D01*
X262169818Y-160871815D01*
X262152804Y-161012758D01*
X262120177Y-161117908D01*
X262068442Y-161198243D01*
X261994104Y-161264741D01*
X261988642Y-161268678D01*
X261915380Y-161308953D01*
X261827160Y-161328880D01*
X261714962Y-161333793D01*
X261532567Y-161333793D01*
X261532491Y-161510857D01*
X261530793Y-161609470D01*
X261520450Y-161667314D01*
X261493422Y-161702006D01*
X261441668Y-161731164D01*
X261429239Y-161737121D01*
X261371077Y-161765039D01*
X261326044Y-161782672D01*
X261292559Y-161784194D01*
X261269038Y-161763781D01*
X261253900Y-161715607D01*
X261245563Y-161633846D01*
X261242444Y-161512672D01*
X261242960Y-161346260D01*
X261245529Y-161128785D01*
X261246332Y-161063736D01*
X261249222Y-160839502D01*
X261251812Y-160692821D01*
X261532414Y-160692821D01*
X261533991Y-160817326D01*
X261541000Y-160898787D01*
X261556858Y-160952515D01*
X261584981Y-160993823D01*
X261604075Y-161013971D01*
X261682135Y-161072921D01*
X261751247Y-161077720D01*
X261822560Y-161029038D01*
X261824368Y-161027241D01*
X261853383Y-160989618D01*
X261871033Y-160938484D01*
X261879936Y-160859738D01*
X261882709Y-160739276D01*
X261882759Y-160712588D01*
X261876058Y-160546583D01*
X261854248Y-160431505D01*
X261814765Y-160361254D01*
X261755044Y-160329729D01*
X261720528Y-160326552D01*
X261638611Y-160341460D01*
X261582421Y-160390548D01*
X261548598Y-160480362D01*
X261533780Y-160617445D01*
X261532414Y-160692821D01*
X261251812Y-160692821D01*
X261252287Y-160665952D01*
X261256247Y-160535382D01*
X261261826Y-160440087D01*
X261269746Y-160372364D01*
X261280731Y-160324507D01*
X261295501Y-160288813D01*
X261314782Y-160257578D01*
X261323049Y-160245824D01*
X261432712Y-160134797D01*
X261571365Y-160071847D01*
X261731754Y-160054297D01*
X261871900Y-160071903D01*
G36*
X264117429Y-160087719D02*
G01*
X264211123Y-160141914D01*
X264276264Y-160195707D01*
X264323907Y-160252066D01*
X264356728Y-160320987D01*
X264377406Y-160412468D01*
X264388620Y-160536506D01*
X264393049Y-160703098D01*
X264393563Y-160822851D01*
X264393563Y-161263659D01*
X264269483Y-161319283D01*
X264145402Y-161374907D01*
X264130805Y-160892095D01*
X264124773Y-160711779D01*
X264118445Y-160580901D01*
X264110606Y-160490511D01*
X264100037Y-160431664D01*
X264085523Y-160395413D01*
X264065848Y-160372810D01*
X264059535Y-160367917D01*
X263963888Y-160329706D01*
X263867207Y-160344827D01*
X263809655Y-160384943D01*
X263786245Y-160413370D01*
X263770039Y-160450672D01*
X263759741Y-160507223D01*
X263754049Y-160593394D01*
X263751664Y-160719558D01*
X263751264Y-160851042D01*
X263751186Y-161015999D01*
X263748361Y-161132761D01*
X263738907Y-161211510D01*
X263718940Y-161262431D01*
X263684576Y-161295706D01*
X263631932Y-161321520D01*
X263561617Y-161348344D01*
X263484820Y-161377542D01*
X263493962Y-160859346D01*
X263497643Y-160672539D01*
X263501950Y-160534490D01*
X263508123Y-160435568D01*
X263517402Y-160366145D01*
X263531027Y-160316590D01*
X263550239Y-160277273D01*
X263573402Y-160242584D01*
X263685152Y-160131770D01*
X263821513Y-160067689D01*
X263969825Y-160052339D01*
X264117429Y-160087719D01*
G37*
X264117429Y-160087719D02*
X264211123Y-160141914D01*
X264276264Y-160195707D01*
X264323907Y-160252066D01*
X264356728Y-160320987D01*
X264377406Y-160412468D01*
X264388620Y-160536506D01*
X264393049Y-160703098D01*
X264393563Y-160822851D01*
X264393563Y-161263659D01*
X264269483Y-161319283D01*
X264145402Y-161374907D01*
X264130805Y-160892095D01*
X264124773Y-160711779D01*
X264118445Y-160580901D01*
X264110606Y-160490511D01*
X264100037Y-160431664D01*
X264085523Y-160395413D01*
X264065848Y-160372810D01*
X264059535Y-160367917D01*
X263963888Y-160329706D01*
X263867207Y-160344827D01*
X263809655Y-160384943D01*
X263786245Y-160413370D01*
X263770039Y-160450672D01*
X263759741Y-160507223D01*
X263754049Y-160593394D01*
X263751664Y-160719558D01*
X263751264Y-160851042D01*
X263751186Y-161015999D01*
X263748361Y-161132761D01*
X263738907Y-161211510D01*
X263718940Y-161262431D01*
X263684576Y-161295706D01*
X263631932Y-161321520D01*
X263561617Y-161348344D01*
X263484820Y-161377542D01*
X263493962Y-160859346D01*
X263497643Y-160672539D01*
X263501950Y-160534490D01*
X263508123Y-160435568D01*
X263517402Y-160366145D01*
X263531027Y-160316590D01*
X263550239Y-160277273D01*
X263573402Y-160242584D01*
X263685152Y-160131770D01*
X263821513Y-160067689D01*
X263969825Y-160052339D01*
X264117429Y-160087719D01*
G36*
X260748221Y-160076015D02*
G01*
X260885061Y-160147968D01*
X260986051Y-160263766D01*
X261021925Y-160338213D01*
X261049839Y-160449992D01*
X261064129Y-160591227D01*
X261065484Y-160745371D01*
X261054595Y-160895879D01*
X261032153Y-161026205D01*
X260998850Y-161119803D01*
X260988615Y-161135922D01*
X260867382Y-161256249D01*
X260723387Y-161328317D01*
X260567139Y-161349408D01*
X260409148Y-161316802D01*
X260365180Y-161297253D01*
X260279556Y-161237012D01*
X260204408Y-161157135D01*
X260197306Y-161147004D01*
X260168439Y-161098181D01*
X260149357Y-161045990D01*
X260138084Y-160977285D01*
X260132645Y-160878918D01*
X260131062Y-160737744D01*
X260131035Y-160706092D01*
X260131107Y-160696019D01*
X260422989Y-160696019D01*
X260424687Y-160829256D01*
X260431372Y-160917674D01*
X260445425Y-160974785D01*
X260469229Y-161014102D01*
X260481379Y-161027241D01*
X260551236Y-161077172D01*
X260619059Y-161074895D01*
X260687635Y-161031584D01*
X260728535Y-160985346D01*
X260752758Y-160917857D01*
X260766361Y-160811433D01*
X260767294Y-160799020D01*
X260769616Y-160606147D01*
X260745350Y-160462900D01*
X260694824Y-160370160D01*
X260618368Y-160328807D01*
X260591076Y-160326552D01*
X260519411Y-160337893D01*
X260470390Y-160377184D01*
X260440418Y-160452326D01*
X260425899Y-160571222D01*
X260422989Y-160696019D01*
X260131107Y-160696019D01*
X260132122Y-160555659D01*
X260136688Y-160450549D01*
X260146688Y-160377714D01*
X260164079Y-160324108D01*
X260190816Y-160276681D01*
X260196724Y-160267864D01*
X260296032Y-160149007D01*
X260404242Y-160080008D01*
X260535981Y-160052619D01*
X260580717Y-160051281D01*
X260748221Y-160076015D01*
G37*
X260748221Y-160076015D02*
X260885061Y-160147968D01*
X260986051Y-160263766D01*
X261021925Y-160338213D01*
X261049839Y-160449992D01*
X261064129Y-160591227D01*
X261065484Y-160745371D01*
X261054595Y-160895879D01*
X261032153Y-161026205D01*
X260998850Y-161119803D01*
X260988615Y-161135922D01*
X260867382Y-161256249D01*
X260723387Y-161328317D01*
X260567139Y-161349408D01*
X260409148Y-161316802D01*
X260365180Y-161297253D01*
X260279556Y-161237012D01*
X260204408Y-161157135D01*
X260197306Y-161147004D01*
X260168439Y-161098181D01*
X260149357Y-161045990D01*
X260138084Y-160977285D01*
X260132645Y-160878918D01*
X260131062Y-160737744D01*
X260131035Y-160706092D01*
X260131107Y-160696019D01*
X260422989Y-160696019D01*
X260424687Y-160829256D01*
X260431372Y-160917674D01*
X260445425Y-160974785D01*
X260469229Y-161014102D01*
X260481379Y-161027241D01*
X260551236Y-161077172D01*
X260619059Y-161074895D01*
X260687635Y-161031584D01*
X260728535Y-160985346D01*
X260752758Y-160917857D01*
X260766361Y-160811433D01*
X260767294Y-160799020D01*
X260769616Y-160606147D01*
X260745350Y-160462900D01*
X260694824Y-160370160D01*
X260618368Y-160328807D01*
X260591076Y-160326552D01*
X260519411Y-160337893D01*
X260470390Y-160377184D01*
X260440418Y-160452326D01*
X260425899Y-160571222D01*
X260422989Y-160696019D01*
X260131107Y-160696019D01*
X260132122Y-160555659D01*
X260136688Y-160450549D01*
X260146688Y-160377714D01*
X260164079Y-160324108D01*
X260190816Y-160276681D01*
X260196724Y-160267864D01*
X260296032Y-160149007D01*
X260404242Y-160080008D01*
X260535981Y-160052619D01*
X260580717Y-160051281D01*
X260748221Y-160076015D01*
G36*
X263015552Y-160094676D02*
G01*
X263130658Y-160172111D01*
X263219611Y-160283949D01*
X263272749Y-160426265D01*
X263283497Y-160531015D01*
X263282276Y-160574726D01*
X263272056Y-160608194D01*
X263243961Y-160638179D01*
X263189116Y-160671440D01*
X263098645Y-160714738D01*
X262963672Y-160774833D01*
X262962989Y-160775134D01*
X262838751Y-160832037D01*
X262736873Y-160882565D01*
X262667767Y-160921280D01*
X262641846Y-160942740D01*
X262641839Y-160942913D01*
X262664685Y-160989644D01*
X262718109Y-161041154D01*
X262779442Y-161078261D01*
X262810515Y-161085632D01*
X262895289Y-161060138D01*
X262968293Y-160996291D01*
X263003913Y-160926094D01*
X263038180Y-160874343D01*
X263105303Y-160815409D01*
X263184208Y-160764496D01*
X263253821Y-160736809D01*
X263268377Y-160735287D01*
X263284763Y-160760321D01*
X263285750Y-160824311D01*
X263273708Y-160910593D01*
X263251007Y-161002501D01*
X263220014Y-161083369D01*
X263218448Y-161086509D01*
X263125181Y-161216734D01*
X263004304Y-161305311D01*
X262867027Y-161348786D01*
X262724560Y-161343706D01*
X262588112Y-161286616D01*
X262582045Y-161282602D01*
X262474710Y-161185326D01*
X262404132Y-161058409D01*
X262365074Y-160891526D01*
X262359832Y-160844639D01*
X262350548Y-160623329D01*
X262361678Y-160520124D01*
X262641839Y-160520124D01*
X262645479Y-160584503D01*
X262665389Y-160603291D01*
X262715026Y-160589235D01*
X262793267Y-160556009D01*
X262880726Y-160514359D01*
X262882899Y-160513256D01*
X262957030Y-160474265D01*
X262986781Y-160448244D01*
X262979445Y-160420965D01*
X262948553Y-160385121D01*
X262869960Y-160333251D01*
X262785323Y-160329439D01*
X262709403Y-160367189D01*
X262656965Y-160440001D01*
X262641839Y-160520124D01*
X262361678Y-160520124D01*
X262369644Y-160446261D01*
X262418634Y-160305829D01*
X262486836Y-160207447D01*
X262609935Y-160108030D01*
X262745528Y-160058711D01*
X262883955Y-160055568D01*
X263015552Y-160094676D01*
G37*
X263015552Y-160094676D02*
X263130658Y-160172111D01*
X263219611Y-160283949D01*
X263272749Y-160426265D01*
X263283497Y-160531015D01*
X263282276Y-160574726D01*
X263272056Y-160608194D01*
X263243961Y-160638179D01*
X263189116Y-160671440D01*
X263098645Y-160714738D01*
X262963672Y-160774833D01*
X262962989Y-160775134D01*
X262838751Y-160832037D01*
X262736873Y-160882565D01*
X262667767Y-160921280D01*
X262641846Y-160942740D01*
X262641839Y-160942913D01*
X262664685Y-160989644D01*
X262718109Y-161041154D01*
X262779442Y-161078261D01*
X262810515Y-161085632D01*
X262895289Y-161060138D01*
X262968293Y-160996291D01*
X263003913Y-160926094D01*
X263038180Y-160874343D01*
X263105303Y-160815409D01*
X263184208Y-160764496D01*
X263253821Y-160736809D01*
X263268377Y-160735287D01*
X263284763Y-160760321D01*
X263285750Y-160824311D01*
X263273708Y-160910593D01*
X263251007Y-161002501D01*
X263220014Y-161083369D01*
X263218448Y-161086509D01*
X263125181Y-161216734D01*
X263004304Y-161305311D01*
X262867027Y-161348786D01*
X262724560Y-161343706D01*
X262588112Y-161286616D01*
X262582045Y-161282602D01*
X262474710Y-161185326D01*
X262404132Y-161058409D01*
X262365074Y-160891526D01*
X262359832Y-160844639D01*
X262350548Y-160623329D01*
X262361678Y-160520124D01*
X262641839Y-160520124D01*
X262645479Y-160584503D01*
X262665389Y-160603291D01*
X262715026Y-160589235D01*
X262793267Y-160556009D01*
X262880726Y-160514359D01*
X262882899Y-160513256D01*
X262957030Y-160474265D01*
X262986781Y-160448244D01*
X262979445Y-160420965D01*
X262948553Y-160385121D01*
X262869960Y-160333251D01*
X262785323Y-160329439D01*
X262709403Y-160367189D01*
X262656965Y-160440001D01*
X262641839Y-160520124D01*
X262361678Y-160520124D01*
X262369644Y-160446261D01*
X262418634Y-160305829D01*
X262486836Y-160207447D01*
X262609935Y-160108030D01*
X262745528Y-160058711D01*
X262883955Y-160055568D01*
X263015552Y-160094676D01*
G36*
X265444598Y-159933857D02*
G01*
X265453154Y-160053188D01*
X265462981Y-160123506D01*
X265476599Y-160154179D01*
X265496527Y-160154571D01*
X265502989Y-160150910D01*
X265588940Y-160124398D01*
X265700745Y-160125946D01*
X265814414Y-160153199D01*
X265885510Y-160188455D01*
X265958405Y-160244778D01*
X266011693Y-160308519D01*
X266048275Y-160389510D01*
X266071050Y-160497586D01*
X266082919Y-160642580D01*
X266086782Y-160834326D01*
X266086851Y-160871109D01*
X266086897Y-161284288D01*
X265994954Y-161316339D01*
X265929652Y-161338144D01*
X265893824Y-161348297D01*
X265892770Y-161348391D01*
X265889242Y-161320860D01*
X265886239Y-161244923D01*
X265883990Y-161130565D01*
X265882724Y-160987769D01*
X265882529Y-160900951D01*
X265882123Y-160729773D01*
X265880032Y-160607088D01*
X265874947Y-160523000D01*
X265865560Y-160467614D01*
X265850561Y-160431032D01*
X265828642Y-160403359D01*
X265814957Y-160390032D01*
X265720949Y-160336328D01*
X265618364Y-160332307D01*
X265525290Y-160377725D01*
X265508078Y-160394123D01*
X265482832Y-160424957D01*
X265465320Y-160461531D01*
X265454142Y-160514415D01*
X265447896Y-160594177D01*
X265445182Y-160711385D01*
X265444598Y-160872991D01*
X265444598Y-161284288D01*
X265352655Y-161316339D01*
X265287353Y-161338144D01*
X265251525Y-161348297D01*
X265250471Y-161348391D01*
X265247775Y-161320448D01*
X265245345Y-161241630D01*
X265243278Y-161119453D01*
X265241671Y-160961432D01*
X265240623Y-160775083D01*
X265240231Y-160567920D01*
X265240230Y-160558706D01*
X265240230Y-159769020D01*
X265335115Y-159728997D01*
X265430000Y-159688973D01*
X265444598Y-159933857D01*
G37*
X265444598Y-159933857D02*
X265453154Y-160053188D01*
X265462981Y-160123506D01*
X265476599Y-160154179D01*
X265496527Y-160154571D01*
X265502989Y-160150910D01*
X265588940Y-160124398D01*
X265700745Y-160125946D01*
X265814414Y-160153199D01*
X265885510Y-160188455D01*
X265958405Y-160244778D01*
X266011693Y-160308519D01*
X266048275Y-160389510D01*
X266071050Y-160497586D01*
X266082919Y-160642580D01*
X266086782Y-160834326D01*
X266086851Y-160871109D01*
X266086897Y-161284288D01*
X265994954Y-161316339D01*
X265929652Y-161338144D01*
X265893824Y-161348297D01*
X265892770Y-161348391D01*
X265889242Y-161320860D01*
X265886239Y-161244923D01*
X265883990Y-161130565D01*
X265882724Y-160987769D01*
X265882529Y-160900951D01*
X265882123Y-160729773D01*
X265880032Y-160607088D01*
X265874947Y-160523000D01*
X265865560Y-160467614D01*
X265850561Y-160431032D01*
X265828642Y-160403359D01*
X265814957Y-160390032D01*
X265720949Y-160336328D01*
X265618364Y-160332307D01*
X265525290Y-160377725D01*
X265508078Y-160394123D01*
X265482832Y-160424957D01*
X265465320Y-160461531D01*
X265454142Y-160514415D01*
X265447896Y-160594177D01*
X265445182Y-160711385D01*
X265444598Y-160872991D01*
X265444598Y-161284288D01*
X265352655Y-161316339D01*
X265287353Y-161338144D01*
X265251525Y-161348297D01*
X265250471Y-161348391D01*
X265247775Y-161320448D01*
X265245345Y-161241630D01*
X265243278Y-161119453D01*
X265241671Y-160961432D01*
X265240623Y-160775083D01*
X265240231Y-160567920D01*
X265240230Y-160558706D01*
X265240230Y-159769020D01*
X265335115Y-159728997D01*
X265430000Y-159688973D01*
X265444598Y-159933857D01*
G36*
X266779944Y-160134360D02*
G01*
X266894343Y-160176842D01*
X266895652Y-160177658D01*
X266966403Y-160229730D01*
X267018636Y-160290584D01*
X267055371Y-160369887D01*
X267079634Y-160477309D01*
X267094445Y-160622517D01*
X267102829Y-160815179D01*
X267103564Y-160842628D01*
X267114120Y-161256521D01*
X267025291Y-161302456D01*
X266961018Y-161333498D01*
X266922210Y-161348206D01*
X266920415Y-161348391D01*
X266913700Y-161321250D01*
X266908365Y-161248041D01*
X266905083Y-161141081D01*
X266904368Y-161054469D01*
X266904351Y-160914162D01*
X266897937Y-160826051D01*
X266875580Y-160784025D01*
X266827732Y-160781975D01*
X266744849Y-160813790D01*
X266619713Y-160872272D01*
X266527697Y-160920845D01*
X266480371Y-160962986D01*
X266466458Y-161008916D01*
X266466437Y-161011189D01*
X266489395Y-161090311D01*
X266557370Y-161133055D01*
X266661398Y-161139246D01*
X266736330Y-161138172D01*
X266775839Y-161159753D01*
X266800478Y-161211591D01*
X266814659Y-161277632D01*
X266794223Y-161315104D01*
X266786528Y-161320467D01*
X266714083Y-161342006D01*
X266612633Y-161345055D01*
X266508157Y-161330778D01*
X266434125Y-161304688D01*
X266331772Y-161217785D01*
X266273591Y-161096816D01*
X266262069Y-161002308D01*
X266270862Y-160917062D01*
X266302680Y-160847476D01*
X266365684Y-160785672D01*
X266468031Y-160723772D01*
X266617882Y-160653897D01*
X266627012Y-160649948D01*
X266761997Y-160587588D01*
X266845294Y-160536446D01*
X266880997Y-160490488D01*
X266873203Y-160443683D01*
X266826007Y-160389998D01*
X266811894Y-160377644D01*
X266717359Y-160329741D01*
X266619406Y-160331758D01*
X266534097Y-160378724D01*
X266477496Y-160465669D01*
X266472237Y-160482734D01*
X266421023Y-160565504D01*
X266356037Y-160605372D01*
X266262069Y-160644882D01*
X266262069Y-160542658D01*
X266290653Y-160394072D01*
X266375495Y-160257784D01*
X266419645Y-160212191D01*
X266520005Y-160153674D01*
X266647635Y-160127184D01*
X266779944Y-160134360D01*
G37*
X266779944Y-160134360D02*
X266894343Y-160176842D01*
X266895652Y-160177658D01*
X266966403Y-160229730D01*
X267018636Y-160290584D01*
X267055371Y-160369887D01*
X267079634Y-160477309D01*
X267094445Y-160622517D01*
X267102829Y-160815179D01*
X267103564Y-160842628D01*
X267114120Y-161256521D01*
X267025291Y-161302456D01*
X266961018Y-161333498D01*
X266922210Y-161348206D01*
X266920415Y-161348391D01*
X266913700Y-161321250D01*
X266908365Y-161248041D01*
X266905083Y-161141081D01*
X266904368Y-161054469D01*
X266904351Y-160914162D01*
X266897937Y-160826051D01*
X266875580Y-160784025D01*
X266827732Y-160781975D01*
X266744849Y-160813790D01*
X266619713Y-160872272D01*
X266527697Y-160920845D01*
X266480371Y-160962986D01*
X266466458Y-161008916D01*
X266466437Y-161011189D01*
X266489395Y-161090311D01*
X266557370Y-161133055D01*
X266661398Y-161139246D01*
X266736330Y-161138172D01*
X266775839Y-161159753D01*
X266800478Y-161211591D01*
X266814659Y-161277632D01*
X266794223Y-161315104D01*
X266786528Y-161320467D01*
X266714083Y-161342006D01*
X266612633Y-161345055D01*
X266508157Y-161330778D01*
X266434125Y-161304688D01*
X266331772Y-161217785D01*
X266273591Y-161096816D01*
X266262069Y-161002308D01*
X266270862Y-160917062D01*
X266302680Y-160847476D01*
X266365684Y-160785672D01*
X266468031Y-160723772D01*
X266617882Y-160653897D01*
X266627012Y-160649948D01*
X266761997Y-160587588D01*
X266845294Y-160536446D01*
X266880997Y-160490488D01*
X266873203Y-160443683D01*
X266826007Y-160389998D01*
X266811894Y-160377644D01*
X266717359Y-160329741D01*
X266619406Y-160331758D01*
X266534097Y-160378724D01*
X266477496Y-160465669D01*
X266472237Y-160482734D01*
X266421023Y-160565504D01*
X266356037Y-160605372D01*
X266262069Y-160644882D01*
X266262069Y-160542658D01*
X266290653Y-160394072D01*
X266375495Y-160257784D01*
X266419645Y-160212191D01*
X266520005Y-160153674D01*
X266647635Y-160127184D01*
X266779944Y-160134360D01*
G36*
X267765943Y-160131920D02*
G01*
X267898565Y-160180859D01*
X268006010Y-160267419D01*
X268048032Y-160328352D01*
X268093843Y-160440161D01*
X268092891Y-160521006D01*
X268044808Y-160575378D01*
X268027017Y-160584624D01*
X267950204Y-160613450D01*
X267910976Y-160606065D01*
X267897689Y-160557658D01*
X267897012Y-160530920D01*
X267872686Y-160432548D01*
X267809281Y-160363734D01*
X267721154Y-160330498D01*
X267622663Y-160338861D01*
X267542602Y-160382296D01*
X267515561Y-160407072D01*
X267496394Y-160437129D01*
X267483446Y-160482565D01*
X267475064Y-160553476D01*
X267469593Y-160659960D01*
X267465378Y-160812112D01*
X267464287Y-160860287D01*
X267460307Y-161025095D01*
X267455781Y-161141088D01*
X267448995Y-161217833D01*
X267438231Y-161264893D01*
X267421773Y-161291835D01*
X267397906Y-161308223D01*
X267382626Y-161315463D01*
X267317733Y-161340220D01*
X267279534Y-161348391D01*
X267266912Y-161321103D01*
X267259208Y-161238603D01*
X267256380Y-161099941D01*
X267258386Y-160904162D01*
X267259011Y-160873965D01*
X267263421Y-160695349D01*
X267268635Y-160564923D01*
X267276055Y-160472492D01*
X267287082Y-160407858D01*
X267303117Y-160360825D01*
X267325561Y-160321196D01*
X267337302Y-160304215D01*
X267404619Y-160229080D01*
X267479910Y-160170638D01*
X267489128Y-160165536D01*
X267624133Y-160125260D01*
X267765943Y-160131920D01*
G37*
X267765943Y-160131920D02*
X267898565Y-160180859D01*
X268006010Y-160267419D01*
X268048032Y-160328352D01*
X268093843Y-160440161D01*
X268092891Y-160521006D01*
X268044808Y-160575378D01*
X268027017Y-160584624D01*
X267950204Y-160613450D01*
X267910976Y-160606065D01*
X267897689Y-160557658D01*
X267897012Y-160530920D01*
X267872686Y-160432548D01*
X267809281Y-160363734D01*
X267721154Y-160330498D01*
X267622663Y-160338861D01*
X267542602Y-160382296D01*
X267515561Y-160407072D01*
X267496394Y-160437129D01*
X267483446Y-160482565D01*
X267475064Y-160553476D01*
X267469593Y-160659960D01*
X267465378Y-160812112D01*
X267464287Y-160860287D01*
X267460307Y-161025095D01*
X267455781Y-161141088D01*
X267448995Y-161217833D01*
X267438231Y-161264893D01*
X267421773Y-161291835D01*
X267397906Y-161308223D01*
X267382626Y-161315463D01*
X267317733Y-161340220D01*
X267279534Y-161348391D01*
X267266912Y-161321103D01*
X267259208Y-161238603D01*
X267256380Y-161099941D01*
X267258386Y-160904162D01*
X267259011Y-160873965D01*
X267263421Y-160695349D01*
X267268635Y-160564923D01*
X267276055Y-160472492D01*
X267287082Y-160407858D01*
X267303117Y-160360825D01*
X267325561Y-160321196D01*
X267337302Y-160304215D01*
X267404619Y-160229080D01*
X267479910Y-160170638D01*
X267489128Y-160165536D01*
X267624133Y-160125260D01*
X267765943Y-160131920D01*
G36*
X269093914Y-160364455D02*
G01*
X269093543Y-160582661D01*
X269092108Y-160750519D01*
X269089002Y-160876070D01*
X269083622Y-160967355D01*
X269075362Y-161032415D01*
X269063616Y-161079291D01*
X269047781Y-161116024D01*
X269035790Y-161136991D01*
X268936490Y-161250694D01*
X268810588Y-161321965D01*
X268671291Y-161347538D01*
X268531805Y-161324150D01*
X268448743Y-161282119D01*
X268361545Y-161209411D01*
X268302117Y-161120612D01*
X268266261Y-161004320D01*
X268249781Y-160849135D01*
X268247447Y-160735287D01*
X268247761Y-160727106D01*
X268451724Y-160727106D01*
X268452970Y-160857657D01*
X268458678Y-160944080D01*
X268471804Y-161000618D01*
X268495306Y-161041514D01*
X268523386Y-161072362D01*
X268617688Y-161131905D01*
X268718940Y-161136992D01*
X268814636Y-161087279D01*
X268822084Y-161080543D01*
X268853874Y-161045502D01*
X268873808Y-161003811D01*
X268884600Y-160941762D01*
X268888965Y-160845644D01*
X268889655Y-160739379D01*
X268888159Y-160605880D01*
X268881964Y-160516822D01*
X268868514Y-160458293D01*
X268845251Y-160416382D01*
X268826175Y-160394123D01*
X268737563Y-160337985D01*
X268635508Y-160331235D01*
X268538095Y-160374114D01*
X268519296Y-160390032D01*
X268487293Y-160425382D01*
X268467318Y-160467502D01*
X268456593Y-160530251D01*
X268452339Y-160627487D01*
X268451724Y-160727106D01*
X268247761Y-160727106D01*
X268254504Y-160551947D01*
X268278472Y-160414195D01*
X268323548Y-160310632D01*
X268393928Y-160229856D01*
X268448743Y-160188455D01*
X268548376Y-160143728D01*
X268663855Y-160122967D01*
X268771199Y-160128525D01*
X268831264Y-160150943D01*
X268854835Y-160157323D01*
X268870477Y-160133535D01*
X268881395Y-160069788D01*
X268889655Y-159972687D01*
X268898699Y-159864541D01*
X268911261Y-159799475D01*
X268934119Y-159762268D01*
X268974051Y-159737699D01*
X268999138Y-159726819D01*
X269094023Y-159687072D01*
X269093914Y-160364455D01*
G37*
X269093914Y-160364455D02*
X269093543Y-160582661D01*
X269092108Y-160750519D01*
X269089002Y-160876070D01*
X269083622Y-160967355D01*
X269075362Y-161032415D01*
X269063616Y-161079291D01*
X269047781Y-161116024D01*
X269035790Y-161136991D01*
X268936490Y-161250694D01*
X268810588Y-161321965D01*
X268671291Y-161347538D01*
X268531805Y-161324150D01*
X268448743Y-161282119D01*
X268361545Y-161209411D01*
X268302117Y-161120612D01*
X268266261Y-161004320D01*
X268249781Y-160849135D01*
X268247447Y-160735287D01*
X268247761Y-160727106D01*
X268451724Y-160727106D01*
X268452970Y-160857657D01*
X268458678Y-160944080D01*
X268471804Y-161000618D01*
X268495306Y-161041514D01*
X268523386Y-161072362D01*
X268617688Y-161131905D01*
X268718940Y-161136992D01*
X268814636Y-161087279D01*
X268822084Y-161080543D01*
X268853874Y-161045502D01*
X268873808Y-161003811D01*
X268884600Y-160941762D01*
X268888965Y-160845644D01*
X268889655Y-160739379D01*
X268888159Y-160605880D01*
X268881964Y-160516822D01*
X268868514Y-160458293D01*
X268845251Y-160416382D01*
X268826175Y-160394123D01*
X268737563Y-160337985D01*
X268635508Y-160331235D01*
X268538095Y-160374114D01*
X268519296Y-160390032D01*
X268487293Y-160425382D01*
X268467318Y-160467502D01*
X268456593Y-160530251D01*
X268452339Y-160627487D01*
X268451724Y-160727106D01*
X268247761Y-160727106D01*
X268254504Y-160551947D01*
X268278472Y-160414195D01*
X268323548Y-160310632D01*
X268393928Y-160229856D01*
X268448743Y-160188455D01*
X268548376Y-160143728D01*
X268663855Y-160122967D01*
X268771199Y-160128525D01*
X268831264Y-160150943D01*
X268854835Y-160157323D01*
X268870477Y-160133535D01*
X268881395Y-160069788D01*
X268889655Y-159972687D01*
X268898699Y-159864541D01*
X268911261Y-159799475D01*
X268934119Y-159762268D01*
X268974051Y-159737699D01*
X268999138Y-159726819D01*
X269094023Y-159687072D01*
X269093914Y-160364455D01*
G36*
X270280124Y-160149840D02*
G01*
X270284579Y-160226653D01*
X270288071Y-160343391D01*
X270290315Y-160490821D01*
X270291035Y-160645455D01*
X270291035Y-161168727D01*
X270198645Y-161261117D01*
X270134978Y-161318047D01*
X270079089Y-161341107D01*
X270002702Y-161339647D01*
X269972380Y-161335934D01*
X269877610Y-161325126D01*
X269799222Y-161318933D01*
X269780115Y-161318361D01*
X269715699Y-161322102D01*
X269623571Y-161331494D01*
X269587850Y-161335934D01*
X269500114Y-161342801D01*
X269441153Y-161327885D01*
X269382690Y-161281835D01*
X269361585Y-161261117D01*
X269269195Y-161168727D01*
X269269195Y-160189947D01*
X269343558Y-160156066D01*
X269407590Y-160130970D01*
X269445052Y-160122184D01*
X269454657Y-160149950D01*
X269463635Y-160227530D01*
X269471386Y-160346348D01*
X269477314Y-160497828D01*
X269480173Y-160625805D01*
X269488161Y-161129425D01*
X269557848Y-161139278D01*
X269621229Y-161132389D01*
X269652286Y-161110083D01*
X269660967Y-161068379D01*
X269668378Y-160979544D01*
X269673931Y-160854834D01*
X269677036Y-160705507D01*
X269677484Y-160628661D01*
X269677931Y-160186287D01*
X269769874Y-160154235D01*
X269834949Y-160132443D01*
X269870347Y-160122281D01*
X269871368Y-160122184D01*
X269874920Y-160149809D01*
X269878823Y-160226411D01*
X269882751Y-160342579D01*
X269886376Y-160488904D01*
X269888908Y-160625805D01*
X269896897Y-161129425D01*
X270072069Y-161129425D01*
X270080107Y-160669965D01*
X270088146Y-160210505D01*
X270173543Y-160166344D01*
X270236593Y-160136019D01*
X270273910Y-160122258D01*
X270274987Y-160122184D01*
X270280124Y-160149840D01*
G37*
X270280124Y-160149840D02*
X270284579Y-160226653D01*
X270288071Y-160343391D01*
X270290315Y-160490821D01*
X270291035Y-160645455D01*
X270291035Y-161168727D01*
X270198645Y-161261117D01*
X270134978Y-161318047D01*
X270079089Y-161341107D01*
X270002702Y-161339647D01*
X269972380Y-161335934D01*
X269877610Y-161325126D01*
X269799222Y-161318933D01*
X269780115Y-161318361D01*
X269715699Y-161322102D01*
X269623571Y-161331494D01*
X269587850Y-161335934D01*
X269500114Y-161342801D01*
X269441153Y-161327885D01*
X269382690Y-161281835D01*
X269361585Y-161261117D01*
X269269195Y-161168727D01*
X269269195Y-160189947D01*
X269343558Y-160156066D01*
X269407590Y-160130970D01*
X269445052Y-160122184D01*
X269454657Y-160149950D01*
X269463635Y-160227530D01*
X269471386Y-160346348D01*
X269477314Y-160497828D01*
X269480173Y-160625805D01*
X269488161Y-161129425D01*
X269557848Y-161139278D01*
X269621229Y-161132389D01*
X269652286Y-161110083D01*
X269660967Y-161068379D01*
X269668378Y-160979544D01*
X269673931Y-160854834D01*
X269677036Y-160705507D01*
X269677484Y-160628661D01*
X269677931Y-160186287D01*
X269769874Y-160154235D01*
X269834949Y-160132443D01*
X269870347Y-160122281D01*
X269871368Y-160122184D01*
X269874920Y-160149809D01*
X269878823Y-160226411D01*
X269882751Y-160342579D01*
X269886376Y-160488904D01*
X269888908Y-160625805D01*
X269896897Y-161129425D01*
X270072069Y-161129425D01*
X270080107Y-160669965D01*
X270088146Y-160210505D01*
X270173543Y-160166344D01*
X270236593Y-160136019D01*
X270273910Y-160122258D01*
X270274987Y-160122184D01*
X270280124Y-160149840D01*
G36*
X271014406Y-160145156D02*
G01*
X271098469Y-160183393D01*
X271164450Y-160229726D01*
X271212794Y-160281532D01*
X271246172Y-160348363D01*
X271267253Y-160439769D01*
X271278707Y-160565301D01*
X271283203Y-160734508D01*
X271283678Y-160845933D01*
X271283678Y-161280627D01*
X271209316Y-161314509D01*
X271150746Y-161339272D01*
X271121730Y-161348391D01*
X271116179Y-161321257D01*
X271111775Y-161248094D01*
X271109078Y-161141263D01*
X271108506Y-161056437D01*
X271106046Y-160933887D01*
X271099412Y-160836668D01*
X271089726Y-160777134D01*
X271082032Y-160764483D01*
X271030311Y-160777402D01*
X270949117Y-160810539D01*
X270855102Y-160855461D01*
X270764917Y-160903735D01*
X270695215Y-160946928D01*
X270662648Y-160976608D01*
X270662519Y-160976929D01*
X270665320Y-161031857D01*
X270690439Y-161084292D01*
X270734541Y-161126881D01*
X270798909Y-161141126D01*
X270853921Y-161139466D01*
X270931835Y-161138245D01*
X270972732Y-161156498D01*
X270997295Y-161204726D01*
X271000392Y-161213820D01*
X271011040Y-161282598D01*
X270982565Y-161324360D01*
X270908344Y-161344263D01*
X270828168Y-161347944D01*
X270683890Y-161320658D01*
X270609203Y-161281690D01*
X270516963Y-161190148D01*
X270468043Y-161077782D01*
X270463654Y-160959051D01*
X270505001Y-160848411D01*
X270567197Y-160779080D01*
X270629294Y-160740265D01*
X270726895Y-160691125D01*
X270840632Y-160641292D01*
X270859590Y-160633677D01*
X270984521Y-160578545D01*
X271056539Y-160529954D01*
X271079700Y-160481647D01*
X271058064Y-160427370D01*
X271020920Y-160384943D01*
X270933127Y-160332702D01*
X270836530Y-160328784D01*
X270747944Y-160369041D01*
X270684186Y-160449326D01*
X270675817Y-160470040D01*
X270627096Y-160546225D01*
X270555965Y-160602785D01*
X270466207Y-160649201D01*
X270466207Y-160517584D01*
X270471490Y-160437168D01*
X270494142Y-160373786D01*
X270544367Y-160306163D01*
X270592582Y-160254076D01*
X270667554Y-160180322D01*
X270725806Y-160140702D01*
X270788372Y-160124810D01*
X270859193Y-160122184D01*
X271014406Y-160145156D01*
G37*
X271014406Y-160145156D02*
X271098469Y-160183393D01*
X271164450Y-160229726D01*
X271212794Y-160281532D01*
X271246172Y-160348363D01*
X271267253Y-160439769D01*
X271278707Y-160565301D01*
X271283203Y-160734508D01*
X271283678Y-160845933D01*
X271283678Y-161280627D01*
X271209316Y-161314509D01*
X271150746Y-161339272D01*
X271121730Y-161348391D01*
X271116179Y-161321257D01*
X271111775Y-161248094D01*
X271109078Y-161141263D01*
X271108506Y-161056437D01*
X271106046Y-160933887D01*
X271099412Y-160836668D01*
X271089726Y-160777134D01*
X271082032Y-160764483D01*
X271030311Y-160777402D01*
X270949117Y-160810539D01*
X270855102Y-160855461D01*
X270764917Y-160903735D01*
X270695215Y-160946928D01*
X270662648Y-160976608D01*
X270662519Y-160976929D01*
X270665320Y-161031857D01*
X270690439Y-161084292D01*
X270734541Y-161126881D01*
X270798909Y-161141126D01*
X270853921Y-161139466D01*
X270931835Y-161138245D01*
X270972732Y-161156498D01*
X270997295Y-161204726D01*
X271000392Y-161213820D01*
X271011040Y-161282598D01*
X270982565Y-161324360D01*
X270908344Y-161344263D01*
X270828168Y-161347944D01*
X270683890Y-161320658D01*
X270609203Y-161281690D01*
X270516963Y-161190148D01*
X270468043Y-161077782D01*
X270463654Y-160959051D01*
X270505001Y-160848411D01*
X270567197Y-160779080D01*
X270629294Y-160740265D01*
X270726895Y-160691125D01*
X270840632Y-160641292D01*
X270859590Y-160633677D01*
X270984521Y-160578545D01*
X271056539Y-160529954D01*
X271079700Y-160481647D01*
X271058064Y-160427370D01*
X271020920Y-160384943D01*
X270933127Y-160332702D01*
X270836530Y-160328784D01*
X270747944Y-160369041D01*
X270684186Y-160449326D01*
X270675817Y-160470040D01*
X270627096Y-160546225D01*
X270555965Y-160602785D01*
X270466207Y-160649201D01*
X270466207Y-160517584D01*
X270471490Y-160437168D01*
X270494142Y-160373786D01*
X270544367Y-160306163D01*
X270592582Y-160254076D01*
X270667554Y-160180322D01*
X270725806Y-160140702D01*
X270788372Y-160124810D01*
X270859193Y-160122184D01*
X271014406Y-160145156D01*
G36*
X272035690Y-160150018D02*
G01*
X272070585Y-160165269D01*
X272153877Y-160231235D01*
X272225103Y-160326618D01*
X272269153Y-160428406D01*
X272276322Y-160478587D01*
X272252285Y-160548647D01*
X272199561Y-160585717D01*
X272143031Y-160608164D01*
X272117146Y-160612300D01*
X272104542Y-160582283D01*
X272079654Y-160516961D01*
X272068735Y-160487445D01*
X272007508Y-160385348D01*
X271918861Y-160334423D01*
X271805193Y-160335989D01*
X271796774Y-160337994D01*
X271736088Y-160366767D01*
X271691474Y-160422859D01*
X271661002Y-160513163D01*
X271642744Y-160644571D01*
X271634771Y-160823974D01*
X271634023Y-160919433D01*
X271633652Y-161069913D01*
X271631223Y-161172495D01*
X271624760Y-161237672D01*
X271612288Y-161275938D01*
X271591833Y-161297785D01*
X271561419Y-161313707D01*
X271559661Y-161314509D01*
X271501091Y-161339272D01*
X271472075Y-161348391D01*
X271467616Y-161320822D01*
X271463799Y-161244620D01*
X271460899Y-161129541D01*
X271459191Y-160985341D01*
X271458851Y-160879814D01*
X271460588Y-160675613D01*
X271467382Y-160520697D01*
X271481607Y-160406024D01*
X271505638Y-160322551D01*
X271541848Y-160261236D01*
X271592612Y-160213034D01*
X271642739Y-160179393D01*
X271763275Y-160134619D01*
X271903557Y-160124521D01*
X272035690Y-160150018D01*
G37*
X272035690Y-160150018D02*
X272070585Y-160165269D01*
X272153877Y-160231235D01*
X272225103Y-160326618D01*
X272269153Y-160428406D01*
X272276322Y-160478587D01*
X272252285Y-160548647D01*
X272199561Y-160585717D01*
X272143031Y-160608164D01*
X272117146Y-160612300D01*
X272104542Y-160582283D01*
X272079654Y-160516961D01*
X272068735Y-160487445D01*
X272007508Y-160385348D01*
X271918861Y-160334423D01*
X271805193Y-160335989D01*
X271796774Y-160337994D01*
X271736088Y-160366767D01*
X271691474Y-160422859D01*
X271661002Y-160513163D01*
X271642744Y-160644571D01*
X271634771Y-160823974D01*
X271634023Y-160919433D01*
X271633652Y-161069913D01*
X271631223Y-161172495D01*
X271624760Y-161237672D01*
X271612288Y-161275938D01*
X271591833Y-161297785D01*
X271561419Y-161313707D01*
X271559661Y-161314509D01*
X271501091Y-161339272D01*
X271472075Y-161348391D01*
X271467616Y-161320822D01*
X271463799Y-161244620D01*
X271460899Y-161129541D01*
X271459191Y-160985341D01*
X271458851Y-160879814D01*
X271460588Y-160675613D01*
X271467382Y-160520697D01*
X271481607Y-160406024D01*
X271505638Y-160322551D01*
X271541848Y-160261236D01*
X271592612Y-160213034D01*
X271642739Y-160179393D01*
X271763275Y-160134619D01*
X271903557Y-160124521D01*
X272035690Y-160150018D01*
G36*
X273043439Y-160166540D02*
G01*
X273158950Y-160242034D01*
X273214664Y-160309617D01*
X273258804Y-160432255D01*
X273262309Y-160529298D01*
X273254368Y-160659056D01*
X272955115Y-160790039D01*
X272809611Y-160856958D01*
X272714537Y-160910790D01*
X272665101Y-160957416D01*
X272656511Y-161002720D01*
X272683972Y-161052582D01*
X272714253Y-161085632D01*
X272802363Y-161138633D01*
X272898196Y-161142347D01*
X272986212Y-161101041D01*
X273050869Y-161018983D01*
X273062433Y-160990008D01*
X273117825Y-160899509D01*
X273181553Y-160860940D01*
X273268966Y-160827946D01*
X273268966Y-160953034D01*
X273261238Y-161038156D01*
X273230966Y-161109938D01*
X273167518Y-161192356D01*
X273158088Y-161203066D01*
X273087513Y-161276391D01*
X273026847Y-161315742D01*
X272950950Y-161333845D01*
X272888030Y-161339774D01*
X272775487Y-161341251D01*
X272695370Y-161322535D01*
X272645390Y-161294747D01*
X272566838Y-161233641D01*
X272512463Y-161167554D01*
X272478052Y-161084441D01*
X272459388Y-160972254D01*
X272452256Y-160818946D01*
X272451687Y-160741136D01*
X272453622Y-160647853D01*
X272629899Y-160647853D01*
X272631944Y-160697896D01*
X272637039Y-160706092D01*
X272670666Y-160694958D01*
X272743030Y-160665493D01*
X272839747Y-160623601D01*
X272859973Y-160614597D01*
X272982203Y-160552442D01*
X273049547Y-160497815D01*
X273064348Y-160446649D01*
X273028947Y-160394876D01*
X272999711Y-160372000D01*
X272894216Y-160326250D01*
X272795476Y-160333808D01*
X272712812Y-160389651D01*
X272655548Y-160488753D01*
X272637188Y-160567414D01*
X272629899Y-160647853D01*
X272453622Y-160647853D01*
X272455459Y-160559351D01*
X272469359Y-160424853D01*
X272496894Y-160326916D01*
X272541572Y-160254811D01*
X272606901Y-160197813D01*
X272635383Y-160179393D01*
X272764763Y-160131422D01*
X272906412Y-160128403D01*
X273043439Y-160166540D01*
G37*
X273043439Y-160166540D02*
X273158950Y-160242034D01*
X273214664Y-160309617D01*
X273258804Y-160432255D01*
X273262309Y-160529298D01*
X273254368Y-160659056D01*
X272955115Y-160790039D01*
X272809611Y-160856958D01*
X272714537Y-160910790D01*
X272665101Y-160957416D01*
X272656511Y-161002720D01*
X272683972Y-161052582D01*
X272714253Y-161085632D01*
X272802363Y-161138633D01*
X272898196Y-161142347D01*
X272986212Y-161101041D01*
X273050869Y-161018983D01*
X273062433Y-160990008D01*
X273117825Y-160899509D01*
X273181553Y-160860940D01*
X273268966Y-160827946D01*
X273268966Y-160953034D01*
X273261238Y-161038156D01*
X273230966Y-161109938D01*
X273167518Y-161192356D01*
X273158088Y-161203066D01*
X273087513Y-161276391D01*
X273026847Y-161315742D01*
X272950950Y-161333845D01*
X272888030Y-161339774D01*
X272775487Y-161341251D01*
X272695370Y-161322535D01*
X272645390Y-161294747D01*
X272566838Y-161233641D01*
X272512463Y-161167554D01*
X272478052Y-161084441D01*
X272459388Y-160972254D01*
X272452256Y-160818946D01*
X272451687Y-160741136D01*
X272453622Y-160647853D01*
X272629899Y-160647853D01*
X272631944Y-160697896D01*
X272637039Y-160706092D01*
X272670666Y-160694958D01*
X272743030Y-160665493D01*
X272839747Y-160623601D01*
X272859973Y-160614597D01*
X272982203Y-160552442D01*
X273049547Y-160497815D01*
X273064348Y-160446649D01*
X273028947Y-160394876D01*
X272999711Y-160372000D01*
X272894216Y-160326250D01*
X272795476Y-160333808D01*
X272712812Y-160389651D01*
X272655548Y-160488753D01*
X272637188Y-160567414D01*
X272629899Y-160647853D01*
X272453622Y-160647853D01*
X272455459Y-160559351D01*
X272469359Y-160424853D01*
X272496894Y-160326916D01*
X272541572Y-160254811D01*
X272606901Y-160197813D01*
X272635383Y-160179393D01*
X272764763Y-160131422D01*
X272906412Y-160128403D01*
X273043439Y-160166540D01*
G36*
X266909014Y-150662998D02*
G01*
X267067006Y-150663863D01*
X267181347Y-150666205D01*
X267259407Y-150670762D01*
X267308554Y-150678270D01*
X267336159Y-150689466D01*
X267349592Y-150705088D01*
X267356221Y-150725873D01*
X267356865Y-150728563D01*
X267366935Y-150777113D01*
X267385575Y-150872905D01*
X267410845Y-151005743D01*
X267440807Y-151165431D01*
X267473522Y-151341774D01*
X267474664Y-151347967D01*
X267507433Y-151520782D01*
X267538093Y-151673469D01*
X267564664Y-151796871D01*
X267585167Y-151881831D01*
X267597626Y-151919190D01*
X267598220Y-151919852D01*
X267634919Y-151938095D01*
X267710586Y-151968497D01*
X267808878Y-152004493D01*
X267809425Y-152004685D01*
X267933233Y-152051222D01*
X268079196Y-152110504D01*
X268216781Y-152170109D01*
X268223293Y-152173056D01*
X268447390Y-152274765D01*
X268943619Y-151935897D01*
X269095846Y-151832592D01*
X269233741Y-151740237D01*
X269349315Y-151664084D01*
X269434579Y-151609385D01*
X269481544Y-151581393D01*
X269486004Y-151579317D01*
X269520134Y-151588560D01*
X269583881Y-151633156D01*
X269679731Y-151715209D01*
X269810169Y-151836821D01*
X269943328Y-151966205D01*
X270071694Y-152093702D01*
X270186581Y-152210046D01*
X270281073Y-152308052D01*
X270348253Y-152380536D01*
X270381206Y-152420313D01*
X270382432Y-152422361D01*
X270386074Y-152449656D01*
X270372350Y-152494234D01*
X270337869Y-152562112D01*
X270279239Y-152659311D01*
X270193070Y-152791851D01*
X270078200Y-152962476D01*
X269976254Y-153112655D01*
X269885123Y-153247350D01*
X269810073Y-153358740D01*
X269756369Y-153439005D01*
X269729280Y-153480325D01*
X269727574Y-153483130D01*
X269730882Y-153522721D01*
X269755953Y-153599669D01*
X269797798Y-153699432D01*
X269812712Y-153731291D01*
X269877786Y-153873226D01*
X269947212Y-154034273D01*
X270003609Y-154173621D01*
X270044247Y-154277044D01*
X270076526Y-154355642D01*
X270095178Y-154396720D01*
X270097497Y-154399885D01*
X270131803Y-154405128D01*
X270212669Y-154419494D01*
X270329343Y-154440937D01*
X270471075Y-154467413D01*
X270627110Y-154496877D01*
X270786698Y-154527283D01*
X270939085Y-154556588D01*
X271073521Y-154582745D01*
X271179252Y-154603710D01*
X271245526Y-154617439D01*
X271261782Y-154621320D01*
X271278573Y-154630900D01*
X271291249Y-154652536D01*
X271300378Y-154693531D01*
X271306531Y-154761189D01*
X271310280Y-154862812D01*
X271312192Y-155005703D01*
X271312840Y-155197165D01*
X271312874Y-155275645D01*
X271312874Y-155913906D01*
X271159598Y-155944160D01*
X271074322Y-155960564D01*
X270947070Y-155984509D01*
X270793315Y-156013107D01*
X270628534Y-156043467D01*
X270582989Y-156051806D01*
X270430932Y-156081370D01*
X270298468Y-156110442D01*
X270196714Y-156136329D01*
X270136788Y-156156337D01*
X270126805Y-156162301D01*
X270102293Y-156204534D01*
X270067148Y-156286370D01*
X270028173Y-156391683D01*
X270020442Y-156414368D01*
X269969360Y-156555018D01*
X269905954Y-156713714D01*
X269843904Y-156856225D01*
X269843598Y-156856886D01*
X269740267Y-157080440D01*
X270419961Y-158080232D01*
X269983621Y-158517300D01*
X269851649Y-158647381D01*
X269731279Y-158762048D01*
X269629273Y-158855181D01*
X269552391Y-158920658D01*
X269507393Y-158952357D01*
X269500938Y-158954368D01*
X269463040Y-158938529D01*
X269385708Y-158894496D01*
X269277389Y-158827490D01*
X269146532Y-158742734D01*
X269005052Y-158647816D01*
X268861461Y-158550998D01*
X268733435Y-158466751D01*
X268629105Y-158400258D01*
X268556600Y-158356702D01*
X268524158Y-158341264D01*
X268484576Y-158354328D01*
X268409519Y-158388750D01*
X268314468Y-158437380D01*
X268304392Y-158442785D01*
X268176391Y-158506980D01*
X268088618Y-158538463D01*
X268034028Y-158538798D01*
X268005575Y-158509548D01*
X268005410Y-158509138D01*
X267991188Y-158474498D01*
X267957269Y-158392269D01*
X267906284Y-158268814D01*
X267840862Y-158110498D01*
X267763634Y-157923686D01*
X267677229Y-157714742D01*
X267593551Y-157512446D01*
X267501588Y-157289200D01*
X267417150Y-157082392D01*
X267342769Y-156898362D01*
X267280974Y-156743451D01*
X267234297Y-156623996D01*
X267205268Y-156546339D01*
X267196322Y-156517356D01*
X267218756Y-156484110D01*
X267277439Y-156431123D01*
X267355689Y-156372704D01*
X267578534Y-156187952D01*
X267752718Y-155976182D01*
X267876154Y-155741856D01*
X267946754Y-155489434D01*
X267962431Y-155223377D01*
X267951036Y-155100575D01*
X267888950Y-154845793D01*
X267782023Y-154620801D01*
X267636889Y-154427817D01*
X267460178Y-154269061D01*
X267258522Y-154146750D01*
X267038554Y-154063105D01*
X266806906Y-154020344D01*
X266570209Y-154020687D01*
X266335095Y-154066352D01*
X266108196Y-154159559D01*
X265896144Y-154302527D01*
X265807636Y-154383383D01*
X265637889Y-154591007D01*
X265519699Y-154817895D01*
X265452278Y-155057433D01*
X265434840Y-155303007D01*
X265466598Y-155548003D01*
X265546765Y-155785808D01*
X265674555Y-156009807D01*
X265849180Y-156213387D01*
X266044312Y-156372704D01*
X266125591Y-156433602D01*
X266183009Y-156486015D01*
X266203678Y-156517406D01*
X266192856Y-156551639D01*
X266162077Y-156633419D01*
X266113874Y-156756407D01*
X266050778Y-156914263D01*
X265975322Y-157100649D01*
X265890038Y-157309226D01*
X265806219Y-157512496D01*
X265713745Y-157735933D01*
X265628089Y-157942984D01*
X265551882Y-158127286D01*
X265487753Y-158282475D01*
X265438332Y-158402188D01*
X265406248Y-158480061D01*
X265394359Y-158509138D01*
X265366274Y-158538677D01*
X265311949Y-158538591D01*
X265224395Y-158507326D01*
X265096619Y-158443329D01*
X265095608Y-158442785D01*
X264999402Y-158393121D01*
X264921631Y-158356945D01*
X264877777Y-158341408D01*
X264875842Y-158341264D01*
X264842829Y-158357024D01*
X264769946Y-158400850D01*
X264665322Y-158467557D01*
X264537090Y-158551964D01*
X264394948Y-158647816D01*
X264250233Y-158744867D01*
X264119804Y-158829270D01*
X264012110Y-158895801D01*
X263935598Y-158939238D01*
X263899062Y-158954368D01*
X263865418Y-158934482D01*
X263797776Y-158878903D01*
X263702893Y-158793754D01*
X263587530Y-158685153D01*
X263458445Y-158559221D01*
X263416229Y-158517149D01*
X262979739Y-158079931D01*
X263311977Y-157592340D01*
X263412946Y-157442605D01*
X263501562Y-157308220D01*
X263572854Y-157196969D01*
X263621850Y-157116639D01*
X263643578Y-157075014D01*
X263644215Y-157072053D01*
X263632760Y-157032818D01*
X263601949Y-156953895D01*
X263557116Y-156848509D01*
X263525647Y-156777954D01*
X263466808Y-156642876D01*
X263411396Y-156506409D01*
X263368436Y-156391103D01*
X263356766Y-156355977D01*
X263323611Y-156262174D01*
X263291201Y-156189694D01*
X263273399Y-156162301D01*
X263234114Y-156145536D01*
X263148374Y-156121770D01*
X263027303Y-156093697D01*
X262882027Y-156064009D01*
X262817012Y-156051806D01*
X262651913Y-156021468D01*
X262493552Y-155992093D01*
X262357404Y-155966569D01*
X262258943Y-155947785D01*
X262240402Y-155944160D01*
X262087127Y-155913906D01*
X262087127Y-155275645D01*
X262087471Y-155065770D01*
X262088884Y-154906980D01*
X262091936Y-154791973D01*
X262097197Y-154713446D01*
X262105237Y-154664096D01*
X262116627Y-154636619D01*
X262131937Y-154623713D01*
X262138218Y-154621320D01*
X262176104Y-154612833D01*
X262259805Y-154595900D01*
X262378567Y-154572566D01*
X262521639Y-154544875D01*
X262678268Y-154514873D01*
X262837703Y-154484604D01*
X262989191Y-154456115D01*
X263121981Y-154431449D01*
X263225319Y-154412651D01*
X263288455Y-154401767D01*
X263302503Y-154399885D01*
X263315230Y-154374704D01*
X263343400Y-154307622D01*
X263381748Y-154211333D01*
X263396391Y-154173621D01*
X263455452Y-154027921D01*
X263525000Y-153866951D01*
X263587288Y-153731291D01*
X263633121Y-153627561D01*
X263663613Y-153542326D01*
X263673792Y-153490126D01*
X263672169Y-153483130D01*
X263650657Y-153450102D01*
X263601535Y-153376643D01*
X263530077Y-153270577D01*
X263441555Y-153139726D01*
X263341241Y-152991912D01*
X263321406Y-152962734D01*
X263205012Y-152789863D01*
X263119452Y-152658226D01*
X263061316Y-152561761D01*
X263027192Y-152494408D01*
X263013669Y-152450106D01*
X263017336Y-152422794D01*
X263017430Y-152422620D01*
X263046293Y-152386746D01*
X263110133Y-152317391D01*
X263202031Y-152221745D01*
X263315067Y-152106999D01*
X263442321Y-151980341D01*
X263456672Y-151966205D01*
X263617043Y-151810903D01*
X263740805Y-151696870D01*
X263830445Y-151622002D01*
X263888448Y-151584196D01*
X263913996Y-151579317D01*
X263951282Y-151600603D01*
X264028657Y-151649773D01*
X264138133Y-151721575D01*
X264271720Y-151810755D01*
X264421430Y-151912063D01*
X264456382Y-151935897D01*
X264952610Y-152274765D01*
X265176707Y-152173056D01*
X265312989Y-152113783D01*
X265459276Y-152054170D01*
X265585035Y-152006640D01*
X265590575Y-152004685D01*
X265688943Y-151968677D01*
X265764771Y-151938229D01*
X265801718Y-151919905D01*
X265801780Y-151919852D01*
X265813504Y-151886729D01*
X265833432Y-151805267D01*
X265859587Y-151684625D01*
X265889990Y-151533959D01*
X265922663Y-151362428D01*
X265925336Y-151347967D01*
X265958110Y-151171235D01*
X265988198Y-151010810D01*
X266013661Y-150876888D01*
X266032559Y-150779663D01*
X266042953Y-150729332D01*
X266043135Y-150728563D01*
X266049461Y-150707153D01*
X266061761Y-150690988D01*
X266087406Y-150679331D01*
X266133765Y-150671445D01*
X266208208Y-150666593D01*
X266318105Y-150664039D01*
X266470825Y-150663045D01*
X266673738Y-150662874D01*
X266700000Y-150662874D01*
X266909014Y-150662998D01*
G37*
X266909014Y-150662998D02*
X267067006Y-150663863D01*
X267181347Y-150666205D01*
X267259407Y-150670762D01*
X267308554Y-150678270D01*
X267336159Y-150689466D01*
X267349592Y-150705088D01*
X267356221Y-150725873D01*
X267356865Y-150728563D01*
X267366935Y-150777113D01*
X267385575Y-150872905D01*
X267410845Y-151005743D01*
X267440807Y-151165431D01*
X267473522Y-151341774D01*
X267474664Y-151347967D01*
X267507433Y-151520782D01*
X267538093Y-151673469D01*
X267564664Y-151796871D01*
X267585167Y-151881831D01*
X267597626Y-151919190D01*
X267598220Y-151919852D01*
X267634919Y-151938095D01*
X267710586Y-151968497D01*
X267808878Y-152004493D01*
X267809425Y-152004685D01*
X267933233Y-152051222D01*
X268079196Y-152110504D01*
X268216781Y-152170109D01*
X268223293Y-152173056D01*
X268447390Y-152274765D01*
X268943619Y-151935897D01*
X269095846Y-151832592D01*
X269233741Y-151740237D01*
X269349315Y-151664084D01*
X269434579Y-151609385D01*
X269481544Y-151581393D01*
X269486004Y-151579317D01*
X269520134Y-151588560D01*
X269583881Y-151633156D01*
X269679731Y-151715209D01*
X269810169Y-151836821D01*
X269943328Y-151966205D01*
X270071694Y-152093702D01*
X270186581Y-152210046D01*
X270281073Y-152308052D01*
X270348253Y-152380536D01*
X270381206Y-152420313D01*
X270382432Y-152422361D01*
X270386074Y-152449656D01*
X270372350Y-152494234D01*
X270337869Y-152562112D01*
X270279239Y-152659311D01*
X270193070Y-152791851D01*
X270078200Y-152962476D01*
X269976254Y-153112655D01*
X269885123Y-153247350D01*
X269810073Y-153358740D01*
X269756369Y-153439005D01*
X269729280Y-153480325D01*
X269727574Y-153483130D01*
X269730882Y-153522721D01*
X269755953Y-153599669D01*
X269797798Y-153699432D01*
X269812712Y-153731291D01*
X269877786Y-153873226D01*
X269947212Y-154034273D01*
X270003609Y-154173621D01*
X270044247Y-154277044D01*
X270076526Y-154355642D01*
X270095178Y-154396720D01*
X270097497Y-154399885D01*
X270131803Y-154405128D01*
X270212669Y-154419494D01*
X270329343Y-154440937D01*
X270471075Y-154467413D01*
X270627110Y-154496877D01*
X270786698Y-154527283D01*
X270939085Y-154556588D01*
X271073521Y-154582745D01*
X271179252Y-154603710D01*
X271245526Y-154617439D01*
X271261782Y-154621320D01*
X271278573Y-154630900D01*
X271291249Y-154652536D01*
X271300378Y-154693531D01*
X271306531Y-154761189D01*
X271310280Y-154862812D01*
X271312192Y-155005703D01*
X271312840Y-155197165D01*
X271312874Y-155275645D01*
X271312874Y-155913906D01*
X271159598Y-155944160D01*
X271074322Y-155960564D01*
X270947070Y-155984509D01*
X270793315Y-156013107D01*
X270628534Y-156043467D01*
X270582989Y-156051806D01*
X270430932Y-156081370D01*
X270298468Y-156110442D01*
X270196714Y-156136329D01*
X270136788Y-156156337D01*
X270126805Y-156162301D01*
X270102293Y-156204534D01*
X270067148Y-156286370D01*
X270028173Y-156391683D01*
X270020442Y-156414368D01*
X269969360Y-156555018D01*
X269905954Y-156713714D01*
X269843904Y-156856225D01*
X269843598Y-156856886D01*
X269740267Y-157080440D01*
X270419961Y-158080232D01*
X269983621Y-158517300D01*
X269851649Y-158647381D01*
X269731279Y-158762048D01*
X269629273Y-158855181D01*
X269552391Y-158920658D01*
X269507393Y-158952357D01*
X269500938Y-158954368D01*
X269463040Y-158938529D01*
X269385708Y-158894496D01*
X269277389Y-158827490D01*
X269146532Y-158742734D01*
X269005052Y-158647816D01*
X268861461Y-158550998D01*
X268733435Y-158466751D01*
X268629105Y-158400258D01*
X268556600Y-158356702D01*
X268524158Y-158341264D01*
X268484576Y-158354328D01*
X268409519Y-158388750D01*
X268314468Y-158437380D01*
X268304392Y-158442785D01*
X268176391Y-158506980D01*
X268088618Y-158538463D01*
X268034028Y-158538798D01*
X268005575Y-158509548D01*
X268005410Y-158509138D01*
X267991188Y-158474498D01*
X267957269Y-158392269D01*
X267906284Y-158268814D01*
X267840862Y-158110498D01*
X267763634Y-157923686D01*
X267677229Y-157714742D01*
X267593551Y-157512446D01*
X267501588Y-157289200D01*
X267417150Y-157082392D01*
X267342769Y-156898362D01*
X267280974Y-156743451D01*
X267234297Y-156623996D01*
X267205268Y-156546339D01*
X267196322Y-156517356D01*
X267218756Y-156484110D01*
X267277439Y-156431123D01*
X267355689Y-156372704D01*
X267578534Y-156187952D01*
X267752718Y-155976182D01*
X267876154Y-155741856D01*
X267946754Y-155489434D01*
X267962431Y-155223377D01*
X267951036Y-155100575D01*
X267888950Y-154845793D01*
X267782023Y-154620801D01*
X267636889Y-154427817D01*
X267460178Y-154269061D01*
X267258522Y-154146750D01*
X267038554Y-154063105D01*
X266806906Y-154020344D01*
X266570209Y-154020687D01*
X266335095Y-154066352D01*
X266108196Y-154159559D01*
X265896144Y-154302527D01*
X265807636Y-154383383D01*
X265637889Y-154591007D01*
X265519699Y-154817895D01*
X265452278Y-155057433D01*
X265434840Y-155303007D01*
X265466598Y-155548003D01*
X265546765Y-155785808D01*
X265674555Y-156009807D01*
X265849180Y-156213387D01*
X266044312Y-156372704D01*
X266125591Y-156433602D01*
X266183009Y-156486015D01*
X266203678Y-156517406D01*
X266192856Y-156551639D01*
X266162077Y-156633419D01*
X266113874Y-156756407D01*
X266050778Y-156914263D01*
X265975322Y-157100649D01*
X265890038Y-157309226D01*
X265806219Y-157512496D01*
X265713745Y-157735933D01*
X265628089Y-157942984D01*
X265551882Y-158127286D01*
X265487753Y-158282475D01*
X265438332Y-158402188D01*
X265406248Y-158480061D01*
X265394359Y-158509138D01*
X265366274Y-158538677D01*
X265311949Y-158538591D01*
X265224395Y-158507326D01*
X265096619Y-158443329D01*
X265095608Y-158442785D01*
X264999402Y-158393121D01*
X264921631Y-158356945D01*
X264877777Y-158341408D01*
X264875842Y-158341264D01*
X264842829Y-158357024D01*
X264769946Y-158400850D01*
X264665322Y-158467557D01*
X264537090Y-158551964D01*
X264394948Y-158647816D01*
X264250233Y-158744867D01*
X264119804Y-158829270D01*
X264012110Y-158895801D01*
X263935598Y-158939238D01*
X263899062Y-158954368D01*
X263865418Y-158934482D01*
X263797776Y-158878903D01*
X263702893Y-158793754D01*
X263587530Y-158685153D01*
X263458445Y-158559221D01*
X263416229Y-158517149D01*
X262979739Y-158079931D01*
X263311977Y-157592340D01*
X263412946Y-157442605D01*
X263501562Y-157308220D01*
X263572854Y-157196969D01*
X263621850Y-157116639D01*
X263643578Y-157075014D01*
X263644215Y-157072053D01*
X263632760Y-157032818D01*
X263601949Y-156953895D01*
X263557116Y-156848509D01*
X263525647Y-156777954D01*
X263466808Y-156642876D01*
X263411396Y-156506409D01*
X263368436Y-156391103D01*
X263356766Y-156355977D01*
X263323611Y-156262174D01*
X263291201Y-156189694D01*
X263273399Y-156162301D01*
X263234114Y-156145536D01*
X263148374Y-156121770D01*
X263027303Y-156093697D01*
X262882027Y-156064009D01*
X262817012Y-156051806D01*
X262651913Y-156021468D01*
X262493552Y-155992093D01*
X262357404Y-155966569D01*
X262258943Y-155947785D01*
X262240402Y-155944160D01*
X262087127Y-155913906D01*
X262087127Y-155275645D01*
X262087471Y-155065770D01*
X262088884Y-154906980D01*
X262091936Y-154791973D01*
X262097197Y-154713446D01*
X262105237Y-154664096D01*
X262116627Y-154636619D01*
X262131937Y-154623713D01*
X262138218Y-154621320D01*
X262176104Y-154612833D01*
X262259805Y-154595900D01*
X262378567Y-154572566D01*
X262521639Y-154544875D01*
X262678268Y-154514873D01*
X262837703Y-154484604D01*
X262989191Y-154456115D01*
X263121981Y-154431449D01*
X263225319Y-154412651D01*
X263288455Y-154401767D01*
X263302503Y-154399885D01*
X263315230Y-154374704D01*
X263343400Y-154307622D01*
X263381748Y-154211333D01*
X263396391Y-154173621D01*
X263455452Y-154027921D01*
X263525000Y-153866951D01*
X263587288Y-153731291D01*
X263633121Y-153627561D01*
X263663613Y-153542326D01*
X263673792Y-153490126D01*
X263672169Y-153483130D01*
X263650657Y-153450102D01*
X263601535Y-153376643D01*
X263530077Y-153270577D01*
X263441555Y-153139726D01*
X263341241Y-152991912D01*
X263321406Y-152962734D01*
X263205012Y-152789863D01*
X263119452Y-152658226D01*
X263061316Y-152561761D01*
X263027192Y-152494408D01*
X263013669Y-152450106D01*
X263017336Y-152422794D01*
X263017430Y-152422620D01*
X263046293Y-152386746D01*
X263110133Y-152317391D01*
X263202031Y-152221745D01*
X263315067Y-152106999D01*
X263442321Y-151980341D01*
X263456672Y-151966205D01*
X263617043Y-151810903D01*
X263740805Y-151696870D01*
X263830445Y-151622002D01*
X263888448Y-151584196D01*
X263913996Y-151579317D01*
X263951282Y-151600603D01*
X264028657Y-151649773D01*
X264138133Y-151721575D01*
X264271720Y-151810755D01*
X264421430Y-151912063D01*
X264456382Y-151935897D01*
X264952610Y-152274765D01*
X265176707Y-152173056D01*
X265312989Y-152113783D01*
X265459276Y-152054170D01*
X265585035Y-152006640D01*
X265590575Y-152004685D01*
X265688943Y-151968677D01*
X265764771Y-151938229D01*
X265801718Y-151919905D01*
X265801780Y-151919852D01*
X265813504Y-151886729D01*
X265833432Y-151805267D01*
X265859587Y-151684625D01*
X265889990Y-151533959D01*
X265922663Y-151362428D01*
X265925336Y-151347967D01*
X265958110Y-151171235D01*
X265988198Y-151010810D01*
X266013661Y-150876888D01*
X266032559Y-150779663D01*
X266042953Y-150729332D01*
X266043135Y-150728563D01*
X266049461Y-150707153D01*
X266061761Y-150690988D01*
X266087406Y-150679331D01*
X266133765Y-150671445D01*
X266208208Y-150666593D01*
X266318105Y-150664039D01*
X266470825Y-150663045D01*
X266673738Y-150662874D01*
X266700000Y-150662874D01*
X266909014Y-150662998D01*
%TD*%
D12*
%TO.P,SW4,2*%
%TO.N,Net-(R6-Pad2)*%
X83600000Y-153670000D03*
%TO.P,SW4,1*%
%TO.N,Net-(C6-Pad1)*%
X88900000Y-153670000D03*
%TD*%
%TO.P,SW3,2*%
%TO.N,Net-(R5-Pad2)*%
X62010000Y-153670000D03*
%TO.P,SW3,1*%
%TO.N,Net-(C5-Pad1)*%
X67310000Y-153670000D03*
%TD*%
%TO.P,SW2,2*%
%TO.N,Net-(R4-Pad2)*%
X41690000Y-153670000D03*
%TO.P,SW2,1*%
%TO.N,Net-(C4-Pad1)*%
X46990000Y-153670000D03*
%TD*%
%TO.P,SW1,2*%
%TO.N,Net-(R3-Pad2)*%
X21370000Y-153670000D03*
%TO.P,SW1,1*%
%TO.N,Net-(C3-Pad1)*%
X26670000Y-153670000D03*
%TD*%
D13*
%TO.P,J7,2*%
%TO.N,GND*%
X250190000Y-55880000D03*
D14*
%TO.P,J7,1*%
%TO.N,Net-(J7-Pad1)*%
X250190000Y-53340000D03*
%TD*%
D13*
%TO.P,J6,2*%
%TO.N,GND*%
X219710000Y-55880000D03*
D14*
%TO.P,J6,1*%
%TO.N,Net-(J6-Pad1)*%
X219710000Y-53340000D03*
%TD*%
D13*
%TO.P,J5,2*%
%TO.N,GND*%
X77470000Y-120650000D03*
D14*
%TO.P,J5,1*%
%TO.N,Net-(J5-Pad1)*%
X77470000Y-123190000D03*
%TD*%
D13*
%TO.P,J4,2*%
%TO.N,GND*%
X55880000Y-120650000D03*
D14*
%TO.P,J4,1*%
%TO.N,Net-(J4-Pad1)*%
X55880000Y-123190000D03*
%TD*%
D13*
%TO.P,J3,2*%
%TO.N,GND*%
X36830000Y-120650000D03*
D14*
%TO.P,J3,1*%
%TO.N,Net-(J3-Pad1)*%
X36830000Y-123190000D03*
%TD*%
D13*
%TO.P,J1,2*%
%TO.N,GND*%
X16510000Y-120650000D03*
D14*
%TO.P,J1,1*%
%TO.N,Net-(J1-Pad1)*%
X16510000Y-123190000D03*
%TD*%
D15*
%TO.P,C7,2*%
%TO.N,GND*%
X237410000Y-157480000D03*
D16*
%TO.P,C7,1*%
%TO.N,Net-(C7-Pad1)*%
X232410000Y-157480000D03*
%TD*%
D15*
%TO.P,C6,2*%
%TO.N,GND*%
X98625000Y-144780000D03*
D16*
%TO.P,C6,1*%
%TO.N,Net-(C6-Pad1)*%
X93625000Y-144780000D03*
%TD*%
D15*
%TO.P,C5,2*%
%TO.N,GND*%
X77035000Y-144780000D03*
D16*
%TO.P,C5,1*%
%TO.N,Net-(C5-Pad1)*%
X72035000Y-144780000D03*
%TD*%
D15*
%TO.P,C4,2*%
%TO.N,GND*%
X57985000Y-144780000D03*
D16*
%TO.P,C4,1*%
%TO.N,Net-(C4-Pad1)*%
X52985000Y-144780000D03*
%TD*%
D15*
%TO.P,C3,2*%
%TO.N,GND*%
X38020000Y-144780000D03*
D16*
%TO.P,C3,1*%
%TO.N,Net-(C3-Pad1)*%
X33020000Y-144780000D03*
%TD*%
D15*
%TO.P,C2,2*%
%TO.N,GND*%
X96085000Y-39370000D03*
D16*
%TO.P,C2,1*%
%TO.N,+5V*%
X91085000Y-39370000D03*
%TD*%
D15*
%TO.P,C1,2*%
%TO.N,GND*%
X66315000Y-39370000D03*
D16*
%TO.P,C1,1*%
%TO.N,+12V*%
X61315000Y-39370000D03*
%TD*%
D17*
%TO.P,U3,3*%
%TO.N,N/C*%
X231140000Y-140970000D03*
%TO.P,U3,2*%
%TO.N,GND*%
X233680000Y-140970000D03*
D18*
%TO.P,U3,1*%
%TO.N,Net-(C7-Pad1)*%
X236220000Y-140970000D03*
%TD*%
D19*
%TO.P,U2,15*%
%TO.N,GND*%
X191840000Y-43180000D03*
%TO.P,U2,16*%
%TO.N,N/C*%
X191840000Y-45720000D03*
%TO.P,U2,9*%
X191840000Y-27940000D03*
%TO.P,U2,14*%
X191840000Y-40640000D03*
%TO.P,U2,13*%
X191840000Y-38100000D03*
%TO.P,U2,12*%
X191840000Y-35560000D03*
%TO.P,U2,11*%
X191840000Y-33020000D03*
%TO.P,U2,10*%
X191840000Y-30480000D03*
%TO.P,U2,8*%
X116840000Y-45720000D03*
%TO.P,U2,7*%
X116840000Y-43180000D03*
%TO.P,U2,6*%
X116840000Y-40640000D03*
%TO.P,U2,5*%
%TO.N,GND*%
X116840000Y-38100000D03*
%TO.P,U2,4*%
%TO.N,N/C*%
X116840000Y-35560000D03*
%TO.P,U2,3*%
%TO.N,GND*%
X116840000Y-33020000D03*
%TO.P,U2,2*%
%TO.N,N/C*%
X116840000Y-30480000D03*
D20*
%TO.P,U2,1*%
%TO.N,GND*%
X116840000Y-27940000D03*
%TD*%
D21*
%TO.P,U1,3*%
%TO.N,+5V*%
X83290000Y-30480000D03*
%TO.P,U1,2*%
%TO.N,GND*%
X77840000Y-30480000D03*
D22*
%TO.P,U1,1*%
%TO.N,+12V*%
X72390000Y-30480000D03*
%TD*%
D23*
%TO.P,R6,2*%
%TO.N,Net-(R6-Pad2)*%
X82550000Y-135890000D03*
D24*
%TO.P,R6,1*%
%TO.N,Net-(J5-Pad1)*%
X77470000Y-135890000D03*
%TD*%
D23*
%TO.P,R5,2*%
%TO.N,Net-(R5-Pad2)*%
X60960000Y-135890000D03*
D24*
%TO.P,R5,1*%
%TO.N,Net-(J4-Pad1)*%
X55880000Y-135890000D03*
%TD*%
D23*
%TO.P,R4,2*%
%TO.N,Net-(R4-Pad2)*%
X41910000Y-135890000D03*
D24*
%TO.P,R4,1*%
%TO.N,Net-(J3-Pad1)*%
X36830000Y-135890000D03*
%TD*%
D23*
%TO.P,R3,2*%
%TO.N,Net-(R3-Pad2)*%
X21590000Y-135890000D03*
D24*
%TO.P,R3,1*%
%TO.N,Net-(J1-Pad1)*%
X16510000Y-135890000D03*
%TD*%
D23*
%TO.P,R2,2*%
%TO.N,Net-(J7-Pad1)*%
X250190000Y-40640000D03*
D24*
%TO.P,R2,1*%
%TO.N,Net-(LED1-Pad2)*%
X245110000Y-40640000D03*
%TD*%
D23*
%TO.P,R1,2*%
%TO.N,Net-(J6-Pad1)*%
X219710000Y-40640000D03*
D24*
%TO.P,R1,1*%
%TO.N,Net-(BZ1-Pad1)*%
X214630000Y-40640000D03*
%TD*%
D25*
%TO.P,Pot4,3*%
%TO.N,GND*%
X175260000Y-157480000D03*
%TO.P,Pot4,2*%
%TO.N,N/C*%
X177800000Y-157480000D03*
%TO.P,Pot4,1*%
%TO.N,+5V*%
X180340000Y-157480000D03*
%TD*%
%TO.P,Pot3,3*%
%TO.N,GND*%
X156210000Y-157480000D03*
%TO.P,Pot3,2*%
%TO.N,N/C*%
X158750000Y-157480000D03*
%TO.P,Pot3,1*%
%TO.N,+5V*%
X161290000Y-157480000D03*
%TD*%
%TO.P,Pot2,3*%
%TO.N,GND*%
X134620000Y-157480000D03*
%TO.P,Pot2,2*%
%TO.N,N/C*%
X137160000Y-157480000D03*
%TO.P,Pot2,1*%
%TO.N,+5V*%
X139700000Y-157480000D03*
%TD*%
%TO.P,Pot1,3*%
%TO.N,GND*%
X113030000Y-157480000D03*
%TO.P,Pot1,2*%
%TO.N,N/C*%
X115570000Y-157480000D03*
%TO.P,Pot1,1*%
%TO.N,+5V*%
X118110000Y-157480000D03*
%TD*%
D26*
%TO.P,LED1,2*%
%TO.N,Net-(LED1-Pad2)*%
X245110000Y-25400000D03*
D27*
%TO.P,LED1,1*%
%TO.N,GND*%
X242570000Y-25400000D03*
%TD*%
D28*
%TO.P,J2,2*%
%TO.N,+12V*%
X26590000Y-30480000D03*
D29*
%TO.P,J2,1*%
%TO.N,GND*%
X21590000Y-30480000D03*
%TD*%
D30*
%TO.P,BZ1,2*%
%TO.N,GND*%
X222230000Y-25400000D03*
D31*
%TO.P,BZ1,1*%
%TO.N,Net-(BZ1-Pad1)*%
X214630000Y-25400000D03*
%TD*%
D32*
%TO.N,Net-(BZ1-Pad1)*%
X214630000Y-25400000D02*
X214630000Y-40640000D01*
D33*
%TO.N,+12V*%
X63500000Y-30480000D02*
X72390000Y-30480000D01*
X61315000Y-32665000D02*
X63500000Y-30480000D01*
X61315000Y-33375000D02*
X61315000Y-32665000D01*
X61315000Y-39370000D02*
X61315000Y-33375000D01*
X59130000Y-30480000D02*
X61315000Y-32665000D01*
X26590000Y-30480000D02*
X59130000Y-30480000D01*
%TO.N,+5V*%
X91085000Y-39370000D02*
X91085000Y-31395000D01*
X90170000Y-30480000D02*
X83290000Y-30480000D01*
X91085000Y-31395000D02*
X90170000Y-30480000D01*
X91085000Y-39370000D02*
X91085000Y-101245000D01*
X118110000Y-128270000D02*
X118110000Y-157480000D01*
X91085000Y-101245000D02*
X118110000Y-128270000D01*
X118110000Y-157480000D02*
X127000000Y-157480000D01*
X132080000Y-152400000D02*
X138430000Y-152400000D01*
X127000000Y-157480000D02*
X132080000Y-152400000D01*
X139700000Y-157480000D02*
X144780000Y-157480000D01*
X144780000Y-157480000D02*
X149860000Y-152400000D01*
X161290000Y-157480000D02*
X165100000Y-157480000D01*
X165100000Y-157480000D02*
X170180000Y-152400000D01*
X138430000Y-152400000D02*
X139700000Y-153670000D01*
X139700000Y-153670000D02*
X139700000Y-157480000D01*
X149860000Y-152400000D02*
X160020000Y-152400000D01*
X160020000Y-152400000D02*
X161290000Y-153670000D01*
X161290000Y-153670000D02*
X161290000Y-157480000D01*
X170180000Y-152400000D02*
X179070000Y-152400000D01*
X179070000Y-152400000D02*
X180340000Y-153670000D01*
X180340000Y-153670000D02*
X180340000Y-157480000D01*
%TO.N,Net-(J1-Pad1)*%
X16510000Y-123190000D02*
X16510000Y-135890000D01*
%TO.N,Net-(J3-Pad1)*%
X36830000Y-135890000D02*
X36830000Y-123190000D01*
%TO.N,Net-(J4-Pad1)*%
X55880000Y-123190000D02*
X55880000Y-135890000D01*
%TO.N,Net-(J5-Pad1)*%
X77470000Y-123190000D02*
X77470000Y-135890000D01*
%TO.N,Net-(J6-Pad1)*%
X219710000Y-40640000D02*
X219710000Y-53340000D01*
%TO.N,Net-(J7-Pad1)*%
X250190000Y-40640000D02*
X250190000Y-53340000D01*
%TO.N,Net-(LED1-Pad2)*%
X245110000Y-25400000D02*
X245110000Y-40640000D01*
%TO.N,Net-(R3-Pad2)*%
X21590000Y-153450000D02*
X21370000Y-153670000D01*
X21590000Y-135890000D02*
X21590000Y-153450000D01*
D32*
%TO.N,Net-(R4-Pad2)*%
X41910000Y-153450000D02*
X41690000Y-153670000D01*
D33*
X41690000Y-136110000D02*
X41910000Y-135890000D01*
X41690000Y-153670000D02*
X41690000Y-136110000D01*
%TO.N,Net-(R5-Pad2)*%
X60960000Y-152620000D02*
X62010000Y-153670000D01*
X60960000Y-135890000D02*
X60960000Y-152620000D01*
%TO.N,Net-(R6-Pad2)*%
X82550000Y-152620000D02*
X83600000Y-153670000D01*
X82550000Y-135890000D02*
X82550000Y-152620000D01*
%TO.N,Net-(C3-Pad1)*%
X26670000Y-153670000D02*
X26670000Y-146050000D01*
X27940000Y-144780000D02*
X33020000Y-144780000D01*
X26670000Y-146050000D02*
X27940000Y-144780000D01*
D32*
%TO.N,Net-(C4-Pad1)*%
X52985000Y-144780000D02*
X52560990Y-145204010D01*
D33*
%TO.N,Net-(C5-Pad1)*%
X67310000Y-153670000D02*
X67310000Y-146050000D01*
X68580000Y-144780000D02*
X72035000Y-144780000D01*
X67310000Y-146050000D02*
X68580000Y-144780000D01*
%TO.N,Net-(C6-Pad1)*%
X88900000Y-153670000D02*
X88900000Y-146050000D01*
X90170000Y-144780000D02*
X93625000Y-144780000D01*
X88900000Y-146050000D02*
X90170000Y-144780000D01*
%TO.N,Net-(C7-Pad1)*%
X232410000Y-144780000D02*
X236220000Y-140970000D01*
X232410000Y-157480000D02*
X232410000Y-144780000D01*
%TD*%
M02*
