M48
; DRILL file {KiCad 5.1.9+dfsg1-1} date Wed Apr 21 23:22:47 2021
; FORMAT={-:-/ absolute / inch / decimal}
; #@! TF.CreationDate,2021-04-21T23:22:47+05:30
; #@! TF.GenerationSoftware,Kicad,Pcbnew,5.1.9+dfsg1-1
; #@! TF.FileFunction,Plated,1,2,PTH
FMAT,2
INCH
T1C0.0197
T2C0.0315
T3C0.0354
T4C0.0394
T5C0.0472
T6C0.0520
T7C0.0591
T8C0.1378
%
G90
G05
T2
X0.65Y-5.35
X1.05Y-5.35
X1.3Y-5.7
X1.45Y-5.35
X1.4969Y-5.7
X1.8Y-2.0
X1.85Y-5.35
X1.9969Y-2.0
X2.086Y-5.7
X2.2Y-5.35
X2.2829Y-5.7
X2.6Y-5.35
X2.836Y-5.7
X2.95Y-2.05
X3.0329Y-5.7
X3.05Y-5.35
X3.1469Y-2.05
X3.45Y-5.35
X3.686Y-5.7
X3.8829Y-5.7
X4.45Y-6.2
X4.55Y-6.2
X4.65Y-6.2
X5.3Y-6.2
X5.4Y-6.2
X5.5Y-6.2
X6.1Y-0.8
X6.15Y-6.2
X6.25Y-6.2
X6.35Y-6.2
X6.5Y-0.8
X6.9Y-6.2
X7.0Y-6.2
X7.1Y-6.2
X9.15Y-6.2
X9.3469Y-6.2
X9.35Y-1.65
X9.75Y-1.65
X10.55Y-1.65
X10.95Y-1.65
T3
X10.45Y-1.05
X10.55Y-1.05
T4
X0.65Y-4.75
X0.65Y-4.85
X1.45Y-4.75
X1.45Y-4.85
X2.2Y-4.75
X2.2Y-4.85
X3.05Y-4.75
X3.05Y-4.85
X9.35Y-1.05
X9.55Y-2.15
X9.55Y-2.25
X9.6492Y-1.05
X10.75Y-2.15
X10.75Y-2.25
T5
X0.8413Y-6.05
X1.05Y-6.05
X1.6913Y-6.05
X1.9Y-6.05
X2.4413Y-6.05
X2.65Y-6.05
X3.2913Y-6.05
X3.5Y-6.05
X6.45Y-1.05
X6.55Y-1.05
X6.65Y-1.05
X6.75Y-1.05
X6.85Y-1.05
X6.95Y-1.05
X7.05Y-1.05
X7.15Y-1.05
X7.25Y-1.05
X7.35Y-1.05
X7.45Y-1.05
X7.55Y-1.05
X7.65Y-1.05
X7.75Y-1.05
X7.85Y-1.05
X7.95Y-1.05
T6
X0.85Y-1.5
X1.0469Y-1.5
T7
X2.2Y-1.55
X2.4146Y-1.55
X2.6291Y-1.55
T8
X3.7177Y-1.0894
X3.7177Y-2.5461
X8.2453Y-1.0894
X8.2453Y-2.5461
T1
G00X9.1197Y-5.55
M15
G01X9.0803Y-5.55
M16
G05
G00X9.2197Y-5.55
M15
G01X9.1803Y-5.55
M16
G05
G00X9.3197Y-5.55
M15
G01X9.2803Y-5.55
M16
G05
T0
M30
