%TF.GenerationSoftware,KiCad,Pcbnew,5.1.9+dfsg1-1*%
%TF.CreationDate,2021-04-21T23:22:45+05:30*%
%TF.ProjectId,PCB_Init,5043425f-496e-4697-942e-6b696361645f,rev?*%
%TF.SameCoordinates,Original*%
%TF.FileFunction,Copper,L1,Top*%
%TF.FilePolarity,Positive*%
%FSLAX46Y46*%
G04 Gerber Fmt 4.6, Leading zero omitted, Abs format (unit mm)*
G04 Created by KiCad (PCBNEW 5.1.9+dfsg1-1) date 2021-04-21 23:22:45*
%MOMM*%
%LPD*%
G01*
G04 APERTURE LIST*
%TA.AperFunction,NonConductor*%
%ADD10C,0.600000*%
%TD*%
%TA.AperFunction,EtchedComponent*%
%ADD11C,0.010000*%
%TD*%
%TA.AperFunction,ComponentPad*%
%ADD12O,1.600000X1.600000*%
%TD*%
%TA.AperFunction,ComponentPad*%
%ADD13C,1.600000*%
%TD*%
%TA.AperFunction,ComponentPad*%
%ADD14C,4.000000*%
%TD*%
%TA.AperFunction,ComponentPad*%
%ADD15O,1.800000X2.600000*%
%TD*%
%TA.AperFunction,ComponentPad*%
%ADD16R,1.800000X2.600000*%
%TD*%
%TA.AperFunction,ComponentPad*%
%ADD17C,2.400000*%
%TD*%
%TA.AperFunction,ComponentPad*%
%ADD18O,1.700000X1.700000*%
%TD*%
%TA.AperFunction,ComponentPad*%
%ADD19R,1.700000X1.700000*%
%TD*%
%TA.AperFunction,ComponentPad*%
%ADD20R,1.600000X1.600000*%
%TD*%
%TA.AperFunction,ComponentPad*%
%ADD21O,2.250000X1.250000*%
%TD*%
%TA.AperFunction,ComponentPad*%
%ADD22R,2.250000X1.250000*%
%TD*%
%TA.AperFunction,ComponentPad*%
%ADD23O,2.500000X4.500000*%
%TD*%
%TA.AperFunction,ComponentPad*%
%ADD24R,2.500000X4.500000*%
%TD*%
%TA.AperFunction,ComponentPad*%
%ADD25C,1.440000*%
%TD*%
%TA.AperFunction,ComponentPad*%
%ADD26C,1.800000*%
%TD*%
%TA.AperFunction,ComponentPad*%
%ADD27R,1.800000X1.800000*%
%TD*%
%TA.AperFunction,ComponentPad*%
%ADD28O,1.980000X3.960000*%
%TD*%
%TA.AperFunction,ComponentPad*%
%ADD29R,1.980000X3.960000*%
%TD*%
%TA.AperFunction,ComponentPad*%
%ADD30C,2.000000*%
%TD*%
%TA.AperFunction,ComponentPad*%
%ADD31R,2.000000X2.000000*%
%TD*%
%TA.AperFunction,Conductor*%
%ADD32C,0.400000*%
%TD*%
%TA.AperFunction,Conductor*%
%ADD33C,0.250000*%
%TD*%
G04 APERTURE END LIST*
D10*
X141590000Y-88987142D02*
X140590000Y-87558571D01*
X139875714Y-88987142D02*
X139875714Y-85987142D01*
X141018571Y-85987142D01*
X141304285Y-86130000D01*
X141447142Y-86272857D01*
X141590000Y-86558571D01*
X141590000Y-86987142D01*
X141447142Y-87272857D01*
X141304285Y-87415714D01*
X141018571Y-87558571D01*
X139875714Y-87558571D01*
X144018571Y-88844285D02*
X143732857Y-88987142D01*
X143161428Y-88987142D01*
X142875714Y-88844285D01*
X142732857Y-88558571D01*
X142732857Y-87415714D01*
X142875714Y-87130000D01*
X143161428Y-86987142D01*
X143732857Y-86987142D01*
X144018571Y-87130000D01*
X144161428Y-87415714D01*
X144161428Y-87701428D01*
X142732857Y-87987142D01*
X145447142Y-87844285D02*
X147732857Y-87844285D01*
X148732857Y-85987142D02*
X149732857Y-88987142D01*
X150732857Y-85987142D01*
X152875714Y-88844285D02*
X152590000Y-88987142D01*
X152018571Y-88987142D01*
X151732857Y-88844285D01*
X151590000Y-88558571D01*
X151590000Y-87415714D01*
X151732857Y-87130000D01*
X152018571Y-86987142D01*
X152590000Y-86987142D01*
X152875714Y-87130000D01*
X153018571Y-87415714D01*
X153018571Y-87701428D01*
X151590000Y-87987142D01*
X154304285Y-86987142D02*
X154304285Y-88987142D01*
X154304285Y-87272857D02*
X154447142Y-87130000D01*
X154732857Y-86987142D01*
X155161428Y-86987142D01*
X155447142Y-87130000D01*
X155590000Y-87415714D01*
X155590000Y-88987142D01*
X156590000Y-86987142D02*
X157732857Y-86987142D01*
X157018571Y-85987142D02*
X157018571Y-88558571D01*
X157161428Y-88844285D01*
X157447142Y-88987142D01*
X157732857Y-88987142D01*
D11*
%TO.C,REF\u002A\u002A*%
G36*
X266729909Y-157849560D02*
G01*
X266782412Y-157875499D01*
X266847158Y-157920700D01*
X266894347Y-157969991D01*
X266926665Y-158031885D01*
X266946797Y-158114896D01*
X266957430Y-158227538D01*
X266961247Y-158378324D01*
X266961470Y-158443149D01*
X266960818Y-158585221D01*
X266958112Y-158686757D01*
X266952224Y-158757015D01*
X266942027Y-158805256D01*
X266926394Y-158840738D01*
X266910128Y-158864943D01*
X266806295Y-158967929D01*
X266684021Y-159029874D01*
X266552114Y-159048506D01*
X266419384Y-159021549D01*
X266377333Y-159002486D01*
X266276666Y-158950015D01*
X266276666Y-159772259D01*
X266350135Y-159734267D01*
X266446941Y-159704872D01*
X266565928Y-159697342D01*
X266684745Y-159711245D01*
X266774473Y-159742476D01*
X266848899Y-159801954D01*
X266912490Y-159887066D01*
X266917271Y-159895805D01*
X266937437Y-159936966D01*
X266952165Y-159978454D01*
X266962303Y-160028713D01*
X266968699Y-160096184D01*
X266972201Y-160189309D01*
X266973658Y-160316531D01*
X266973921Y-160459701D01*
X266973921Y-160916471D01*
X266700000Y-160916471D01*
X266700000Y-160074231D01*
X266623383Y-160009763D01*
X266543793Y-159958194D01*
X266468422Y-159948818D01*
X266392633Y-159972947D01*
X266352241Y-159996574D01*
X266322179Y-160030227D01*
X266300797Y-160081087D01*
X266286450Y-160156334D01*
X266277490Y-160263146D01*
X266272270Y-160408704D01*
X266270431Y-160505588D01*
X266264215Y-160904020D01*
X266133480Y-160911547D01*
X266002745Y-160919073D01*
X266002745Y-158446582D01*
X266276666Y-158446582D01*
X266283650Y-158584423D01*
X266307182Y-158680107D01*
X266351135Y-158739641D01*
X266419382Y-158769029D01*
X266488333Y-158774902D01*
X266566386Y-158768154D01*
X266618189Y-158741594D01*
X266650583Y-158706499D01*
X266676084Y-158668752D01*
X266691265Y-158626700D01*
X266698019Y-158567779D01*
X266698241Y-158479428D01*
X266695968Y-158405448D01*
X266690749Y-158294000D01*
X266682979Y-158220833D01*
X266669895Y-158174422D01*
X266648732Y-158143244D01*
X266628760Y-158125223D01*
X266545314Y-158085925D01*
X266446551Y-158079579D01*
X266389841Y-158093116D01*
X266333692Y-158141233D01*
X266296499Y-158234833D01*
X266278472Y-158373254D01*
X266276666Y-158446582D01*
X266002745Y-158446582D01*
X266002745Y-157828628D01*
X266139705Y-157828628D01*
X266221935Y-157831879D01*
X266264360Y-157843426D01*
X266276661Y-157865952D01*
X266276666Y-157866620D01*
X266282374Y-157888681D01*
X266307547Y-157886176D01*
X266357598Y-157861935D01*
X266474219Y-157824851D01*
X266605429Y-157820953D01*
X266729909Y-157849560D01*
G37*
X266729909Y-157849560D02*
X266782412Y-157875499D01*
X266847158Y-157920700D01*
X266894347Y-157969991D01*
X266926665Y-158031885D01*
X266946797Y-158114896D01*
X266957430Y-158227538D01*
X266961247Y-158378324D01*
X266961470Y-158443149D01*
X266960818Y-158585221D01*
X266958112Y-158686757D01*
X266952224Y-158757015D01*
X266942027Y-158805256D01*
X266926394Y-158840738D01*
X266910128Y-158864943D01*
X266806295Y-158967929D01*
X266684021Y-159029874D01*
X266552114Y-159048506D01*
X266419384Y-159021549D01*
X266377333Y-159002486D01*
X266276666Y-158950015D01*
X266276666Y-159772259D01*
X266350135Y-159734267D01*
X266446941Y-159704872D01*
X266565928Y-159697342D01*
X266684745Y-159711245D01*
X266774473Y-159742476D01*
X266848899Y-159801954D01*
X266912490Y-159887066D01*
X266917271Y-159895805D01*
X266937437Y-159936966D01*
X266952165Y-159978454D01*
X266962303Y-160028713D01*
X266968699Y-160096184D01*
X266972201Y-160189309D01*
X266973658Y-160316531D01*
X266973921Y-160459701D01*
X266973921Y-160916471D01*
X266700000Y-160916471D01*
X266700000Y-160074231D01*
X266623383Y-160009763D01*
X266543793Y-159958194D01*
X266468422Y-159948818D01*
X266392633Y-159972947D01*
X266352241Y-159996574D01*
X266322179Y-160030227D01*
X266300797Y-160081087D01*
X266286450Y-160156334D01*
X266277490Y-160263146D01*
X266272270Y-160408704D01*
X266270431Y-160505588D01*
X266264215Y-160904020D01*
X266133480Y-160911547D01*
X266002745Y-160919073D01*
X266002745Y-158446582D01*
X266276666Y-158446582D01*
X266283650Y-158584423D01*
X266307182Y-158680107D01*
X266351135Y-158739641D01*
X266419382Y-158769029D01*
X266488333Y-158774902D01*
X266566386Y-158768154D01*
X266618189Y-158741594D01*
X266650583Y-158706499D01*
X266676084Y-158668752D01*
X266691265Y-158626700D01*
X266698019Y-158567779D01*
X266698241Y-158479428D01*
X266695968Y-158405448D01*
X266690749Y-158294000D01*
X266682979Y-158220833D01*
X266669895Y-158174422D01*
X266648732Y-158143244D01*
X266628760Y-158125223D01*
X266545314Y-158085925D01*
X266446551Y-158079579D01*
X266389841Y-158093116D01*
X266333692Y-158141233D01*
X266296499Y-158234833D01*
X266278472Y-158373254D01*
X266276666Y-158446582D01*
X266002745Y-158446582D01*
X266002745Y-157828628D01*
X266139705Y-157828628D01*
X266221935Y-157831879D01*
X266264360Y-157843426D01*
X266276661Y-157865952D01*
X266276666Y-157866620D01*
X266282374Y-157888681D01*
X266307547Y-157886176D01*
X266357598Y-157861935D01*
X266474219Y-157824851D01*
X266605429Y-157820953D01*
X266729909Y-157849560D01*
G36*
X267768720Y-159705922D02*
G01*
X267885870Y-159737180D01*
X267975051Y-159793837D01*
X268037984Y-159868045D01*
X268057548Y-159899716D01*
X268071992Y-159932891D01*
X268082089Y-159975329D01*
X268088615Y-160034788D01*
X268092342Y-160119029D01*
X268094046Y-160235810D01*
X268094500Y-160392890D01*
X268094509Y-160434565D01*
X268094509Y-160916471D01*
X267974980Y-160916471D01*
X267898739Y-160911131D01*
X267842366Y-160897604D01*
X267828242Y-160889262D01*
X267789630Y-160874864D01*
X267750192Y-160889262D01*
X267685262Y-160907237D01*
X267590945Y-160914472D01*
X267486407Y-160911333D01*
X267390811Y-160898186D01*
X267335000Y-160881318D01*
X267226998Y-160811986D01*
X267159503Y-160715772D01*
X267129159Y-160587844D01*
X267128877Y-160584559D01*
X267131540Y-160527808D01*
X267372353Y-160527808D01*
X267393405Y-160592358D01*
X267427697Y-160628686D01*
X267496532Y-160656162D01*
X267587390Y-160667129D01*
X267680042Y-160661731D01*
X267754256Y-160640110D01*
X267775049Y-160626239D01*
X267811381Y-160562143D01*
X267820588Y-160489278D01*
X267820588Y-160393530D01*
X267682827Y-160393530D01*
X267551953Y-160403605D01*
X267452741Y-160432148D01*
X267391023Y-160476639D01*
X267372353Y-160527808D01*
X267131540Y-160527808D01*
X267135436Y-160444790D01*
X267181534Y-160334282D01*
X267268200Y-160250712D01*
X267280179Y-160243110D01*
X267331655Y-160218357D01*
X267395368Y-160203368D01*
X267484435Y-160196082D01*
X267590245Y-160194407D01*
X267820588Y-160194314D01*
X267820588Y-160097755D01*
X267810817Y-160022836D01*
X267785884Y-159972644D01*
X267782965Y-159969972D01*
X267727481Y-159948015D01*
X267643727Y-159939505D01*
X267551167Y-159943687D01*
X267469270Y-159959809D01*
X267420673Y-159983990D01*
X267394341Y-160003359D01*
X267366535Y-160007057D01*
X267328161Y-159991188D01*
X267270125Y-159951855D01*
X267183331Y-159885164D01*
X267175365Y-159878916D01*
X267179447Y-159855800D01*
X267213501Y-159817352D01*
X267265260Y-159774627D01*
X267322455Y-159738679D01*
X267340425Y-159730191D01*
X267405972Y-159713252D01*
X267502020Y-159701170D01*
X267609329Y-159696323D01*
X267614347Y-159696313D01*
X267768720Y-159705922D01*
G37*
X267768720Y-159705922D02*
X267885870Y-159737180D01*
X267975051Y-159793837D01*
X268037984Y-159868045D01*
X268057548Y-159899716D01*
X268071992Y-159932891D01*
X268082089Y-159975329D01*
X268088615Y-160034788D01*
X268092342Y-160119029D01*
X268094046Y-160235810D01*
X268094500Y-160392890D01*
X268094509Y-160434565D01*
X268094509Y-160916471D01*
X267974980Y-160916471D01*
X267898739Y-160911131D01*
X267842366Y-160897604D01*
X267828242Y-160889262D01*
X267789630Y-160874864D01*
X267750192Y-160889262D01*
X267685262Y-160907237D01*
X267590945Y-160914472D01*
X267486407Y-160911333D01*
X267390811Y-160898186D01*
X267335000Y-160881318D01*
X267226998Y-160811986D01*
X267159503Y-160715772D01*
X267129159Y-160587844D01*
X267128877Y-160584559D01*
X267131540Y-160527808D01*
X267372353Y-160527808D01*
X267393405Y-160592358D01*
X267427697Y-160628686D01*
X267496532Y-160656162D01*
X267587390Y-160667129D01*
X267680042Y-160661731D01*
X267754256Y-160640110D01*
X267775049Y-160626239D01*
X267811381Y-160562143D01*
X267820588Y-160489278D01*
X267820588Y-160393530D01*
X267682827Y-160393530D01*
X267551953Y-160403605D01*
X267452741Y-160432148D01*
X267391023Y-160476639D01*
X267372353Y-160527808D01*
X267131540Y-160527808D01*
X267135436Y-160444790D01*
X267181534Y-160334282D01*
X267268200Y-160250712D01*
X267280179Y-160243110D01*
X267331655Y-160218357D01*
X267395368Y-160203368D01*
X267484435Y-160196082D01*
X267590245Y-160194407D01*
X267820588Y-160194314D01*
X267820588Y-160097755D01*
X267810817Y-160022836D01*
X267785884Y-159972644D01*
X267782965Y-159969972D01*
X267727481Y-159948015D01*
X267643727Y-159939505D01*
X267551167Y-159943687D01*
X267469270Y-159959809D01*
X267420673Y-159983990D01*
X267394341Y-160003359D01*
X267366535Y-160007057D01*
X267328161Y-159991188D01*
X267270125Y-159951855D01*
X267183331Y-159885164D01*
X267175365Y-159878916D01*
X267179447Y-159855800D01*
X267213501Y-159817352D01*
X267265260Y-159774627D01*
X267322455Y-159738679D01*
X267340425Y-159730191D01*
X267405972Y-159713252D01*
X267502020Y-159701170D01*
X267609329Y-159696323D01*
X267614347Y-159696313D01*
X267768720Y-159705922D01*
G36*
X268542764Y-159698921D02*
G01*
X268580030Y-159710091D01*
X268592043Y-159734633D01*
X268592549Y-159745712D01*
X268594704Y-159776572D01*
X268609551Y-159781417D01*
X268649657Y-159760260D01*
X268673480Y-159745806D01*
X268748638Y-159714850D01*
X268838406Y-159699544D01*
X268932529Y-159698367D01*
X269020754Y-159709799D01*
X269092826Y-159732320D01*
X269138492Y-159764409D01*
X269147498Y-159804545D01*
X269142953Y-159815415D01*
X269109821Y-159860534D01*
X269058445Y-159916026D01*
X269049152Y-159924996D01*
X269000182Y-159966245D01*
X268957931Y-159979572D01*
X268898841Y-159970271D01*
X268875169Y-159964090D01*
X268801504Y-159949246D01*
X268749710Y-159955921D01*
X268705969Y-159979465D01*
X268665902Y-160011061D01*
X268636392Y-160050798D01*
X268615884Y-160106252D01*
X268602824Y-160185003D01*
X268595656Y-160294629D01*
X268592824Y-160442706D01*
X268592549Y-160532111D01*
X268592549Y-160916471D01*
X268343529Y-160916471D01*
X268343529Y-159696275D01*
X268468039Y-159696275D01*
X268542764Y-159698921D01*
G37*
X268542764Y-159698921D02*
X268580030Y-159710091D01*
X268592043Y-159734633D01*
X268592549Y-159745712D01*
X268594704Y-159776572D01*
X268609551Y-159781417D01*
X268649657Y-159760260D01*
X268673480Y-159745806D01*
X268748638Y-159714850D01*
X268838406Y-159699544D01*
X268932529Y-159698367D01*
X269020754Y-159709799D01*
X269092826Y-159732320D01*
X269138492Y-159764409D01*
X269147498Y-159804545D01*
X269142953Y-159815415D01*
X269109821Y-159860534D01*
X269058445Y-159916026D01*
X269049152Y-159924996D01*
X269000182Y-159966245D01*
X268957931Y-159979572D01*
X268898841Y-159970271D01*
X268875169Y-159964090D01*
X268801504Y-159949246D01*
X268749710Y-159955921D01*
X268705969Y-159979465D01*
X268665902Y-160011061D01*
X268636392Y-160050798D01*
X268615884Y-160106252D01*
X268602824Y-160185003D01*
X268595656Y-160294629D01*
X268592824Y-160442706D01*
X268592549Y-160532111D01*
X268592549Y-160916471D01*
X268343529Y-160916471D01*
X268343529Y-159696275D01*
X268468039Y-159696275D01*
X268542764Y-159698921D01*
G36*
X270111568Y-160916471D02*
G01*
X269974607Y-160916471D01*
X269895111Y-160914140D01*
X269853708Y-160904488D01*
X269838801Y-160883525D01*
X269837647Y-160869351D01*
X269835133Y-160840927D01*
X269819280Y-160835475D01*
X269777621Y-160852998D01*
X269745224Y-160869351D01*
X269620849Y-160908103D01*
X269485646Y-160910346D01*
X269375726Y-160881444D01*
X269273366Y-160811619D01*
X269195340Y-160708555D01*
X269152614Y-160586989D01*
X269151526Y-160580192D01*
X269145178Y-160506032D01*
X269142021Y-160399570D01*
X269142275Y-160319052D01*
X269414289Y-160319052D01*
X269420590Y-160426070D01*
X269434925Y-160514278D01*
X269454331Y-160564090D01*
X269527746Y-160632162D01*
X269614914Y-160656564D01*
X269704804Y-160636831D01*
X269781617Y-160577968D01*
X269810708Y-160538379D01*
X269827717Y-160491138D01*
X269835684Y-160422181D01*
X269837647Y-160318607D01*
X269834134Y-160216039D01*
X269824857Y-160125921D01*
X269811706Y-160065613D01*
X269809514Y-160060208D01*
X269756478Y-159995940D01*
X269679067Y-159960656D01*
X269592454Y-159954959D01*
X269511807Y-159979453D01*
X269452297Y-160034742D01*
X269446124Y-160045743D01*
X269426801Y-160112827D01*
X269416274Y-160209284D01*
X269414289Y-160319052D01*
X269142275Y-160319052D01*
X269142404Y-160278225D01*
X269144194Y-160212918D01*
X269156373Y-160051355D01*
X269181685Y-159930053D01*
X269223793Y-159840379D01*
X269286359Y-159773699D01*
X269347100Y-159734557D01*
X269431964Y-159707040D01*
X269537515Y-159697603D01*
X269645598Y-159705290D01*
X269738058Y-159729146D01*
X269786910Y-159757685D01*
X269837647Y-159803601D01*
X269837647Y-159223137D01*
X270111568Y-159223137D01*
X270111568Y-160916471D01*
G37*
X270111568Y-160916471D02*
X269974607Y-160916471D01*
X269895111Y-160914140D01*
X269853708Y-160904488D01*
X269838801Y-160883525D01*
X269837647Y-160869351D01*
X269835133Y-160840927D01*
X269819280Y-160835475D01*
X269777621Y-160852998D01*
X269745224Y-160869351D01*
X269620849Y-160908103D01*
X269485646Y-160910346D01*
X269375726Y-160881444D01*
X269273366Y-160811619D01*
X269195340Y-160708555D01*
X269152614Y-160586989D01*
X269151526Y-160580192D01*
X269145178Y-160506032D01*
X269142021Y-160399570D01*
X269142275Y-160319052D01*
X269414289Y-160319052D01*
X269420590Y-160426070D01*
X269434925Y-160514278D01*
X269454331Y-160564090D01*
X269527746Y-160632162D01*
X269614914Y-160656564D01*
X269704804Y-160636831D01*
X269781617Y-160577968D01*
X269810708Y-160538379D01*
X269827717Y-160491138D01*
X269835684Y-160422181D01*
X269837647Y-160318607D01*
X269834134Y-160216039D01*
X269824857Y-160125921D01*
X269811706Y-160065613D01*
X269809514Y-160060208D01*
X269756478Y-159995940D01*
X269679067Y-159960656D01*
X269592454Y-159954959D01*
X269511807Y-159979453D01*
X269452297Y-160034742D01*
X269446124Y-160045743D01*
X269426801Y-160112827D01*
X269416274Y-160209284D01*
X269414289Y-160319052D01*
X269142275Y-160319052D01*
X269142404Y-160278225D01*
X269144194Y-160212918D01*
X269156373Y-160051355D01*
X269181685Y-159930053D01*
X269223793Y-159840379D01*
X269286359Y-159773699D01*
X269347100Y-159734557D01*
X269431964Y-159707040D01*
X269537515Y-159697603D01*
X269645598Y-159705290D01*
X269738058Y-159729146D01*
X269786910Y-159757685D01*
X269837647Y-159803601D01*
X269837647Y-159223137D01*
X270111568Y-159223137D01*
X270111568Y-160916471D01*
G36*
X271067528Y-159701332D02*
G01*
X271166014Y-159708726D01*
X271294776Y-160094706D01*
X271423537Y-160480686D01*
X271463911Y-160343726D01*
X271488207Y-160259083D01*
X271520167Y-160144697D01*
X271554679Y-160018963D01*
X271572928Y-159951520D01*
X271641571Y-159696275D01*
X271924773Y-159696275D01*
X271840122Y-159963971D01*
X271798435Y-160095638D01*
X271748074Y-160254458D01*
X271695481Y-160420128D01*
X271648530Y-160567843D01*
X271541589Y-160904020D01*
X271310661Y-160919044D01*
X271248050Y-160712316D01*
X271209438Y-160583896D01*
X271167300Y-160442322D01*
X271130472Y-160317285D01*
X271129018Y-160312309D01*
X271101511Y-160227586D01*
X271077242Y-160169778D01*
X271060243Y-160147918D01*
X271056750Y-160150446D01*
X271044490Y-160184336D01*
X271021195Y-160256930D01*
X270989700Y-160359101D01*
X270952842Y-160481720D01*
X270932899Y-160549167D01*
X270824895Y-160916471D01*
X270595679Y-160916471D01*
X270412439Y-160337500D01*
X270360963Y-160175091D01*
X270314070Y-160027602D01*
X270273977Y-159901960D01*
X270242897Y-159805095D01*
X270223045Y-159743934D01*
X270217011Y-159726065D01*
X270221788Y-159707768D01*
X270259297Y-159699755D01*
X270337355Y-159700557D01*
X270349574Y-159701163D01*
X270494326Y-159708726D01*
X270589130Y-160057353D01*
X270623977Y-160184497D01*
X270655117Y-160296265D01*
X270679809Y-160382953D01*
X270695312Y-160434856D01*
X270698176Y-160443318D01*
X270710046Y-160433587D01*
X270733983Y-160383172D01*
X270767239Y-160298935D01*
X270807064Y-160187741D01*
X270840730Y-160087297D01*
X270969041Y-159693939D01*
X271067528Y-159701332D01*
G37*
X271067528Y-159701332D02*
X271166014Y-159708726D01*
X271294776Y-160094706D01*
X271423537Y-160480686D01*
X271463911Y-160343726D01*
X271488207Y-160259083D01*
X271520167Y-160144697D01*
X271554679Y-160018963D01*
X271572928Y-159951520D01*
X271641571Y-159696275D01*
X271924773Y-159696275D01*
X271840122Y-159963971D01*
X271798435Y-160095638D01*
X271748074Y-160254458D01*
X271695481Y-160420128D01*
X271648530Y-160567843D01*
X271541589Y-160904020D01*
X271310661Y-160919044D01*
X271248050Y-160712316D01*
X271209438Y-160583896D01*
X271167300Y-160442322D01*
X271130472Y-160317285D01*
X271129018Y-160312309D01*
X271101511Y-160227586D01*
X271077242Y-160169778D01*
X271060243Y-160147918D01*
X271056750Y-160150446D01*
X271044490Y-160184336D01*
X271021195Y-160256930D01*
X270989700Y-160359101D01*
X270952842Y-160481720D01*
X270932899Y-160549167D01*
X270824895Y-160916471D01*
X270595679Y-160916471D01*
X270412439Y-160337500D01*
X270360963Y-160175091D01*
X270314070Y-160027602D01*
X270273977Y-159901960D01*
X270242897Y-159805095D01*
X270223045Y-159743934D01*
X270217011Y-159726065D01*
X270221788Y-159707768D01*
X270259297Y-159699755D01*
X270337355Y-159700557D01*
X270349574Y-159701163D01*
X270494326Y-159708726D01*
X270589130Y-160057353D01*
X270623977Y-160184497D01*
X270655117Y-160296265D01*
X270679809Y-160382953D01*
X270695312Y-160434856D01*
X270698176Y-160443318D01*
X270710046Y-160433587D01*
X270733983Y-160383172D01*
X270767239Y-160298935D01*
X270807064Y-160187741D01*
X270840730Y-160087297D01*
X270969041Y-159693939D01*
X271067528Y-159701332D01*
G36*
X272566459Y-159703669D02*
G01*
X272671420Y-159729163D01*
X272701761Y-159742669D01*
X272760573Y-159778046D01*
X272805709Y-159817890D01*
X272839106Y-159869120D01*
X272862701Y-159938654D01*
X272878433Y-160033409D01*
X272888239Y-160160305D01*
X272894057Y-160326258D01*
X272896266Y-160437108D01*
X272904396Y-160916471D01*
X272765531Y-160916471D01*
X272681287Y-160912938D01*
X272637884Y-160900866D01*
X272626666Y-160880594D01*
X272620744Y-160858674D01*
X272594266Y-160862865D01*
X272558186Y-160880441D01*
X272467862Y-160907382D01*
X272351777Y-160914642D01*
X272229680Y-160902767D01*
X272121321Y-160872305D01*
X272111602Y-160868077D01*
X272012568Y-160798505D01*
X271947281Y-160701789D01*
X271917240Y-160588738D01*
X271919535Y-160548122D01*
X272164633Y-160548122D01*
X272186229Y-160602782D01*
X272250259Y-160641952D01*
X272353565Y-160662974D01*
X272408774Y-160665766D01*
X272500782Y-160658620D01*
X272561941Y-160630848D01*
X272576862Y-160617647D01*
X272617287Y-160545829D01*
X272626666Y-160480686D01*
X272626666Y-160393530D01*
X272505269Y-160393530D01*
X272364153Y-160400722D01*
X272265173Y-160423345D01*
X272202633Y-160462964D01*
X272188631Y-160480628D01*
X272164633Y-160548122D01*
X271919535Y-160548122D01*
X271923941Y-160470157D01*
X271968880Y-160356855D01*
X272030196Y-160280285D01*
X272067332Y-160247181D01*
X272103687Y-160225425D01*
X272150990Y-160212161D01*
X272220973Y-160204528D01*
X272325364Y-160199670D01*
X272366770Y-160198273D01*
X272626666Y-160189780D01*
X272626285Y-160111116D01*
X272616219Y-160028428D01*
X272579829Y-159978431D01*
X272506311Y-159946489D01*
X272504339Y-159945920D01*
X272400105Y-159933361D01*
X272298108Y-159949766D01*
X272222305Y-159989657D01*
X272191890Y-160009354D01*
X272159132Y-160006629D01*
X272108721Y-159978091D01*
X272079119Y-159957950D01*
X272021218Y-159914919D01*
X271985352Y-159882662D01*
X271979597Y-159873427D01*
X272003295Y-159825636D01*
X272073313Y-159768562D01*
X272103725Y-159749305D01*
X272191155Y-159716140D01*
X272308983Y-159697350D01*
X272439866Y-159693129D01*
X272566459Y-159703669D01*
G37*
X272566459Y-159703669D02*
X272671420Y-159729163D01*
X272701761Y-159742669D01*
X272760573Y-159778046D01*
X272805709Y-159817890D01*
X272839106Y-159869120D01*
X272862701Y-159938654D01*
X272878433Y-160033409D01*
X272888239Y-160160305D01*
X272894057Y-160326258D01*
X272896266Y-160437108D01*
X272904396Y-160916471D01*
X272765531Y-160916471D01*
X272681287Y-160912938D01*
X272637884Y-160900866D01*
X272626666Y-160880594D01*
X272620744Y-160858674D01*
X272594266Y-160862865D01*
X272558186Y-160880441D01*
X272467862Y-160907382D01*
X272351777Y-160914642D01*
X272229680Y-160902767D01*
X272121321Y-160872305D01*
X272111602Y-160868077D01*
X272012568Y-160798505D01*
X271947281Y-160701789D01*
X271917240Y-160588738D01*
X271919535Y-160548122D01*
X272164633Y-160548122D01*
X272186229Y-160602782D01*
X272250259Y-160641952D01*
X272353565Y-160662974D01*
X272408774Y-160665766D01*
X272500782Y-160658620D01*
X272561941Y-160630848D01*
X272576862Y-160617647D01*
X272617287Y-160545829D01*
X272626666Y-160480686D01*
X272626666Y-160393530D01*
X272505269Y-160393530D01*
X272364153Y-160400722D01*
X272265173Y-160423345D01*
X272202633Y-160462964D01*
X272188631Y-160480628D01*
X272164633Y-160548122D01*
X271919535Y-160548122D01*
X271923941Y-160470157D01*
X271968880Y-160356855D01*
X272030196Y-160280285D01*
X272067332Y-160247181D01*
X272103687Y-160225425D01*
X272150990Y-160212161D01*
X272220973Y-160204528D01*
X272325364Y-160199670D01*
X272366770Y-160198273D01*
X272626666Y-160189780D01*
X272626285Y-160111116D01*
X272616219Y-160028428D01*
X272579829Y-159978431D01*
X272506311Y-159946489D01*
X272504339Y-159945920D01*
X272400105Y-159933361D01*
X272298108Y-159949766D01*
X272222305Y-159989657D01*
X272191890Y-160009354D01*
X272159132Y-160006629D01*
X272108721Y-159978091D01*
X272079119Y-159957950D01*
X272021218Y-159914919D01*
X271985352Y-159882662D01*
X271979597Y-159873427D01*
X272003295Y-159825636D01*
X272073313Y-159768562D01*
X272103725Y-159749305D01*
X272191155Y-159716140D01*
X272308983Y-159697350D01*
X272439866Y-159693129D01*
X272566459Y-159703669D01*
G36*
X273748446Y-159695883D02*
G01*
X273844177Y-159714755D01*
X273898677Y-159742699D01*
X273956008Y-159789123D01*
X273874441Y-159892111D01*
X273824150Y-159954479D01*
X273790001Y-159984907D01*
X273756063Y-159989555D01*
X273706406Y-159974586D01*
X273683096Y-159966117D01*
X273588063Y-159953622D01*
X273501032Y-159980406D01*
X273437138Y-160040915D01*
X273426759Y-160060208D01*
X273415456Y-160111314D01*
X273406732Y-160205500D01*
X273400997Y-160336089D01*
X273398660Y-160496405D01*
X273398627Y-160519211D01*
X273398627Y-160916471D01*
X273124705Y-160916471D01*
X273124705Y-159696275D01*
X273261666Y-159696275D01*
X273340638Y-159698337D01*
X273381779Y-159707513D01*
X273396992Y-159728290D01*
X273398627Y-159747886D01*
X273398627Y-159799497D01*
X273464240Y-159747886D01*
X273539475Y-159712675D01*
X273640544Y-159695265D01*
X273748446Y-159695883D01*
G37*
X273748446Y-159695883D02*
X273844177Y-159714755D01*
X273898677Y-159742699D01*
X273956008Y-159789123D01*
X273874441Y-159892111D01*
X273824150Y-159954479D01*
X273790001Y-159984907D01*
X273756063Y-159989555D01*
X273706406Y-159974586D01*
X273683096Y-159966117D01*
X273588063Y-159953622D01*
X273501032Y-159980406D01*
X273437138Y-160040915D01*
X273426759Y-160060208D01*
X273415456Y-160111314D01*
X273406732Y-160205500D01*
X273400997Y-160336089D01*
X273398660Y-160496405D01*
X273398627Y-160519211D01*
X273398627Y-160916471D01*
X273124705Y-160916471D01*
X273124705Y-159696275D01*
X273261666Y-159696275D01*
X273340638Y-159698337D01*
X273381779Y-159707513D01*
X273396992Y-159728290D01*
X273398627Y-159747886D01*
X273398627Y-159799497D01*
X273464240Y-159747886D01*
X273539475Y-159712675D01*
X273640544Y-159695265D01*
X273748446Y-159695883D01*
G36*
X274535307Y-159702784D02*
G01*
X274654337Y-159733731D01*
X274754021Y-159797600D01*
X274802288Y-159845313D01*
X274881408Y-159958106D01*
X274926752Y-160088950D01*
X274942330Y-160249792D01*
X274942410Y-160262794D01*
X274942549Y-160393530D01*
X274190091Y-160393530D01*
X274206130Y-160462010D01*
X274235091Y-160524031D01*
X274285778Y-160588654D01*
X274296379Y-160598971D01*
X274387494Y-160654805D01*
X274491400Y-160664275D01*
X274611000Y-160627540D01*
X274631274Y-160617647D01*
X274693456Y-160587574D01*
X274735106Y-160570440D01*
X274742373Y-160568855D01*
X274767740Y-160584242D01*
X274816120Y-160621887D01*
X274840679Y-160642459D01*
X274891570Y-160689714D01*
X274908281Y-160720917D01*
X274896683Y-160749620D01*
X274890483Y-160757468D01*
X274848493Y-160791819D01*
X274779206Y-160833565D01*
X274730882Y-160857935D01*
X274593711Y-160900873D01*
X274441847Y-160914786D01*
X274298024Y-160898300D01*
X274257745Y-160886496D01*
X274133078Y-160819689D01*
X274040671Y-160716892D01*
X273979990Y-160577105D01*
X273950498Y-160399330D01*
X273947260Y-160306373D01*
X273956714Y-160171033D01*
X274195490Y-160171033D01*
X274218584Y-160181038D01*
X274280662Y-160188888D01*
X274370914Y-160193521D01*
X274432058Y-160194314D01*
X274542040Y-160193549D01*
X274611457Y-160189970D01*
X274649538Y-160181649D01*
X274665515Y-160166657D01*
X274668627Y-160144903D01*
X274647278Y-160077892D01*
X274593529Y-160011664D01*
X274522822Y-159960832D01*
X274452089Y-159940038D01*
X274356016Y-159958484D01*
X274272849Y-160011811D01*
X274215186Y-160088677D01*
X274195490Y-160171033D01*
X273956714Y-160171033D01*
X273961028Y-160109291D01*
X274003520Y-159952271D01*
X274075635Y-159834069D01*
X274178273Y-159753440D01*
X274312332Y-159709139D01*
X274384957Y-159700607D01*
X274535307Y-159702784D01*
G37*
X274535307Y-159702784D02*
X274654337Y-159733731D01*
X274754021Y-159797600D01*
X274802288Y-159845313D01*
X274881408Y-159958106D01*
X274926752Y-160088950D01*
X274942330Y-160249792D01*
X274942410Y-160262794D01*
X274942549Y-160393530D01*
X274190091Y-160393530D01*
X274206130Y-160462010D01*
X274235091Y-160524031D01*
X274285778Y-160588654D01*
X274296379Y-160598971D01*
X274387494Y-160654805D01*
X274491400Y-160664275D01*
X274611000Y-160627540D01*
X274631274Y-160617647D01*
X274693456Y-160587574D01*
X274735106Y-160570440D01*
X274742373Y-160568855D01*
X274767740Y-160584242D01*
X274816120Y-160621887D01*
X274840679Y-160642459D01*
X274891570Y-160689714D01*
X274908281Y-160720917D01*
X274896683Y-160749620D01*
X274890483Y-160757468D01*
X274848493Y-160791819D01*
X274779206Y-160833565D01*
X274730882Y-160857935D01*
X274593711Y-160900873D01*
X274441847Y-160914786D01*
X274298024Y-160898300D01*
X274257745Y-160886496D01*
X274133078Y-160819689D01*
X274040671Y-160716892D01*
X273979990Y-160577105D01*
X273950498Y-160399330D01*
X273947260Y-160306373D01*
X273956714Y-160171033D01*
X274195490Y-160171033D01*
X274218584Y-160181038D01*
X274280662Y-160188888D01*
X274370914Y-160193521D01*
X274432058Y-160194314D01*
X274542040Y-160193549D01*
X274611457Y-160189970D01*
X274649538Y-160181649D01*
X274665515Y-160166657D01*
X274668627Y-160144903D01*
X274647278Y-160077892D01*
X274593529Y-160011664D01*
X274522822Y-159960832D01*
X274452089Y-159940038D01*
X274356016Y-159958484D01*
X274272849Y-160011811D01*
X274215186Y-160088677D01*
X274195490Y-160171033D01*
X273956714Y-160171033D01*
X273961028Y-160109291D01*
X274003520Y-159952271D01*
X274075635Y-159834069D01*
X274178273Y-159753440D01*
X274312332Y-159709139D01*
X274384957Y-159700607D01*
X274535307Y-159702784D01*
G36*
X265483247Y-157841568D02*
G01*
X265613522Y-157899163D01*
X265712419Y-157995334D01*
X265780082Y-158130229D01*
X265816655Y-158303996D01*
X265819276Y-158331126D01*
X265821330Y-158522408D01*
X265794699Y-158690073D01*
X265741001Y-158825967D01*
X265712247Y-158869681D01*
X265612091Y-158962198D01*
X265484537Y-159022119D01*
X265341837Y-159046985D01*
X265196240Y-159034339D01*
X265085562Y-158995391D01*
X264990384Y-158929755D01*
X264912594Y-158843699D01*
X264911249Y-158841685D01*
X264879657Y-158788570D01*
X264859127Y-158735160D01*
X264846695Y-158667754D01*
X264839397Y-158572653D01*
X264836182Y-158494666D01*
X264834844Y-158423944D01*
X265083814Y-158423944D01*
X265086247Y-158494348D01*
X265095080Y-158588068D01*
X265110664Y-158648214D01*
X265138766Y-158691006D01*
X265165086Y-158716002D01*
X265258392Y-158768338D01*
X265356020Y-158775333D01*
X265446942Y-158737676D01*
X265492402Y-158695479D01*
X265525162Y-158652956D01*
X265544323Y-158612267D01*
X265552733Y-158559314D01*
X265553237Y-158479997D01*
X265550645Y-158406950D01*
X265545071Y-158302601D01*
X265536234Y-158234920D01*
X265520307Y-158190774D01*
X265493462Y-158157031D01*
X265472189Y-158137746D01*
X265383206Y-158087086D01*
X265287211Y-158084560D01*
X265206719Y-158114567D01*
X265138053Y-158177231D01*
X265097144Y-158280168D01*
X265083814Y-158423944D01*
X264834844Y-158423944D01*
X264833246Y-158339582D01*
X264838260Y-158223600D01*
X264853283Y-158136367D01*
X264880376Y-158067530D01*
X264921600Y-158006737D01*
X264936885Y-157988686D01*
X265032454Y-157898746D01*
X265134961Y-157846211D01*
X265260321Y-157824201D01*
X265321450Y-157822402D01*
X265483247Y-157841568D01*
G37*
X265483247Y-157841568D02*
X265613522Y-157899163D01*
X265712419Y-157995334D01*
X265780082Y-158130229D01*
X265816655Y-158303996D01*
X265819276Y-158331126D01*
X265821330Y-158522408D01*
X265794699Y-158690073D01*
X265741001Y-158825967D01*
X265712247Y-158869681D01*
X265612091Y-158962198D01*
X265484537Y-159022119D01*
X265341837Y-159046985D01*
X265196240Y-159034339D01*
X265085562Y-158995391D01*
X264990384Y-158929755D01*
X264912594Y-158843699D01*
X264911249Y-158841685D01*
X264879657Y-158788570D01*
X264859127Y-158735160D01*
X264846695Y-158667754D01*
X264839397Y-158572653D01*
X264836182Y-158494666D01*
X264834844Y-158423944D01*
X265083814Y-158423944D01*
X265086247Y-158494348D01*
X265095080Y-158588068D01*
X265110664Y-158648214D01*
X265138766Y-158691006D01*
X265165086Y-158716002D01*
X265258392Y-158768338D01*
X265356020Y-158775333D01*
X265446942Y-158737676D01*
X265492402Y-158695479D01*
X265525162Y-158652956D01*
X265544323Y-158612267D01*
X265552733Y-158559314D01*
X265553237Y-158479997D01*
X265550645Y-158406950D01*
X265545071Y-158302601D01*
X265536234Y-158234920D01*
X265520307Y-158190774D01*
X265493462Y-158157031D01*
X265472189Y-158137746D01*
X265383206Y-158087086D01*
X265287211Y-158084560D01*
X265206719Y-158114567D01*
X265138053Y-158177231D01*
X265097144Y-158280168D01*
X265083814Y-158423944D01*
X264834844Y-158423944D01*
X264833246Y-158339582D01*
X264838260Y-158223600D01*
X264853283Y-158136367D01*
X264880376Y-158067530D01*
X264921600Y-158006737D01*
X264936885Y-157988686D01*
X265032454Y-157898746D01*
X265134961Y-157846211D01*
X265260321Y-157824201D01*
X265321450Y-157822402D01*
X265483247Y-157841568D01*
G36*
X267823204Y-157856354D02*
G01*
X267848019Y-157868037D01*
X267933906Y-157930951D01*
X268015121Y-158022769D01*
X268075764Y-158123868D01*
X268093012Y-158170349D01*
X268108749Y-158253376D01*
X268118133Y-158353713D01*
X268119272Y-158395147D01*
X268119411Y-158525882D01*
X267366953Y-158525882D01*
X267382993Y-158594363D01*
X267422363Y-158675355D01*
X267491194Y-158745351D01*
X267573081Y-158790441D01*
X267625263Y-158799804D01*
X267696029Y-158788441D01*
X267780460Y-158759943D01*
X267809142Y-158746831D01*
X267915209Y-158693858D01*
X268005728Y-158762901D01*
X268057961Y-158809597D01*
X268085753Y-158848140D01*
X268087160Y-158859452D01*
X268062332Y-158886868D01*
X268007917Y-158928532D01*
X267958528Y-158961037D01*
X267825252Y-159019468D01*
X267675839Y-159045915D01*
X267527751Y-159039039D01*
X267409705Y-159003096D01*
X267288018Y-158926101D01*
X267201540Y-158824728D01*
X267147441Y-158693570D01*
X267122891Y-158527224D01*
X267120714Y-158451108D01*
X267129427Y-158276685D01*
X267130497Y-158271611D01*
X267379827Y-158271611D01*
X267386694Y-158287968D01*
X267414917Y-158296988D01*
X267473127Y-158300854D01*
X267569958Y-158301749D01*
X267607243Y-158301765D01*
X267720683Y-158300413D01*
X267792622Y-158295505D01*
X267831313Y-158285760D01*
X267845005Y-158269899D01*
X267845490Y-158264805D01*
X267829863Y-158224326D01*
X267790753Y-158167621D01*
X267773939Y-158147766D01*
X267711519Y-158091611D01*
X267646453Y-158069532D01*
X267611397Y-158067686D01*
X267516558Y-158090766D01*
X267437027Y-158152759D01*
X267386577Y-158242802D01*
X267385683Y-158245735D01*
X267379827Y-158271611D01*
X267130497Y-158271611D01*
X267158399Y-158139343D01*
X267210590Y-158029461D01*
X267274421Y-157951461D01*
X267392433Y-157866882D01*
X267531158Y-157821686D01*
X267678710Y-157817600D01*
X267823204Y-157856354D01*
G37*
X267823204Y-157856354D02*
X267848019Y-157868037D01*
X267933906Y-157930951D01*
X268015121Y-158022769D01*
X268075764Y-158123868D01*
X268093012Y-158170349D01*
X268108749Y-158253376D01*
X268118133Y-158353713D01*
X268119272Y-158395147D01*
X268119411Y-158525882D01*
X267366953Y-158525882D01*
X267382993Y-158594363D01*
X267422363Y-158675355D01*
X267491194Y-158745351D01*
X267573081Y-158790441D01*
X267625263Y-158799804D01*
X267696029Y-158788441D01*
X267780460Y-158759943D01*
X267809142Y-158746831D01*
X267915209Y-158693858D01*
X268005728Y-158762901D01*
X268057961Y-158809597D01*
X268085753Y-158848140D01*
X268087160Y-158859452D01*
X268062332Y-158886868D01*
X268007917Y-158928532D01*
X267958528Y-158961037D01*
X267825252Y-159019468D01*
X267675839Y-159045915D01*
X267527751Y-159039039D01*
X267409705Y-159003096D01*
X267288018Y-158926101D01*
X267201540Y-158824728D01*
X267147441Y-158693570D01*
X267122891Y-158527224D01*
X267120714Y-158451108D01*
X267129427Y-158276685D01*
X267130497Y-158271611D01*
X267379827Y-158271611D01*
X267386694Y-158287968D01*
X267414917Y-158296988D01*
X267473127Y-158300854D01*
X267569958Y-158301749D01*
X267607243Y-158301765D01*
X267720683Y-158300413D01*
X267792622Y-158295505D01*
X267831313Y-158285760D01*
X267845005Y-158269899D01*
X267845490Y-158264805D01*
X267829863Y-158224326D01*
X267790753Y-158167621D01*
X267773939Y-158147766D01*
X267711519Y-158091611D01*
X267646453Y-158069532D01*
X267611397Y-158067686D01*
X267516558Y-158090766D01*
X267437027Y-158152759D01*
X267386577Y-158242802D01*
X267385683Y-158245735D01*
X267379827Y-158271611D01*
X267130497Y-158271611D01*
X267158399Y-158139343D01*
X267210590Y-158029461D01*
X267274421Y-157951461D01*
X267392433Y-157866882D01*
X267531158Y-157821686D01*
X267678710Y-157817600D01*
X267823204Y-157856354D01*
G36*
X270537759Y-157824345D02*
G01*
X270632059Y-157842229D01*
X270729890Y-157879633D01*
X270740343Y-157884402D01*
X270814531Y-157923412D01*
X270865910Y-157959664D01*
X270882517Y-157982887D01*
X270866702Y-158020761D01*
X270828288Y-158076644D01*
X270811237Y-158097505D01*
X270740969Y-158179618D01*
X270650379Y-158126168D01*
X270564164Y-158090561D01*
X270464549Y-158071529D01*
X270369019Y-158070326D01*
X270295061Y-158088210D01*
X270277312Y-158099373D01*
X270243512Y-158150553D01*
X270239404Y-158209509D01*
X270264696Y-158255567D01*
X270279656Y-158264499D01*
X270324486Y-158275592D01*
X270403286Y-158288630D01*
X270500426Y-158301088D01*
X270518346Y-158303042D01*
X270674365Y-158330030D01*
X270787523Y-158375873D01*
X270862569Y-158444803D01*
X270904253Y-158541054D01*
X270917238Y-158658617D01*
X270899299Y-158792254D01*
X270841050Y-158897195D01*
X270742255Y-158973630D01*
X270602682Y-159021748D01*
X270447745Y-159040732D01*
X270321398Y-159040504D01*
X270218913Y-159023262D01*
X270148921Y-158999457D01*
X270060483Y-158957978D01*
X269978754Y-158909842D01*
X269949705Y-158888655D01*
X269875000Y-158827676D01*
X269965098Y-158736508D01*
X270055196Y-158645339D01*
X270157632Y-158713128D01*
X270260374Y-158764042D01*
X270370087Y-158790673D01*
X270475551Y-158793483D01*
X270565546Y-158772935D01*
X270628854Y-158729493D01*
X270649296Y-158692838D01*
X270646229Y-158634053D01*
X270595434Y-158589099D01*
X270497048Y-158558057D01*
X270389256Y-158543710D01*
X270223365Y-158516337D01*
X270100124Y-158464693D01*
X270017886Y-158387266D01*
X269975001Y-158282544D01*
X269969060Y-158158387D01*
X269998406Y-158028702D01*
X270065309Y-157930677D01*
X270170371Y-157863866D01*
X270314190Y-157827820D01*
X270420738Y-157820754D01*
X270537759Y-157824345D01*
G37*
X270537759Y-157824345D02*
X270632059Y-157842229D01*
X270729890Y-157879633D01*
X270740343Y-157884402D01*
X270814531Y-157923412D01*
X270865910Y-157959664D01*
X270882517Y-157982887D01*
X270866702Y-158020761D01*
X270828288Y-158076644D01*
X270811237Y-158097505D01*
X270740969Y-158179618D01*
X270650379Y-158126168D01*
X270564164Y-158090561D01*
X270464549Y-158071529D01*
X270369019Y-158070326D01*
X270295061Y-158088210D01*
X270277312Y-158099373D01*
X270243512Y-158150553D01*
X270239404Y-158209509D01*
X270264696Y-158255567D01*
X270279656Y-158264499D01*
X270324486Y-158275592D01*
X270403286Y-158288630D01*
X270500426Y-158301088D01*
X270518346Y-158303042D01*
X270674365Y-158330030D01*
X270787523Y-158375873D01*
X270862569Y-158444803D01*
X270904253Y-158541054D01*
X270917238Y-158658617D01*
X270899299Y-158792254D01*
X270841050Y-158897195D01*
X270742255Y-158973630D01*
X270602682Y-159021748D01*
X270447745Y-159040732D01*
X270321398Y-159040504D01*
X270218913Y-159023262D01*
X270148921Y-158999457D01*
X270060483Y-158957978D01*
X269978754Y-158909842D01*
X269949705Y-158888655D01*
X269875000Y-158827676D01*
X269965098Y-158736508D01*
X270055196Y-158645339D01*
X270157632Y-158713128D01*
X270260374Y-158764042D01*
X270370087Y-158790673D01*
X270475551Y-158793483D01*
X270565546Y-158772935D01*
X270628854Y-158729493D01*
X270649296Y-158692838D01*
X270646229Y-158634053D01*
X270595434Y-158589099D01*
X270497048Y-158558057D01*
X270389256Y-158543710D01*
X270223365Y-158516337D01*
X270100124Y-158464693D01*
X270017886Y-158387266D01*
X269975001Y-158282544D01*
X269969060Y-158158387D01*
X269998406Y-158028702D01*
X270065309Y-157930677D01*
X270170371Y-157863866D01*
X270314190Y-157827820D01*
X270420738Y-157820754D01*
X270537759Y-157824345D01*
G36*
X271719547Y-157843364D02*
G01*
X271845502Y-157911959D01*
X271944047Y-158020245D01*
X271990478Y-158108315D01*
X272010412Y-158186101D01*
X272023328Y-158296993D01*
X272028863Y-158424738D01*
X272026654Y-158553084D01*
X272016337Y-158665779D01*
X272004286Y-158725969D01*
X271963634Y-158808311D01*
X271893230Y-158895770D01*
X271808382Y-158972251D01*
X271724397Y-159021655D01*
X271722349Y-159022439D01*
X271618134Y-159044027D01*
X271494627Y-159044562D01*
X271377261Y-159024908D01*
X271331942Y-159009155D01*
X271215220Y-158942966D01*
X271131624Y-158856246D01*
X271076701Y-158741438D01*
X271045995Y-158590982D01*
X271039047Y-158512173D01*
X271039933Y-158413145D01*
X271306862Y-158413145D01*
X271315854Y-158557645D01*
X271341736Y-158667760D01*
X271382868Y-158738116D01*
X271412172Y-158758235D01*
X271487251Y-158772265D01*
X271576494Y-158768111D01*
X271653650Y-158747922D01*
X271673883Y-158736815D01*
X271727265Y-158672123D01*
X271762500Y-158573119D01*
X271777498Y-158452632D01*
X271770172Y-158323494D01*
X271753799Y-158245775D01*
X271706790Y-158155771D01*
X271632582Y-158099509D01*
X271543209Y-158080057D01*
X271450707Y-158100481D01*
X271379653Y-158150437D01*
X271342312Y-158191655D01*
X271320518Y-158232281D01*
X271310130Y-158287264D01*
X271307006Y-158371549D01*
X271306862Y-158413145D01*
X271039933Y-158413145D01*
X271040930Y-158301874D01*
X271075180Y-158129423D01*
X271141802Y-157994814D01*
X271240799Y-157898040D01*
X271372175Y-157839094D01*
X271400385Y-157832259D01*
X271569926Y-157816213D01*
X271719547Y-157843364D01*
G37*
X271719547Y-157843364D02*
X271845502Y-157911959D01*
X271944047Y-158020245D01*
X271990478Y-158108315D01*
X272010412Y-158186101D01*
X272023328Y-158296993D01*
X272028863Y-158424738D01*
X272026654Y-158553084D01*
X272016337Y-158665779D01*
X272004286Y-158725969D01*
X271963634Y-158808311D01*
X271893230Y-158895770D01*
X271808382Y-158972251D01*
X271724397Y-159021655D01*
X271722349Y-159022439D01*
X271618134Y-159044027D01*
X271494627Y-159044562D01*
X271377261Y-159024908D01*
X271331942Y-159009155D01*
X271215220Y-158942966D01*
X271131624Y-158856246D01*
X271076701Y-158741438D01*
X271045995Y-158590982D01*
X271039047Y-158512173D01*
X271039933Y-158413145D01*
X271306862Y-158413145D01*
X271315854Y-158557645D01*
X271341736Y-158667760D01*
X271382868Y-158738116D01*
X271412172Y-158758235D01*
X271487251Y-158772265D01*
X271576494Y-158768111D01*
X271653650Y-158747922D01*
X271673883Y-158736815D01*
X271727265Y-158672123D01*
X271762500Y-158573119D01*
X271777498Y-158452632D01*
X271770172Y-158323494D01*
X271753799Y-158245775D01*
X271706790Y-158155771D01*
X271632582Y-158099509D01*
X271543209Y-158080057D01*
X271450707Y-158100481D01*
X271379653Y-158150437D01*
X271342312Y-158191655D01*
X271320518Y-158232281D01*
X271310130Y-158287264D01*
X271307006Y-158371549D01*
X271306862Y-158413145D01*
X271039933Y-158413145D01*
X271040930Y-158301874D01*
X271075180Y-158129423D01*
X271141802Y-157994814D01*
X271240799Y-157898040D01*
X271372175Y-157839094D01*
X271400385Y-157832259D01*
X271569926Y-157816213D01*
X271719547Y-157843364D01*
G36*
X272477254Y-158216245D02*
G01*
X272479608Y-158398879D01*
X272488207Y-158537600D01*
X272505360Y-158638147D01*
X272533374Y-158706254D01*
X272574557Y-158747659D01*
X272631217Y-158768097D01*
X272701372Y-158773318D01*
X272774848Y-158767468D01*
X272830657Y-158746093D01*
X272871109Y-158703458D01*
X272898509Y-158633825D01*
X272915167Y-158531460D01*
X272923389Y-158390624D01*
X272925490Y-158216245D01*
X272925490Y-157828628D01*
X273199411Y-157828628D01*
X273199411Y-159023922D01*
X273062451Y-159023922D01*
X272979884Y-159020576D01*
X272937368Y-159008826D01*
X272925490Y-158986520D01*
X272918336Y-158966654D01*
X272889865Y-158970857D01*
X272832476Y-158998971D01*
X272700945Y-159042342D01*
X272561438Y-159039270D01*
X272427765Y-158992174D01*
X272364108Y-158954971D01*
X272315553Y-158914691D01*
X272280081Y-158864291D01*
X272255674Y-158796729D01*
X272240313Y-158704965D01*
X272231982Y-158581955D01*
X272228662Y-158420659D01*
X272228235Y-158295928D01*
X272228235Y-157828628D01*
X272477254Y-157828628D01*
X272477254Y-158216245D01*
G37*
X272477254Y-158216245D02*
X272479608Y-158398879D01*
X272488207Y-158537600D01*
X272505360Y-158638147D01*
X272533374Y-158706254D01*
X272574557Y-158747659D01*
X272631217Y-158768097D01*
X272701372Y-158773318D01*
X272774848Y-158767468D01*
X272830657Y-158746093D01*
X272871109Y-158703458D01*
X272898509Y-158633825D01*
X272915167Y-158531460D01*
X272923389Y-158390624D01*
X272925490Y-158216245D01*
X272925490Y-157828628D01*
X273199411Y-157828628D01*
X273199411Y-159023922D01*
X273062451Y-159023922D01*
X272979884Y-159020576D01*
X272937368Y-159008826D01*
X272925490Y-158986520D01*
X272918336Y-158966654D01*
X272889865Y-158970857D01*
X272832476Y-158998971D01*
X272700945Y-159042342D01*
X272561438Y-159039270D01*
X272427765Y-158992174D01*
X272364108Y-158954971D01*
X272315553Y-158914691D01*
X272280081Y-158864291D01*
X272255674Y-158796729D01*
X272240313Y-158704965D01*
X272231982Y-158581955D01*
X272228662Y-158420659D01*
X272228235Y-158295928D01*
X272228235Y-157828628D01*
X272477254Y-157828628D01*
X272477254Y-158216245D01*
G36*
X274900976Y-157839056D02*
G01*
X275045256Y-157900348D01*
X275090699Y-157930185D01*
X275148779Y-157976036D01*
X275185238Y-158012089D01*
X275191568Y-158023832D01*
X275173693Y-158049889D01*
X275127950Y-158094105D01*
X275091328Y-158124965D01*
X274991088Y-158205520D01*
X274911935Y-158138918D01*
X274850769Y-158095921D01*
X274791129Y-158081079D01*
X274722872Y-158084704D01*
X274614482Y-158111652D01*
X274539872Y-158167587D01*
X274494530Y-158258014D01*
X274473947Y-158388435D01*
X274473942Y-158388517D01*
X274475722Y-158534290D01*
X274503387Y-158641245D01*
X274558571Y-158714064D01*
X274596192Y-158738723D01*
X274696105Y-158769431D01*
X274802822Y-158769449D01*
X274895669Y-158739655D01*
X274917647Y-158725098D01*
X274972765Y-158687914D01*
X275015859Y-158681820D01*
X275062335Y-158709496D01*
X275113716Y-158759205D01*
X275195046Y-158843116D01*
X275104749Y-158917546D01*
X274965236Y-159001549D01*
X274807912Y-159042947D01*
X274643503Y-159039950D01*
X274535531Y-159012500D01*
X274409331Y-158944620D01*
X274308401Y-158837831D01*
X274262548Y-158762451D01*
X274225410Y-158654297D01*
X274206827Y-158517318D01*
X274206684Y-158368864D01*
X274224865Y-158226281D01*
X274261255Y-158106918D01*
X274266987Y-158094680D01*
X274351865Y-157974655D01*
X274466782Y-157887267D01*
X274602659Y-157834329D01*
X274750417Y-157817654D01*
X274900976Y-157839056D01*
G37*
X274900976Y-157839056D02*
X275045256Y-157900348D01*
X275090699Y-157930185D01*
X275148779Y-157976036D01*
X275185238Y-158012089D01*
X275191568Y-158023832D01*
X275173693Y-158049889D01*
X275127950Y-158094105D01*
X275091328Y-158124965D01*
X274991088Y-158205520D01*
X274911935Y-158138918D01*
X274850769Y-158095921D01*
X274791129Y-158081079D01*
X274722872Y-158084704D01*
X274614482Y-158111652D01*
X274539872Y-158167587D01*
X274494530Y-158258014D01*
X274473947Y-158388435D01*
X274473942Y-158388517D01*
X274475722Y-158534290D01*
X274503387Y-158641245D01*
X274558571Y-158714064D01*
X274596192Y-158738723D01*
X274696105Y-158769431D01*
X274802822Y-158769449D01*
X274895669Y-158739655D01*
X274917647Y-158725098D01*
X274972765Y-158687914D01*
X275015859Y-158681820D01*
X275062335Y-158709496D01*
X275113716Y-158759205D01*
X275195046Y-158843116D01*
X275104749Y-158917546D01*
X274965236Y-159001549D01*
X274807912Y-159042947D01*
X274643503Y-159039950D01*
X274535531Y-159012500D01*
X274409331Y-158944620D01*
X274308401Y-158837831D01*
X274262548Y-158762451D01*
X274225410Y-158654297D01*
X274206827Y-158517318D01*
X274206684Y-158368864D01*
X274224865Y-158226281D01*
X274261255Y-158106918D01*
X274266987Y-158094680D01*
X274351865Y-157974655D01*
X274466782Y-157887267D01*
X274602659Y-157834329D01*
X274750417Y-157817654D01*
X274900976Y-157839056D01*
G36*
X275813287Y-157824355D02*
G01*
X275877051Y-157839845D01*
X275999300Y-157896569D01*
X276103834Y-157983202D01*
X276176180Y-158087074D01*
X276186119Y-158110396D01*
X276199754Y-158171484D01*
X276209298Y-158261853D01*
X276212549Y-158353190D01*
X276212549Y-158525882D01*
X275851470Y-158525882D01*
X275702546Y-158526445D01*
X275597632Y-158529864D01*
X275530937Y-158538731D01*
X275496666Y-158555641D01*
X275489028Y-158583189D01*
X275502229Y-158623968D01*
X275525877Y-158671683D01*
X275591843Y-158751314D01*
X275683512Y-158790987D01*
X275795555Y-158789695D01*
X275922472Y-158746514D01*
X276032158Y-158693224D01*
X276123173Y-158765191D01*
X276214188Y-158837157D01*
X276128563Y-158916269D01*
X276014250Y-158991017D01*
X275873666Y-159036084D01*
X275722449Y-159048696D01*
X275576236Y-159026079D01*
X275552647Y-159018405D01*
X275424141Y-158951296D01*
X275328551Y-158851247D01*
X275263861Y-158715271D01*
X275228057Y-158540380D01*
X275227640Y-158536632D01*
X275224434Y-158346032D01*
X275237393Y-158278035D01*
X275490392Y-158278035D01*
X275513627Y-158288491D01*
X275576710Y-158296500D01*
X275669706Y-158301073D01*
X275728638Y-158301765D01*
X275838537Y-158301332D01*
X275907252Y-158298578D01*
X275943405Y-158291321D01*
X275955615Y-158277376D01*
X275952504Y-158254562D01*
X275949894Y-158245735D01*
X275905344Y-158162800D01*
X275835279Y-158095960D01*
X275773446Y-158066589D01*
X275691301Y-158068362D01*
X275608062Y-158104990D01*
X275538238Y-158165634D01*
X275496337Y-158239456D01*
X275490392Y-158278035D01*
X275237393Y-158278035D01*
X275256385Y-158178395D01*
X275319773Y-158037711D01*
X275410878Y-157927974D01*
X275525978Y-157853174D01*
X275661355Y-157817304D01*
X275813287Y-157824355D01*
G37*
X275813287Y-157824355D02*
X275877051Y-157839845D01*
X275999300Y-157896569D01*
X276103834Y-157983202D01*
X276176180Y-158087074D01*
X276186119Y-158110396D01*
X276199754Y-158171484D01*
X276209298Y-158261853D01*
X276212549Y-158353190D01*
X276212549Y-158525882D01*
X275851470Y-158525882D01*
X275702546Y-158526445D01*
X275597632Y-158529864D01*
X275530937Y-158538731D01*
X275496666Y-158555641D01*
X275489028Y-158583189D01*
X275502229Y-158623968D01*
X275525877Y-158671683D01*
X275591843Y-158751314D01*
X275683512Y-158790987D01*
X275795555Y-158789695D01*
X275922472Y-158746514D01*
X276032158Y-158693224D01*
X276123173Y-158765191D01*
X276214188Y-158837157D01*
X276128563Y-158916269D01*
X276014250Y-158991017D01*
X275873666Y-159036084D01*
X275722449Y-159048696D01*
X275576236Y-159026079D01*
X275552647Y-159018405D01*
X275424141Y-158951296D01*
X275328551Y-158851247D01*
X275263861Y-158715271D01*
X275228057Y-158540380D01*
X275227640Y-158536632D01*
X275224434Y-158346032D01*
X275237393Y-158278035D01*
X275490392Y-158278035D01*
X275513627Y-158288491D01*
X275576710Y-158296500D01*
X275669706Y-158301073D01*
X275728638Y-158301765D01*
X275838537Y-158301332D01*
X275907252Y-158298578D01*
X275943405Y-158291321D01*
X275955615Y-158277376D01*
X275952504Y-158254562D01*
X275949894Y-158245735D01*
X275905344Y-158162800D01*
X275835279Y-158095960D01*
X275773446Y-158066589D01*
X275691301Y-158068362D01*
X275608062Y-158104990D01*
X275538238Y-158165634D01*
X275496337Y-158239456D01*
X275490392Y-158278035D01*
X275237393Y-158278035D01*
X275256385Y-158178395D01*
X275319773Y-158037711D01*
X275410878Y-157927974D01*
X275525978Y-157853174D01*
X275661355Y-157817304D01*
X275813287Y-157824355D01*
G36*
X269016760Y-157849199D02*
G01*
X269078736Y-157878802D01*
X269138759Y-157921561D01*
X269184486Y-157970775D01*
X269217793Y-158033544D01*
X269240555Y-158116971D01*
X269254647Y-158228159D01*
X269261942Y-158374209D01*
X269264318Y-158562223D01*
X269264355Y-158581912D01*
X269264902Y-159023922D01*
X268990980Y-159023922D01*
X268990980Y-158616435D01*
X268990785Y-158465471D01*
X268989436Y-158356056D01*
X268985788Y-158279933D01*
X268978696Y-158228848D01*
X268967013Y-158194545D01*
X268949594Y-158168768D01*
X268925329Y-158143298D01*
X268840435Y-158088571D01*
X268747761Y-158078416D01*
X268659473Y-158113017D01*
X268628770Y-158138770D01*
X268606229Y-158162982D01*
X268590046Y-158188912D01*
X268579168Y-158224708D01*
X268572542Y-158278519D01*
X268569115Y-158358493D01*
X268567834Y-158472779D01*
X268567647Y-158611907D01*
X268567647Y-159023922D01*
X268293725Y-159023922D01*
X268293725Y-157828628D01*
X268430686Y-157828628D01*
X268512916Y-157831879D01*
X268555340Y-157843426D01*
X268567641Y-157865952D01*
X268567647Y-157866620D01*
X268573354Y-157888681D01*
X268598527Y-157886177D01*
X268648578Y-157861937D01*
X268762094Y-157826271D01*
X268891945Y-157822305D01*
X269016760Y-157849199D01*
G37*
X269016760Y-157849199D02*
X269078736Y-157878802D01*
X269138759Y-157921561D01*
X269184486Y-157970775D01*
X269217793Y-158033544D01*
X269240555Y-158116971D01*
X269254647Y-158228159D01*
X269261942Y-158374209D01*
X269264318Y-158562223D01*
X269264355Y-158581912D01*
X269264902Y-159023922D01*
X268990980Y-159023922D01*
X268990980Y-158616435D01*
X268990785Y-158465471D01*
X268989436Y-158356056D01*
X268985788Y-158279933D01*
X268978696Y-158228848D01*
X268967013Y-158194545D01*
X268949594Y-158168768D01*
X268925329Y-158143298D01*
X268840435Y-158088571D01*
X268747761Y-158078416D01*
X268659473Y-158113017D01*
X268628770Y-158138770D01*
X268606229Y-158162982D01*
X268590046Y-158188912D01*
X268579168Y-158224708D01*
X268572542Y-158278519D01*
X268569115Y-158358493D01*
X268567834Y-158472779D01*
X268567647Y-158611907D01*
X268567647Y-159023922D01*
X268293725Y-159023922D01*
X268293725Y-157828628D01*
X268430686Y-157828628D01*
X268512916Y-157831879D01*
X268555340Y-157843426D01*
X268567641Y-157865952D01*
X268567647Y-157866620D01*
X268573354Y-157888681D01*
X268598527Y-157886177D01*
X268648578Y-157861937D01*
X268762094Y-157826271D01*
X268891945Y-157822305D01*
X269016760Y-157849199D01*
G36*
X274073637Y-157827472D02*
G01*
X274159290Y-157853641D01*
X274214437Y-157886707D01*
X274232401Y-157912855D01*
X274227457Y-157943852D01*
X274195372Y-157992547D01*
X274168243Y-158027035D01*
X274112317Y-158089383D01*
X274070299Y-158115615D01*
X274034480Y-158113903D01*
X273928224Y-158086863D01*
X273850189Y-158088091D01*
X273786820Y-158118735D01*
X273765546Y-158136670D01*
X273697451Y-158199779D01*
X273697451Y-159023922D01*
X273423529Y-159023922D01*
X273423529Y-157828628D01*
X273560490Y-157828628D01*
X273642719Y-157831879D01*
X273685144Y-157843426D01*
X273697445Y-157865952D01*
X273697451Y-157866620D01*
X273703260Y-157890215D01*
X273729531Y-157887138D01*
X273765931Y-157870115D01*
X273841111Y-157838439D01*
X273902158Y-157819381D01*
X273980708Y-157814496D01*
X274073637Y-157827472D01*
G37*
X274073637Y-157827472D02*
X274159290Y-157853641D01*
X274214437Y-157886707D01*
X274232401Y-157912855D01*
X274227457Y-157943852D01*
X274195372Y-157992547D01*
X274168243Y-158027035D01*
X274112317Y-158089383D01*
X274070299Y-158115615D01*
X274034480Y-158113903D01*
X273928224Y-158086863D01*
X273850189Y-158088091D01*
X273786820Y-158118735D01*
X273765546Y-158136670D01*
X273697451Y-158199779D01*
X273697451Y-159023922D01*
X273423529Y-159023922D01*
X273423529Y-157828628D01*
X273560490Y-157828628D01*
X273642719Y-157831879D01*
X273685144Y-157843426D01*
X273697445Y-157865952D01*
X273697451Y-157866620D01*
X273703260Y-157890215D01*
X273729531Y-157887138D01*
X273765931Y-157870115D01*
X273841111Y-157838439D01*
X273902158Y-157819381D01*
X273980708Y-157814496D01*
X274073637Y-157827472D01*
G36*
X271256535Y-149573172D02*
G01*
X271369117Y-150170363D01*
X271784531Y-150341610D01*
X272199944Y-150512857D01*
X272698302Y-150173978D01*
X272837868Y-150079622D01*
X272964028Y-149995375D01*
X273070895Y-149925083D01*
X273152582Y-149872592D01*
X273203201Y-149841749D01*
X273216986Y-149835098D01*
X273241820Y-149852203D01*
X273294888Y-149899489D01*
X273370240Y-149970917D01*
X273461929Y-150060445D01*
X273564007Y-150162034D01*
X273670526Y-150269643D01*
X273775536Y-150377232D01*
X273873091Y-150478760D01*
X273957242Y-150568186D01*
X274022040Y-150639471D01*
X274061538Y-150686573D01*
X274070980Y-150702337D01*
X274057391Y-150731398D01*
X274019293Y-150795066D01*
X273960694Y-150887112D01*
X273885597Y-151001309D01*
X273798009Y-151131429D01*
X273747254Y-151205646D01*
X273654745Y-151341167D01*
X273572540Y-151463461D01*
X273504630Y-151566440D01*
X273455000Y-151644018D01*
X273427640Y-151690106D01*
X273423529Y-151699792D01*
X273432849Y-151727319D01*
X273458254Y-151791473D01*
X273495911Y-151883235D01*
X273541986Y-151993584D01*
X273592646Y-152113500D01*
X273644059Y-152233964D01*
X273692389Y-152345954D01*
X273733806Y-152440452D01*
X273764474Y-152508437D01*
X273780562Y-152540888D01*
X273781511Y-152542165D01*
X273806772Y-152548362D01*
X273874046Y-152562185D01*
X273976360Y-152582277D01*
X274106741Y-152607279D01*
X274258216Y-152635831D01*
X274346594Y-152652296D01*
X274508452Y-152683114D01*
X274654649Y-152712439D01*
X274777787Y-152738666D01*
X274870469Y-152760191D01*
X274925301Y-152775410D01*
X274936323Y-152780238D01*
X274947119Y-152812919D01*
X274955829Y-152886730D01*
X274962460Y-152993037D01*
X274967018Y-153123212D01*
X274969509Y-153268621D01*
X274969938Y-153420635D01*
X274968311Y-153570622D01*
X274964635Y-153709951D01*
X274958915Y-153829990D01*
X274951158Y-153922110D01*
X274941368Y-153977677D01*
X274935496Y-153989245D01*
X274900399Y-154003110D01*
X274826028Y-154022933D01*
X274722223Y-154046384D01*
X274598819Y-154071136D01*
X274555741Y-154079143D01*
X274348047Y-154117186D01*
X274183984Y-154147824D01*
X274058130Y-154172274D01*
X273965065Y-154191754D01*
X273899367Y-154207481D01*
X273855617Y-154220673D01*
X273828392Y-154232549D01*
X273812272Y-154244325D01*
X273810017Y-154246653D01*
X273787503Y-154284145D01*
X273753158Y-154357110D01*
X273710411Y-154456612D01*
X273662692Y-154573718D01*
X273613430Y-154699493D01*
X273566055Y-154825002D01*
X273523995Y-154941310D01*
X273490680Y-155039484D01*
X273469541Y-155110588D01*
X273464005Y-155145687D01*
X273464466Y-155146917D01*
X273483223Y-155175606D01*
X273525776Y-155238730D01*
X273587653Y-155329718D01*
X273664382Y-155442000D01*
X273751491Y-155569005D01*
X273776299Y-155605098D01*
X273864753Y-155735948D01*
X273942588Y-155855336D01*
X274005566Y-155956407D01*
X274049445Y-156032304D01*
X274069985Y-156076172D01*
X274070980Y-156081562D01*
X274053722Y-156109889D01*
X274006036Y-156166006D01*
X273934050Y-156243882D01*
X273843897Y-156337485D01*
X273741705Y-156440786D01*
X273633606Y-156547751D01*
X273525728Y-156652351D01*
X273424204Y-156748554D01*
X273335162Y-156830329D01*
X273264733Y-156891645D01*
X273219047Y-156926471D01*
X273206409Y-156932157D01*
X273176991Y-156918765D01*
X273116761Y-156882644D01*
X273035530Y-156829881D01*
X272973030Y-156787412D01*
X272859785Y-156709485D01*
X272725674Y-156617729D01*
X272591155Y-156526120D01*
X272518833Y-156477091D01*
X272274038Y-156311515D01*
X272068551Y-156422620D01*
X271974936Y-156471293D01*
X271895330Y-156509126D01*
X271841467Y-156530703D01*
X271827757Y-156533706D01*
X271811270Y-156511538D01*
X271778745Y-156448894D01*
X271732609Y-156351554D01*
X271675290Y-156225294D01*
X271609216Y-156075895D01*
X271536815Y-155909133D01*
X271460516Y-155730787D01*
X271382746Y-155546636D01*
X271305934Y-155362457D01*
X271232506Y-155184030D01*
X271164892Y-155017132D01*
X271105520Y-154867542D01*
X271056816Y-154741038D01*
X271021210Y-154643399D01*
X271001130Y-154580402D01*
X270997900Y-154558766D01*
X271023496Y-154531169D01*
X271079539Y-154486370D01*
X271154311Y-154433679D01*
X271160587Y-154429510D01*
X271353845Y-154274814D01*
X271509674Y-154094336D01*
X271626724Y-153893847D01*
X271703645Y-153679119D01*
X271739086Y-153455922D01*
X271731697Y-153230026D01*
X271680127Y-153007204D01*
X271583026Y-152793224D01*
X271554458Y-152746409D01*
X271405868Y-152557363D01*
X271230327Y-152405557D01*
X271033910Y-152291779D01*
X270822693Y-152216820D01*
X270602753Y-152181467D01*
X270380163Y-152186512D01*
X270161001Y-152232744D01*
X269951342Y-152320951D01*
X269757261Y-152451924D01*
X269697226Y-152505082D01*
X269544435Y-152671484D01*
X269433097Y-152846657D01*
X269356723Y-153043011D01*
X269314187Y-153237462D01*
X269303686Y-153456087D01*
X269338701Y-153675797D01*
X269415673Y-153889165D01*
X269531047Y-154088767D01*
X269681266Y-154267174D01*
X269862773Y-154416962D01*
X269886627Y-154432751D01*
X269962201Y-154484457D01*
X270019651Y-154529257D01*
X270047117Y-154557862D01*
X270047517Y-154558766D01*
X270041620Y-154589709D01*
X270018245Y-154659936D01*
X269979821Y-154763670D01*
X269928777Y-154895135D01*
X269867542Y-155048552D01*
X269798544Y-155218146D01*
X269724214Y-155398138D01*
X269646978Y-155582753D01*
X269569268Y-155766213D01*
X269493511Y-155942741D01*
X269422137Y-156106559D01*
X269357574Y-156251892D01*
X269302252Y-156372962D01*
X269258600Y-156463992D01*
X269229046Y-156519205D01*
X269217144Y-156533706D01*
X269180777Y-156522414D01*
X269112730Y-156492130D01*
X269024737Y-156448265D01*
X268976351Y-156422620D01*
X268770863Y-156311515D01*
X268526068Y-156477091D01*
X268401106Y-156561915D01*
X268264295Y-156655261D01*
X268136089Y-156743153D01*
X268071871Y-156787412D01*
X267981551Y-156848063D01*
X267905071Y-156896126D01*
X267852407Y-156925515D01*
X267835302Y-156931727D01*
X267810405Y-156914968D01*
X267755305Y-156868181D01*
X267675343Y-156796225D01*
X267575861Y-156703957D01*
X267462200Y-156596235D01*
X267390315Y-156527071D01*
X267264551Y-156403502D01*
X267155863Y-156292979D01*
X267068645Y-156200230D01*
X267007289Y-156129982D01*
X266976191Y-156086965D01*
X266973208Y-156078235D01*
X266987053Y-156045029D01*
X267025312Y-155977887D01*
X267083742Y-155883608D01*
X267158097Y-155768990D01*
X267244135Y-155640828D01*
X267268603Y-155605098D01*
X267357755Y-155475234D01*
X267437738Y-155358314D01*
X267504080Y-155260907D01*
X267552311Y-155189584D01*
X267577957Y-155150915D01*
X267580435Y-155146917D01*
X267576729Y-155116100D01*
X267557061Y-155048344D01*
X267524860Y-154952584D01*
X267483555Y-154837754D01*
X267436575Y-154712789D01*
X267387349Y-154586624D01*
X267339308Y-154468193D01*
X267295881Y-154366430D01*
X267260496Y-154290271D01*
X267236584Y-154248649D01*
X267234884Y-154246653D01*
X267220262Y-154234758D01*
X267195565Y-154222995D01*
X267155372Y-154210146D01*
X267094263Y-154194994D01*
X267006817Y-154176321D01*
X266887612Y-154152910D01*
X266731227Y-154123542D01*
X266532243Y-154087000D01*
X266489160Y-154079143D01*
X266361471Y-154054472D01*
X266250153Y-154030338D01*
X266165045Y-154009069D01*
X266115983Y-153992993D01*
X266109405Y-153989245D01*
X266098564Y-153956018D01*
X266089753Y-153881766D01*
X266082976Y-153775121D01*
X266078240Y-153644712D01*
X266075550Y-153499172D01*
X266074913Y-153347131D01*
X266076334Y-153197221D01*
X266079820Y-153058073D01*
X266085376Y-152938317D01*
X266093008Y-152846586D01*
X266102722Y-152791511D01*
X266108578Y-152780238D01*
X266141180Y-152768868D01*
X266215418Y-152750369D01*
X266323896Y-152726347D01*
X266459217Y-152698407D01*
X266613985Y-152668153D01*
X266698308Y-152652296D01*
X266858296Y-152622389D01*
X267000967Y-152595295D01*
X267119348Y-152572376D01*
X267206465Y-152554988D01*
X267255345Y-152544492D01*
X267263390Y-152542165D01*
X267276987Y-152515931D01*
X267305729Y-152452740D01*
X267345785Y-152361622D01*
X267393324Y-152251602D01*
X267444515Y-152131710D01*
X267495526Y-152010972D01*
X267542526Y-151898416D01*
X267581684Y-151803071D01*
X267609169Y-151733962D01*
X267621149Y-151700119D01*
X267621372Y-151698640D01*
X267607791Y-151671942D01*
X267569715Y-151610505D01*
X267511147Y-151520434D01*
X267436088Y-151407835D01*
X267348540Y-151278815D01*
X267297647Y-151204706D01*
X267204909Y-151068822D01*
X267122541Y-150945454D01*
X267054561Y-150840842D01*
X267004988Y-150761228D01*
X266977842Y-150712852D01*
X266973921Y-150702007D01*
X266990775Y-150676765D01*
X267037368Y-150622869D01*
X267107749Y-150546358D01*
X267195965Y-150453268D01*
X267296065Y-150349640D01*
X267402098Y-150241509D01*
X267508111Y-150134915D01*
X267608152Y-150035895D01*
X267696270Y-149950487D01*
X267766513Y-149884730D01*
X267812928Y-149844661D01*
X267828456Y-149835098D01*
X267853739Y-149848545D01*
X267914211Y-149886320D01*
X268003992Y-149944580D01*
X268117203Y-150019479D01*
X268247964Y-150107170D01*
X268346600Y-150173978D01*
X268844957Y-150512857D01*
X269260371Y-150341610D01*
X269675784Y-150170363D01*
X269788366Y-149573172D01*
X269900949Y-148975980D01*
X271143952Y-148975980D01*
X271256535Y-149573172D01*
G37*
X271256535Y-149573172D02*
X271369117Y-150170363D01*
X271784531Y-150341610D01*
X272199944Y-150512857D01*
X272698302Y-150173978D01*
X272837868Y-150079622D01*
X272964028Y-149995375D01*
X273070895Y-149925083D01*
X273152582Y-149872592D01*
X273203201Y-149841749D01*
X273216986Y-149835098D01*
X273241820Y-149852203D01*
X273294888Y-149899489D01*
X273370240Y-149970917D01*
X273461929Y-150060445D01*
X273564007Y-150162034D01*
X273670526Y-150269643D01*
X273775536Y-150377232D01*
X273873091Y-150478760D01*
X273957242Y-150568186D01*
X274022040Y-150639471D01*
X274061538Y-150686573D01*
X274070980Y-150702337D01*
X274057391Y-150731398D01*
X274019293Y-150795066D01*
X273960694Y-150887112D01*
X273885597Y-151001309D01*
X273798009Y-151131429D01*
X273747254Y-151205646D01*
X273654745Y-151341167D01*
X273572540Y-151463461D01*
X273504630Y-151566440D01*
X273455000Y-151644018D01*
X273427640Y-151690106D01*
X273423529Y-151699792D01*
X273432849Y-151727319D01*
X273458254Y-151791473D01*
X273495911Y-151883235D01*
X273541986Y-151993584D01*
X273592646Y-152113500D01*
X273644059Y-152233964D01*
X273692389Y-152345954D01*
X273733806Y-152440452D01*
X273764474Y-152508437D01*
X273780562Y-152540888D01*
X273781511Y-152542165D01*
X273806772Y-152548362D01*
X273874046Y-152562185D01*
X273976360Y-152582277D01*
X274106741Y-152607279D01*
X274258216Y-152635831D01*
X274346594Y-152652296D01*
X274508452Y-152683114D01*
X274654649Y-152712439D01*
X274777787Y-152738666D01*
X274870469Y-152760191D01*
X274925301Y-152775410D01*
X274936323Y-152780238D01*
X274947119Y-152812919D01*
X274955829Y-152886730D01*
X274962460Y-152993037D01*
X274967018Y-153123212D01*
X274969509Y-153268621D01*
X274969938Y-153420635D01*
X274968311Y-153570622D01*
X274964635Y-153709951D01*
X274958915Y-153829990D01*
X274951158Y-153922110D01*
X274941368Y-153977677D01*
X274935496Y-153989245D01*
X274900399Y-154003110D01*
X274826028Y-154022933D01*
X274722223Y-154046384D01*
X274598819Y-154071136D01*
X274555741Y-154079143D01*
X274348047Y-154117186D01*
X274183984Y-154147824D01*
X274058130Y-154172274D01*
X273965065Y-154191754D01*
X273899367Y-154207481D01*
X273855617Y-154220673D01*
X273828392Y-154232549D01*
X273812272Y-154244325D01*
X273810017Y-154246653D01*
X273787503Y-154284145D01*
X273753158Y-154357110D01*
X273710411Y-154456612D01*
X273662692Y-154573718D01*
X273613430Y-154699493D01*
X273566055Y-154825002D01*
X273523995Y-154941310D01*
X273490680Y-155039484D01*
X273469541Y-155110588D01*
X273464005Y-155145687D01*
X273464466Y-155146917D01*
X273483223Y-155175606D01*
X273525776Y-155238730D01*
X273587653Y-155329718D01*
X273664382Y-155442000D01*
X273751491Y-155569005D01*
X273776299Y-155605098D01*
X273864753Y-155735948D01*
X273942588Y-155855336D01*
X274005566Y-155956407D01*
X274049445Y-156032304D01*
X274069985Y-156076172D01*
X274070980Y-156081562D01*
X274053722Y-156109889D01*
X274006036Y-156166006D01*
X273934050Y-156243882D01*
X273843897Y-156337485D01*
X273741705Y-156440786D01*
X273633606Y-156547751D01*
X273525728Y-156652351D01*
X273424204Y-156748554D01*
X273335162Y-156830329D01*
X273264733Y-156891645D01*
X273219047Y-156926471D01*
X273206409Y-156932157D01*
X273176991Y-156918765D01*
X273116761Y-156882644D01*
X273035530Y-156829881D01*
X272973030Y-156787412D01*
X272859785Y-156709485D01*
X272725674Y-156617729D01*
X272591155Y-156526120D01*
X272518833Y-156477091D01*
X272274038Y-156311515D01*
X272068551Y-156422620D01*
X271974936Y-156471293D01*
X271895330Y-156509126D01*
X271841467Y-156530703D01*
X271827757Y-156533706D01*
X271811270Y-156511538D01*
X271778745Y-156448894D01*
X271732609Y-156351554D01*
X271675290Y-156225294D01*
X271609216Y-156075895D01*
X271536815Y-155909133D01*
X271460516Y-155730787D01*
X271382746Y-155546636D01*
X271305934Y-155362457D01*
X271232506Y-155184030D01*
X271164892Y-155017132D01*
X271105520Y-154867542D01*
X271056816Y-154741038D01*
X271021210Y-154643399D01*
X271001130Y-154580402D01*
X270997900Y-154558766D01*
X271023496Y-154531169D01*
X271079539Y-154486370D01*
X271154311Y-154433679D01*
X271160587Y-154429510D01*
X271353845Y-154274814D01*
X271509674Y-154094336D01*
X271626724Y-153893847D01*
X271703645Y-153679119D01*
X271739086Y-153455922D01*
X271731697Y-153230026D01*
X271680127Y-153007204D01*
X271583026Y-152793224D01*
X271554458Y-152746409D01*
X271405868Y-152557363D01*
X271230327Y-152405557D01*
X271033910Y-152291779D01*
X270822693Y-152216820D01*
X270602753Y-152181467D01*
X270380163Y-152186512D01*
X270161001Y-152232744D01*
X269951342Y-152320951D01*
X269757261Y-152451924D01*
X269697226Y-152505082D01*
X269544435Y-152671484D01*
X269433097Y-152846657D01*
X269356723Y-153043011D01*
X269314187Y-153237462D01*
X269303686Y-153456087D01*
X269338701Y-153675797D01*
X269415673Y-153889165D01*
X269531047Y-154088767D01*
X269681266Y-154267174D01*
X269862773Y-154416962D01*
X269886627Y-154432751D01*
X269962201Y-154484457D01*
X270019651Y-154529257D01*
X270047117Y-154557862D01*
X270047517Y-154558766D01*
X270041620Y-154589709D01*
X270018245Y-154659936D01*
X269979821Y-154763670D01*
X269928777Y-154895135D01*
X269867542Y-155048552D01*
X269798544Y-155218146D01*
X269724214Y-155398138D01*
X269646978Y-155582753D01*
X269569268Y-155766213D01*
X269493511Y-155942741D01*
X269422137Y-156106559D01*
X269357574Y-156251892D01*
X269302252Y-156372962D01*
X269258600Y-156463992D01*
X269229046Y-156519205D01*
X269217144Y-156533706D01*
X269180777Y-156522414D01*
X269112730Y-156492130D01*
X269024737Y-156448265D01*
X268976351Y-156422620D01*
X268770863Y-156311515D01*
X268526068Y-156477091D01*
X268401106Y-156561915D01*
X268264295Y-156655261D01*
X268136089Y-156743153D01*
X268071871Y-156787412D01*
X267981551Y-156848063D01*
X267905071Y-156896126D01*
X267852407Y-156925515D01*
X267835302Y-156931727D01*
X267810405Y-156914968D01*
X267755305Y-156868181D01*
X267675343Y-156796225D01*
X267575861Y-156703957D01*
X267462200Y-156596235D01*
X267390315Y-156527071D01*
X267264551Y-156403502D01*
X267155863Y-156292979D01*
X267068645Y-156200230D01*
X267007289Y-156129982D01*
X266976191Y-156086965D01*
X266973208Y-156078235D01*
X266987053Y-156045029D01*
X267025312Y-155977887D01*
X267083742Y-155883608D01*
X267158097Y-155768990D01*
X267244135Y-155640828D01*
X267268603Y-155605098D01*
X267357755Y-155475234D01*
X267437738Y-155358314D01*
X267504080Y-155260907D01*
X267552311Y-155189584D01*
X267577957Y-155150915D01*
X267580435Y-155146917D01*
X267576729Y-155116100D01*
X267557061Y-155048344D01*
X267524860Y-154952584D01*
X267483555Y-154837754D01*
X267436575Y-154712789D01*
X267387349Y-154586624D01*
X267339308Y-154468193D01*
X267295881Y-154366430D01*
X267260496Y-154290271D01*
X267236584Y-154248649D01*
X267234884Y-154246653D01*
X267220262Y-154234758D01*
X267195565Y-154222995D01*
X267155372Y-154210146D01*
X267094263Y-154194994D01*
X267006817Y-154176321D01*
X266887612Y-154152910D01*
X266731227Y-154123542D01*
X266532243Y-154087000D01*
X266489160Y-154079143D01*
X266361471Y-154054472D01*
X266250153Y-154030338D01*
X266165045Y-154009069D01*
X266115983Y-153992993D01*
X266109405Y-153989245D01*
X266098564Y-153956018D01*
X266089753Y-153881766D01*
X266082976Y-153775121D01*
X266078240Y-153644712D01*
X266075550Y-153499172D01*
X266074913Y-153347131D01*
X266076334Y-153197221D01*
X266079820Y-153058073D01*
X266085376Y-152938317D01*
X266093008Y-152846586D01*
X266102722Y-152791511D01*
X266108578Y-152780238D01*
X266141180Y-152768868D01*
X266215418Y-152750369D01*
X266323896Y-152726347D01*
X266459217Y-152698407D01*
X266613985Y-152668153D01*
X266698308Y-152652296D01*
X266858296Y-152622389D01*
X267000967Y-152595295D01*
X267119348Y-152572376D01*
X267206465Y-152554988D01*
X267255345Y-152544492D01*
X267263390Y-152542165D01*
X267276987Y-152515931D01*
X267305729Y-152452740D01*
X267345785Y-152361622D01*
X267393324Y-152251602D01*
X267444515Y-152131710D01*
X267495526Y-152010972D01*
X267542526Y-151898416D01*
X267581684Y-151803071D01*
X267609169Y-151733962D01*
X267621149Y-151700119D01*
X267621372Y-151698640D01*
X267607791Y-151671942D01*
X267569715Y-151610505D01*
X267511147Y-151520434D01*
X267436088Y-151407835D01*
X267348540Y-151278815D01*
X267297647Y-151204706D01*
X267204909Y-151068822D01*
X267122541Y-150945454D01*
X267054561Y-150840842D01*
X267004988Y-150761228D01*
X266977842Y-150712852D01*
X266973921Y-150702007D01*
X266990775Y-150676765D01*
X267037368Y-150622869D01*
X267107749Y-150546358D01*
X267195965Y-150453268D01*
X267296065Y-150349640D01*
X267402098Y-150241509D01*
X267508111Y-150134915D01*
X267608152Y-150035895D01*
X267696270Y-149950487D01*
X267766513Y-149884730D01*
X267812928Y-149844661D01*
X267828456Y-149835098D01*
X267853739Y-149848545D01*
X267914211Y-149886320D01*
X268003992Y-149944580D01*
X268117203Y-150019479D01*
X268247964Y-150107170D01*
X268346600Y-150173978D01*
X268844957Y-150512857D01*
X269260371Y-150341610D01*
X269675784Y-150170363D01*
X269788366Y-149573172D01*
X269900949Y-148975980D01*
X271143952Y-148975980D01*
X271256535Y-149573172D01*
G36*
X20069911Y-18251660D02*
G01*
X20419460Y-18251707D01*
X20582170Y-18251714D01*
X23186571Y-18251715D01*
X23186571Y-18405238D01*
X23202957Y-18592063D01*
X23252412Y-18764367D01*
X23335380Y-18923175D01*
X23452305Y-19069510D01*
X23491864Y-19109032D01*
X23634170Y-19221138D01*
X23791078Y-19302899D01*
X23957928Y-19354353D01*
X24130061Y-19375537D01*
X24302815Y-19366487D01*
X24471530Y-19327242D01*
X24631546Y-19257838D01*
X24778202Y-19158311D01*
X24844068Y-19098265D01*
X24966808Y-18951043D01*
X25056812Y-18789147D01*
X25113294Y-18614427D01*
X25135471Y-18428735D01*
X25135766Y-18410467D01*
X25136928Y-18251720D01*
X25206700Y-18251717D01*
X25268595Y-18260118D01*
X25325135Y-18280556D01*
X25328872Y-18282667D01*
X25341642Y-18289293D01*
X25353368Y-18294454D01*
X25364094Y-18299651D01*
X25373861Y-18306390D01*
X25382712Y-18316171D01*
X25390689Y-18330500D01*
X25397835Y-18350878D01*
X25404192Y-18378808D01*
X25409802Y-18415795D01*
X25414707Y-18463340D01*
X25418951Y-18522947D01*
X25422576Y-18596119D01*
X25425623Y-18684359D01*
X25428136Y-18789170D01*
X25430156Y-18912055D01*
X25431726Y-19054517D01*
X25432888Y-19218060D01*
X25433686Y-19404186D01*
X25434160Y-19614398D01*
X25434354Y-19850200D01*
X25434310Y-20113094D01*
X25434070Y-20404584D01*
X25433677Y-20726172D01*
X25433173Y-21079362D01*
X25432600Y-21465657D01*
X25432001Y-21886560D01*
X25431932Y-21937840D01*
X25431395Y-22361426D01*
X25430939Y-22750230D01*
X25430516Y-23105753D01*
X25430079Y-23429498D01*
X25429578Y-23722966D01*
X25428965Y-23987661D01*
X25428192Y-24225085D01*
X25427211Y-24436740D01*
X25425974Y-24624129D01*
X25424432Y-24788754D01*
X25422537Y-24932117D01*
X25420241Y-25055720D01*
X25417496Y-25161067D01*
X25414253Y-25249659D01*
X25410464Y-25323000D01*
X25406081Y-25382590D01*
X25401055Y-25429933D01*
X25395339Y-25466531D01*
X25388884Y-25493886D01*
X25381641Y-25513502D01*
X25373563Y-25526879D01*
X25364602Y-25535521D01*
X25354708Y-25540930D01*
X25343835Y-25544608D01*
X25331933Y-25548058D01*
X25318954Y-25552782D01*
X25315783Y-25554220D01*
X25305819Y-25557451D01*
X25289141Y-25560420D01*
X25264293Y-25563137D01*
X25229820Y-25565613D01*
X25184264Y-25567858D01*
X25126170Y-25569883D01*
X25054081Y-25571698D01*
X24966542Y-25573315D01*
X24862095Y-25574743D01*
X24739285Y-25575993D01*
X24596655Y-25577076D01*
X24432749Y-25578002D01*
X24246110Y-25578782D01*
X24035284Y-25579426D01*
X23798812Y-25579946D01*
X23535239Y-25580351D01*
X23243110Y-25580652D01*
X22920966Y-25580860D01*
X22567353Y-25580985D01*
X22180814Y-25581038D01*
X21759892Y-25581029D01*
X21623544Y-25581016D01*
X21193284Y-25580947D01*
X20797836Y-25580834D01*
X20435727Y-25580665D01*
X20105483Y-25580430D01*
X19805629Y-25580116D01*
X19534692Y-25579713D01*
X19291200Y-25579207D01*
X19073677Y-25578589D01*
X18880650Y-25577846D01*
X18710646Y-25576968D01*
X18562190Y-25575941D01*
X18433810Y-25574756D01*
X18324031Y-25573400D01*
X18231380Y-25571862D01*
X18154383Y-25570130D01*
X18091566Y-25568194D01*
X18041456Y-25566040D01*
X18002579Y-25563659D01*
X17973462Y-25561037D01*
X17952629Y-25558165D01*
X17938609Y-25555030D01*
X17930966Y-25552159D01*
X17917382Y-25546430D01*
X17904910Y-25542206D01*
X17893502Y-25537985D01*
X17883111Y-25532268D01*
X17873691Y-25523555D01*
X17865192Y-25510345D01*
X17857570Y-25491137D01*
X17850775Y-25464433D01*
X17844762Y-25428730D01*
X17839483Y-25382530D01*
X17834890Y-25324332D01*
X17830936Y-25252635D01*
X17827575Y-25165940D01*
X17824759Y-25062746D01*
X17822440Y-24941553D01*
X17820572Y-24800860D01*
X17820084Y-24746857D01*
X18304296Y-24746857D01*
X20015744Y-24746857D01*
X19982813Y-24696964D01*
X19950053Y-24645693D01*
X19922311Y-24596869D01*
X19899193Y-24547076D01*
X19880303Y-24492898D01*
X19865249Y-24430916D01*
X19853633Y-24357715D01*
X19845064Y-24269878D01*
X19839144Y-24163988D01*
X19835481Y-24036628D01*
X19833679Y-23884381D01*
X19833344Y-23703832D01*
X19834081Y-23491562D01*
X19834499Y-23412755D01*
X19839214Y-22567911D01*
X20374428Y-23296557D01*
X20526054Y-23503265D01*
X20657419Y-23683260D01*
X20769943Y-23838925D01*
X20865043Y-23972647D01*
X20944138Y-24086809D01*
X21008647Y-24183797D01*
X21059988Y-24265994D01*
X21099580Y-24335786D01*
X21128840Y-24395558D01*
X21149188Y-24447693D01*
X21162042Y-24494576D01*
X21168819Y-24538593D01*
X21170940Y-24582127D01*
X21169821Y-24627564D01*
X21169536Y-24633275D01*
X21163643Y-24746933D01*
X23039229Y-24746857D01*
X22899722Y-24606189D01*
X22861865Y-24567715D01*
X22825953Y-24530279D01*
X22790407Y-24491814D01*
X22753653Y-24450258D01*
X22714114Y-24403545D01*
X22670214Y-24349610D01*
X22620377Y-24286390D01*
X22563028Y-24211818D01*
X22496589Y-24123832D01*
X22419485Y-24020365D01*
X22330139Y-23899354D01*
X22226976Y-23758734D01*
X22108420Y-23596440D01*
X21972895Y-23410407D01*
X21818823Y-23198571D01*
X21692538Y-23024804D01*
X21534046Y-22806501D01*
X21395784Y-22615629D01*
X21276501Y-22450374D01*
X21174943Y-22308926D01*
X21089859Y-22189471D01*
X21019995Y-22090198D01*
X20964100Y-22009295D01*
X20920920Y-21944949D01*
X20889203Y-21895347D01*
X20867698Y-21858679D01*
X20855150Y-21833132D01*
X20850308Y-21816893D01*
X20851763Y-21808355D01*
X20869401Y-21785635D01*
X20907534Y-21737543D01*
X20963862Y-21666938D01*
X21036084Y-21576678D01*
X21121899Y-21469621D01*
X21219006Y-21348627D01*
X21325104Y-21216554D01*
X21437891Y-21076260D01*
X21555068Y-20930603D01*
X21674333Y-20782444D01*
X21739933Y-20701000D01*
X23368686Y-20701000D01*
X23436379Y-20823465D01*
X23504071Y-20945929D01*
X23504071Y-24501929D01*
X23436379Y-24624393D01*
X23368686Y-24746857D01*
X24169441Y-24746857D01*
X24360602Y-24746802D01*
X24518499Y-24746551D01*
X24646152Y-24745979D01*
X24746581Y-24744959D01*
X24822807Y-24743365D01*
X24877852Y-24741070D01*
X24914736Y-24737950D01*
X24936479Y-24733877D01*
X24946102Y-24728725D01*
X24946627Y-24722367D01*
X24941074Y-24714679D01*
X24941016Y-24714615D01*
X24918140Y-24681524D01*
X24887849Y-24627719D01*
X24861097Y-24574008D01*
X24810357Y-24465643D01*
X24805182Y-22583322D01*
X24800007Y-20701000D01*
X23368686Y-20701000D01*
X21739933Y-20701000D01*
X21793385Y-20634639D01*
X21909923Y-20490047D01*
X22021646Y-20351528D01*
X22126254Y-20221939D01*
X22221444Y-20104140D01*
X22304917Y-20000988D01*
X22374371Y-19915343D01*
X22427506Y-19850062D01*
X22458715Y-19812000D01*
X22579903Y-19669670D01*
X22696493Y-19541230D01*
X22804397Y-19430886D01*
X22899530Y-19342841D01*
X22967043Y-19288862D01*
X23046873Y-19231429D01*
X21210892Y-19231429D01*
X21211408Y-19339165D01*
X21206276Y-19418372D01*
X21186985Y-19491805D01*
X21157123Y-19561415D01*
X21137712Y-19600741D01*
X21116841Y-19639707D01*
X21092604Y-19680901D01*
X21063094Y-19726908D01*
X21026406Y-19780317D01*
X20980632Y-19843714D01*
X20923865Y-19919685D01*
X20854200Y-20010817D01*
X20769730Y-20119698D01*
X20668547Y-20248914D01*
X20548747Y-20401052D01*
X20408421Y-20578698D01*
X20392571Y-20598742D01*
X19839214Y-21298508D01*
X19833857Y-20523504D01*
X19832779Y-20291368D01*
X19833008Y-20094846D01*
X19834557Y-19933292D01*
X19837437Y-19806056D01*
X19841659Y-19712492D01*
X19847234Y-19651952D01*
X19849107Y-19640468D01*
X19878505Y-19519499D01*
X19917022Y-19410446D01*
X19960974Y-19322763D01*
X19987379Y-19285574D01*
X20032940Y-19231429D01*
X19168470Y-19231429D01*
X18962255Y-19231605D01*
X18789812Y-19232179D01*
X18648627Y-19233217D01*
X18536188Y-19234787D01*
X18449983Y-19236954D01*
X18387498Y-19239788D01*
X18346221Y-19243353D01*
X18323640Y-19247718D01*
X18317241Y-19252949D01*
X18317683Y-19254107D01*
X18336009Y-19281769D01*
X18366604Y-19325615D01*
X18382433Y-19347791D01*
X18398798Y-19369920D01*
X18413508Y-19389709D01*
X18426656Y-19409106D01*
X18438333Y-19430058D01*
X18448632Y-19454512D01*
X18457646Y-19484416D01*
X18465468Y-19521717D01*
X18472191Y-19568363D01*
X18477906Y-19626301D01*
X18482707Y-19697479D01*
X18486685Y-19783844D01*
X18489935Y-19887344D01*
X18492548Y-20009925D01*
X18494617Y-20153537D01*
X18496234Y-20320125D01*
X18497493Y-20511637D01*
X18498485Y-20730022D01*
X18499304Y-20977226D01*
X18500042Y-21255196D01*
X18500791Y-21565881D01*
X18501492Y-21851300D01*
X18502153Y-22169492D01*
X18502497Y-22473077D01*
X18502532Y-22760115D01*
X18502268Y-23028669D01*
X18501715Y-23276798D01*
X18500880Y-23502563D01*
X18499773Y-23704026D01*
X18498404Y-23879246D01*
X18496781Y-24026286D01*
X18494913Y-24143206D01*
X18492811Y-24228067D01*
X18490482Y-24278929D01*
X18490041Y-24284304D01*
X18473992Y-24407613D01*
X18448936Y-24506644D01*
X18410779Y-24593070D01*
X18355428Y-24678565D01*
X18348504Y-24687893D01*
X18304296Y-24746857D01*
X17820084Y-24746857D01*
X17819108Y-24639168D01*
X17817999Y-24454976D01*
X17817199Y-24246784D01*
X17816661Y-24013091D01*
X17816338Y-23752398D01*
X17816183Y-23463204D01*
X17816146Y-23144009D01*
X17816183Y-22793313D01*
X17816245Y-22409614D01*
X17816285Y-21991414D01*
X17816286Y-21908393D01*
X17816309Y-21485789D01*
X17816388Y-21097981D01*
X17816533Y-20743480D01*
X17816756Y-20420797D01*
X17817069Y-20128442D01*
X17817483Y-19864927D01*
X17818009Y-19628762D01*
X17818660Y-19418458D01*
X17819447Y-19232526D01*
X17820381Y-19069475D01*
X17821474Y-18927818D01*
X17822737Y-18806064D01*
X17824183Y-18702725D01*
X17825821Y-18616311D01*
X17827666Y-18545333D01*
X17829726Y-18488301D01*
X17832015Y-18443727D01*
X17834544Y-18410121D01*
X17837324Y-18385993D01*
X17840367Y-18369856D01*
X17843684Y-18360218D01*
X17843807Y-18359978D01*
X17850640Y-18345255D01*
X17856330Y-18331926D01*
X17862626Y-18319922D01*
X17871272Y-18309173D01*
X17884014Y-18299611D01*
X17902600Y-18291167D01*
X17928774Y-18283771D01*
X17964284Y-18277354D01*
X18010875Y-18271848D01*
X18070293Y-18267183D01*
X18144285Y-18263291D01*
X18234597Y-18260102D01*
X18342975Y-18257547D01*
X18471165Y-18255558D01*
X18620913Y-18254065D01*
X18793966Y-18252998D01*
X18992069Y-18252291D01*
X19216969Y-18251872D01*
X19470412Y-18251673D01*
X19754144Y-18251626D01*
X20069911Y-18251660D01*
G37*
X20069911Y-18251660D02*
X20419460Y-18251707D01*
X20582170Y-18251714D01*
X23186571Y-18251715D01*
X23186571Y-18405238D01*
X23202957Y-18592063D01*
X23252412Y-18764367D01*
X23335380Y-18923175D01*
X23452305Y-19069510D01*
X23491864Y-19109032D01*
X23634170Y-19221138D01*
X23791078Y-19302899D01*
X23957928Y-19354353D01*
X24130061Y-19375537D01*
X24302815Y-19366487D01*
X24471530Y-19327242D01*
X24631546Y-19257838D01*
X24778202Y-19158311D01*
X24844068Y-19098265D01*
X24966808Y-18951043D01*
X25056812Y-18789147D01*
X25113294Y-18614427D01*
X25135471Y-18428735D01*
X25135766Y-18410467D01*
X25136928Y-18251720D01*
X25206700Y-18251717D01*
X25268595Y-18260118D01*
X25325135Y-18280556D01*
X25328872Y-18282667D01*
X25341642Y-18289293D01*
X25353368Y-18294454D01*
X25364094Y-18299651D01*
X25373861Y-18306390D01*
X25382712Y-18316171D01*
X25390689Y-18330500D01*
X25397835Y-18350878D01*
X25404192Y-18378808D01*
X25409802Y-18415795D01*
X25414707Y-18463340D01*
X25418951Y-18522947D01*
X25422576Y-18596119D01*
X25425623Y-18684359D01*
X25428136Y-18789170D01*
X25430156Y-18912055D01*
X25431726Y-19054517D01*
X25432888Y-19218060D01*
X25433686Y-19404186D01*
X25434160Y-19614398D01*
X25434354Y-19850200D01*
X25434310Y-20113094D01*
X25434070Y-20404584D01*
X25433677Y-20726172D01*
X25433173Y-21079362D01*
X25432600Y-21465657D01*
X25432001Y-21886560D01*
X25431932Y-21937840D01*
X25431395Y-22361426D01*
X25430939Y-22750230D01*
X25430516Y-23105753D01*
X25430079Y-23429498D01*
X25429578Y-23722966D01*
X25428965Y-23987661D01*
X25428192Y-24225085D01*
X25427211Y-24436740D01*
X25425974Y-24624129D01*
X25424432Y-24788754D01*
X25422537Y-24932117D01*
X25420241Y-25055720D01*
X25417496Y-25161067D01*
X25414253Y-25249659D01*
X25410464Y-25323000D01*
X25406081Y-25382590D01*
X25401055Y-25429933D01*
X25395339Y-25466531D01*
X25388884Y-25493886D01*
X25381641Y-25513502D01*
X25373563Y-25526879D01*
X25364602Y-25535521D01*
X25354708Y-25540930D01*
X25343835Y-25544608D01*
X25331933Y-25548058D01*
X25318954Y-25552782D01*
X25315783Y-25554220D01*
X25305819Y-25557451D01*
X25289141Y-25560420D01*
X25264293Y-25563137D01*
X25229820Y-25565613D01*
X25184264Y-25567858D01*
X25126170Y-25569883D01*
X25054081Y-25571698D01*
X24966542Y-25573315D01*
X24862095Y-25574743D01*
X24739285Y-25575993D01*
X24596655Y-25577076D01*
X24432749Y-25578002D01*
X24246110Y-25578782D01*
X24035284Y-25579426D01*
X23798812Y-25579946D01*
X23535239Y-25580351D01*
X23243110Y-25580652D01*
X22920966Y-25580860D01*
X22567353Y-25580985D01*
X22180814Y-25581038D01*
X21759892Y-25581029D01*
X21623544Y-25581016D01*
X21193284Y-25580947D01*
X20797836Y-25580834D01*
X20435727Y-25580665D01*
X20105483Y-25580430D01*
X19805629Y-25580116D01*
X19534692Y-25579713D01*
X19291200Y-25579207D01*
X19073677Y-25578589D01*
X18880650Y-25577846D01*
X18710646Y-25576968D01*
X18562190Y-25575941D01*
X18433810Y-25574756D01*
X18324031Y-25573400D01*
X18231380Y-25571862D01*
X18154383Y-25570130D01*
X18091566Y-25568194D01*
X18041456Y-25566040D01*
X18002579Y-25563659D01*
X17973462Y-25561037D01*
X17952629Y-25558165D01*
X17938609Y-25555030D01*
X17930966Y-25552159D01*
X17917382Y-25546430D01*
X17904910Y-25542206D01*
X17893502Y-25537985D01*
X17883111Y-25532268D01*
X17873691Y-25523555D01*
X17865192Y-25510345D01*
X17857570Y-25491137D01*
X17850775Y-25464433D01*
X17844762Y-25428730D01*
X17839483Y-25382530D01*
X17834890Y-25324332D01*
X17830936Y-25252635D01*
X17827575Y-25165940D01*
X17824759Y-25062746D01*
X17822440Y-24941553D01*
X17820572Y-24800860D01*
X17820084Y-24746857D01*
X18304296Y-24746857D01*
X20015744Y-24746857D01*
X19982813Y-24696964D01*
X19950053Y-24645693D01*
X19922311Y-24596869D01*
X19899193Y-24547076D01*
X19880303Y-24492898D01*
X19865249Y-24430916D01*
X19853633Y-24357715D01*
X19845064Y-24269878D01*
X19839144Y-24163988D01*
X19835481Y-24036628D01*
X19833679Y-23884381D01*
X19833344Y-23703832D01*
X19834081Y-23491562D01*
X19834499Y-23412755D01*
X19839214Y-22567911D01*
X20374428Y-23296557D01*
X20526054Y-23503265D01*
X20657419Y-23683260D01*
X20769943Y-23838925D01*
X20865043Y-23972647D01*
X20944138Y-24086809D01*
X21008647Y-24183797D01*
X21059988Y-24265994D01*
X21099580Y-24335786D01*
X21128840Y-24395558D01*
X21149188Y-24447693D01*
X21162042Y-24494576D01*
X21168819Y-24538593D01*
X21170940Y-24582127D01*
X21169821Y-24627564D01*
X21169536Y-24633275D01*
X21163643Y-24746933D01*
X23039229Y-24746857D01*
X22899722Y-24606189D01*
X22861865Y-24567715D01*
X22825953Y-24530279D01*
X22790407Y-24491814D01*
X22753653Y-24450258D01*
X22714114Y-24403545D01*
X22670214Y-24349610D01*
X22620377Y-24286390D01*
X22563028Y-24211818D01*
X22496589Y-24123832D01*
X22419485Y-24020365D01*
X22330139Y-23899354D01*
X22226976Y-23758734D01*
X22108420Y-23596440D01*
X21972895Y-23410407D01*
X21818823Y-23198571D01*
X21692538Y-23024804D01*
X21534046Y-22806501D01*
X21395784Y-22615629D01*
X21276501Y-22450374D01*
X21174943Y-22308926D01*
X21089859Y-22189471D01*
X21019995Y-22090198D01*
X20964100Y-22009295D01*
X20920920Y-21944949D01*
X20889203Y-21895347D01*
X20867698Y-21858679D01*
X20855150Y-21833132D01*
X20850308Y-21816893D01*
X20851763Y-21808355D01*
X20869401Y-21785635D01*
X20907534Y-21737543D01*
X20963862Y-21666938D01*
X21036084Y-21576678D01*
X21121899Y-21469621D01*
X21219006Y-21348627D01*
X21325104Y-21216554D01*
X21437891Y-21076260D01*
X21555068Y-20930603D01*
X21674333Y-20782444D01*
X21739933Y-20701000D01*
X23368686Y-20701000D01*
X23436379Y-20823465D01*
X23504071Y-20945929D01*
X23504071Y-24501929D01*
X23436379Y-24624393D01*
X23368686Y-24746857D01*
X24169441Y-24746857D01*
X24360602Y-24746802D01*
X24518499Y-24746551D01*
X24646152Y-24745979D01*
X24746581Y-24744959D01*
X24822807Y-24743365D01*
X24877852Y-24741070D01*
X24914736Y-24737950D01*
X24936479Y-24733877D01*
X24946102Y-24728725D01*
X24946627Y-24722367D01*
X24941074Y-24714679D01*
X24941016Y-24714615D01*
X24918140Y-24681524D01*
X24887849Y-24627719D01*
X24861097Y-24574008D01*
X24810357Y-24465643D01*
X24805182Y-22583322D01*
X24800007Y-20701000D01*
X23368686Y-20701000D01*
X21739933Y-20701000D01*
X21793385Y-20634639D01*
X21909923Y-20490047D01*
X22021646Y-20351528D01*
X22126254Y-20221939D01*
X22221444Y-20104140D01*
X22304917Y-20000988D01*
X22374371Y-19915343D01*
X22427506Y-19850062D01*
X22458715Y-19812000D01*
X22579903Y-19669670D01*
X22696493Y-19541230D01*
X22804397Y-19430886D01*
X22899530Y-19342841D01*
X22967043Y-19288862D01*
X23046873Y-19231429D01*
X21210892Y-19231429D01*
X21211408Y-19339165D01*
X21206276Y-19418372D01*
X21186985Y-19491805D01*
X21157123Y-19561415D01*
X21137712Y-19600741D01*
X21116841Y-19639707D01*
X21092604Y-19680901D01*
X21063094Y-19726908D01*
X21026406Y-19780317D01*
X20980632Y-19843714D01*
X20923865Y-19919685D01*
X20854200Y-20010817D01*
X20769730Y-20119698D01*
X20668547Y-20248914D01*
X20548747Y-20401052D01*
X20408421Y-20578698D01*
X20392571Y-20598742D01*
X19839214Y-21298508D01*
X19833857Y-20523504D01*
X19832779Y-20291368D01*
X19833008Y-20094846D01*
X19834557Y-19933292D01*
X19837437Y-19806056D01*
X19841659Y-19712492D01*
X19847234Y-19651952D01*
X19849107Y-19640468D01*
X19878505Y-19519499D01*
X19917022Y-19410446D01*
X19960974Y-19322763D01*
X19987379Y-19285574D01*
X20032940Y-19231429D01*
X19168470Y-19231429D01*
X18962255Y-19231605D01*
X18789812Y-19232179D01*
X18648627Y-19233217D01*
X18536188Y-19234787D01*
X18449983Y-19236954D01*
X18387498Y-19239788D01*
X18346221Y-19243353D01*
X18323640Y-19247718D01*
X18317241Y-19252949D01*
X18317683Y-19254107D01*
X18336009Y-19281769D01*
X18366604Y-19325615D01*
X18382433Y-19347791D01*
X18398798Y-19369920D01*
X18413508Y-19389709D01*
X18426656Y-19409106D01*
X18438333Y-19430058D01*
X18448632Y-19454512D01*
X18457646Y-19484416D01*
X18465468Y-19521717D01*
X18472191Y-19568363D01*
X18477906Y-19626301D01*
X18482707Y-19697479D01*
X18486685Y-19783844D01*
X18489935Y-19887344D01*
X18492548Y-20009925D01*
X18494617Y-20153537D01*
X18496234Y-20320125D01*
X18497493Y-20511637D01*
X18498485Y-20730022D01*
X18499304Y-20977226D01*
X18500042Y-21255196D01*
X18500791Y-21565881D01*
X18501492Y-21851300D01*
X18502153Y-22169492D01*
X18502497Y-22473077D01*
X18502532Y-22760115D01*
X18502268Y-23028669D01*
X18501715Y-23276798D01*
X18500880Y-23502563D01*
X18499773Y-23704026D01*
X18498404Y-23879246D01*
X18496781Y-24026286D01*
X18494913Y-24143206D01*
X18492811Y-24228067D01*
X18490482Y-24278929D01*
X18490041Y-24284304D01*
X18473992Y-24407613D01*
X18448936Y-24506644D01*
X18410779Y-24593070D01*
X18355428Y-24678565D01*
X18348504Y-24687893D01*
X18304296Y-24746857D01*
X17820084Y-24746857D01*
X17819108Y-24639168D01*
X17817999Y-24454976D01*
X17817199Y-24246784D01*
X17816661Y-24013091D01*
X17816338Y-23752398D01*
X17816183Y-23463204D01*
X17816146Y-23144009D01*
X17816183Y-22793313D01*
X17816245Y-22409614D01*
X17816285Y-21991414D01*
X17816286Y-21908393D01*
X17816309Y-21485789D01*
X17816388Y-21097981D01*
X17816533Y-20743480D01*
X17816756Y-20420797D01*
X17817069Y-20128442D01*
X17817483Y-19864927D01*
X17818009Y-19628762D01*
X17818660Y-19418458D01*
X17819447Y-19232526D01*
X17820381Y-19069475D01*
X17821474Y-18927818D01*
X17822737Y-18806064D01*
X17824183Y-18702725D01*
X17825821Y-18616311D01*
X17827666Y-18545333D01*
X17829726Y-18488301D01*
X17832015Y-18443727D01*
X17834544Y-18410121D01*
X17837324Y-18385993D01*
X17840367Y-18369856D01*
X17843684Y-18360218D01*
X17843807Y-18359978D01*
X17850640Y-18345255D01*
X17856330Y-18331926D01*
X17862626Y-18319922D01*
X17871272Y-18309173D01*
X17884014Y-18299611D01*
X17902600Y-18291167D01*
X17928774Y-18283771D01*
X17964284Y-18277354D01*
X18010875Y-18271848D01*
X18070293Y-18267183D01*
X18144285Y-18263291D01*
X18234597Y-18260102D01*
X18342975Y-18257547D01*
X18471165Y-18255558D01*
X18620913Y-18254065D01*
X18793966Y-18252998D01*
X18992069Y-18252291D01*
X19216969Y-18251872D01*
X19470412Y-18251673D01*
X19754144Y-18251626D01*
X20069911Y-18251660D01*
G36*
X28521378Y-19159231D02*
G01*
X28717019Y-19180649D01*
X28906562Y-19218985D01*
X29097717Y-19276238D01*
X29298196Y-19354409D01*
X29515708Y-19455496D01*
X29554880Y-19475076D01*
X29644772Y-19519362D01*
X29729553Y-19559239D01*
X29800855Y-19590898D01*
X29850310Y-19610532D01*
X29857908Y-19613004D01*
X29930714Y-19634817D01*
X29604803Y-20108944D01*
X29525123Y-20224823D01*
X29452272Y-20330694D01*
X29388730Y-20422962D01*
X29336972Y-20498033D01*
X29299477Y-20552313D01*
X29278723Y-20582207D01*
X29275351Y-20586941D01*
X29261655Y-20577042D01*
X29227943Y-20547285D01*
X29180244Y-20503073D01*
X29153920Y-20478084D01*
X29004772Y-20359456D01*
X28837268Y-20269313D01*
X28692928Y-20219936D01*
X28606283Y-20204429D01*
X28497796Y-20194979D01*
X28380227Y-20191761D01*
X28266334Y-20194951D01*
X28168879Y-20204724D01*
X28129990Y-20212209D01*
X27954712Y-20272512D01*
X27796765Y-20364590D01*
X27656268Y-20488273D01*
X27533335Y-20643393D01*
X27428085Y-20829781D01*
X27340635Y-21047270D01*
X27271100Y-21295692D01*
X27229775Y-21508357D01*
X27218994Y-21602241D01*
X27211648Y-21723524D01*
X27207667Y-21863493D01*
X27206979Y-22013431D01*
X27209514Y-22164622D01*
X27215200Y-22308351D01*
X27223967Y-22435903D01*
X27235744Y-22538562D01*
X27238293Y-22554401D01*
X27294481Y-22809536D01*
X27371036Y-23035342D01*
X27468426Y-23232831D01*
X27587114Y-23403014D01*
X27671363Y-23495022D01*
X27822770Y-23619943D01*
X27988817Y-23712540D01*
X28166701Y-23772309D01*
X28353622Y-23798746D01*
X28546778Y-23791348D01*
X28743369Y-23749611D01*
X28859597Y-23708771D01*
X29020438Y-23626990D01*
X29186213Y-23509678D01*
X29279073Y-23430345D01*
X29331214Y-23384429D01*
X29372180Y-23350742D01*
X29395498Y-23334510D01*
X29398393Y-23334015D01*
X29408800Y-23350601D01*
X29435767Y-23394432D01*
X29476996Y-23461748D01*
X29530189Y-23548794D01*
X29593050Y-23651810D01*
X29663281Y-23767041D01*
X29702372Y-23831231D01*
X30000964Y-24321677D01*
X29628161Y-24505915D01*
X29493369Y-24572093D01*
X29384175Y-24624278D01*
X29293907Y-24665060D01*
X29215888Y-24697033D01*
X29143444Y-24722787D01*
X29069901Y-24744914D01*
X28988584Y-24766007D01*
X28910643Y-24784530D01*
X28841366Y-24798863D01*
X28768917Y-24809694D01*
X28686042Y-24817626D01*
X28585488Y-24823258D01*
X28460003Y-24827192D01*
X28375428Y-24828891D01*
X28254754Y-24830050D01*
X28139042Y-24829465D01*
X28035951Y-24827304D01*
X27953138Y-24823732D01*
X27898260Y-24818917D01*
X27895008Y-24818437D01*
X27610043Y-24756786D01*
X27342442Y-24663285D01*
X27092297Y-24537993D01*
X26859704Y-24380974D01*
X26644757Y-24192289D01*
X26447550Y-23972000D01*
X26304727Y-23776214D01*
X26152680Y-23519949D01*
X26029773Y-23249317D01*
X25935410Y-22962149D01*
X25868999Y-22656276D01*
X25829944Y-22329528D01*
X25817640Y-21997739D01*
X25827759Y-21676779D01*
X25859561Y-21380646D01*
X25914054Y-21104345D01*
X25992250Y-20842881D01*
X26095159Y-20591258D01*
X26107447Y-20565190D01*
X26242820Y-20321507D01*
X26409089Y-20089618D01*
X26601541Y-19874323D01*
X26815466Y-19680422D01*
X27046155Y-19512715D01*
X27261109Y-19389696D01*
X27478258Y-19293345D01*
X27695868Y-19223551D01*
X27922362Y-19178413D01*
X28166166Y-19156031D01*
X28311928Y-19152731D01*
X28521378Y-19159231D01*
G37*
X28521378Y-19159231D02*
X28717019Y-19180649D01*
X28906562Y-19218985D01*
X29097717Y-19276238D01*
X29298196Y-19354409D01*
X29515708Y-19455496D01*
X29554880Y-19475076D01*
X29644772Y-19519362D01*
X29729553Y-19559239D01*
X29800855Y-19590898D01*
X29850310Y-19610532D01*
X29857908Y-19613004D01*
X29930714Y-19634817D01*
X29604803Y-20108944D01*
X29525123Y-20224823D01*
X29452272Y-20330694D01*
X29388730Y-20422962D01*
X29336972Y-20498033D01*
X29299477Y-20552313D01*
X29278723Y-20582207D01*
X29275351Y-20586941D01*
X29261655Y-20577042D01*
X29227943Y-20547285D01*
X29180244Y-20503073D01*
X29153920Y-20478084D01*
X29004772Y-20359456D01*
X28837268Y-20269313D01*
X28692928Y-20219936D01*
X28606283Y-20204429D01*
X28497796Y-20194979D01*
X28380227Y-20191761D01*
X28266334Y-20194951D01*
X28168879Y-20204724D01*
X28129990Y-20212209D01*
X27954712Y-20272512D01*
X27796765Y-20364590D01*
X27656268Y-20488273D01*
X27533335Y-20643393D01*
X27428085Y-20829781D01*
X27340635Y-21047270D01*
X27271100Y-21295692D01*
X27229775Y-21508357D01*
X27218994Y-21602241D01*
X27211648Y-21723524D01*
X27207667Y-21863493D01*
X27206979Y-22013431D01*
X27209514Y-22164622D01*
X27215200Y-22308351D01*
X27223967Y-22435903D01*
X27235744Y-22538562D01*
X27238293Y-22554401D01*
X27294481Y-22809536D01*
X27371036Y-23035342D01*
X27468426Y-23232831D01*
X27587114Y-23403014D01*
X27671363Y-23495022D01*
X27822770Y-23619943D01*
X27988817Y-23712540D01*
X28166701Y-23772309D01*
X28353622Y-23798746D01*
X28546778Y-23791348D01*
X28743369Y-23749611D01*
X28859597Y-23708771D01*
X29020438Y-23626990D01*
X29186213Y-23509678D01*
X29279073Y-23430345D01*
X29331214Y-23384429D01*
X29372180Y-23350742D01*
X29395498Y-23334510D01*
X29398393Y-23334015D01*
X29408800Y-23350601D01*
X29435767Y-23394432D01*
X29476996Y-23461748D01*
X29530189Y-23548794D01*
X29593050Y-23651810D01*
X29663281Y-23767041D01*
X29702372Y-23831231D01*
X30000964Y-24321677D01*
X29628161Y-24505915D01*
X29493369Y-24572093D01*
X29384175Y-24624278D01*
X29293907Y-24665060D01*
X29215888Y-24697033D01*
X29143444Y-24722787D01*
X29069901Y-24744914D01*
X28988584Y-24766007D01*
X28910643Y-24784530D01*
X28841366Y-24798863D01*
X28768917Y-24809694D01*
X28686042Y-24817626D01*
X28585488Y-24823258D01*
X28460003Y-24827192D01*
X28375428Y-24828891D01*
X28254754Y-24830050D01*
X28139042Y-24829465D01*
X28035951Y-24827304D01*
X27953138Y-24823732D01*
X27898260Y-24818917D01*
X27895008Y-24818437D01*
X27610043Y-24756786D01*
X27342442Y-24663285D01*
X27092297Y-24537993D01*
X26859704Y-24380974D01*
X26644757Y-24192289D01*
X26447550Y-23972000D01*
X26304727Y-23776214D01*
X26152680Y-23519949D01*
X26029773Y-23249317D01*
X25935410Y-22962149D01*
X25868999Y-22656276D01*
X25829944Y-22329528D01*
X25817640Y-21997739D01*
X25827759Y-21676779D01*
X25859561Y-21380646D01*
X25914054Y-21104345D01*
X25992250Y-20842881D01*
X26095159Y-20591258D01*
X26107447Y-20565190D01*
X26242820Y-20321507D01*
X26409089Y-20089618D01*
X26601541Y-19874323D01*
X26815466Y-19680422D01*
X27046155Y-19512715D01*
X27261109Y-19389696D01*
X27478258Y-19293345D01*
X27695868Y-19223551D01*
X27922362Y-19178413D01*
X28166166Y-19156031D01*
X28311928Y-19152731D01*
X28521378Y-19159231D01*
G36*
X32125632Y-20617730D02*
G01*
X32215523Y-20624535D01*
X32472715Y-20658753D01*
X32700485Y-20713331D01*
X32899943Y-20789020D01*
X33072197Y-20886570D01*
X33218359Y-21006732D01*
X33339536Y-21150258D01*
X33436839Y-21317898D01*
X33507891Y-21499286D01*
X33525927Y-21557146D01*
X33541632Y-21611329D01*
X33555192Y-21664752D01*
X33566792Y-21720333D01*
X33576617Y-21780988D01*
X33584853Y-21849635D01*
X33591684Y-21929190D01*
X33597295Y-22022572D01*
X33601872Y-22132696D01*
X33605600Y-22262481D01*
X33608665Y-22414842D01*
X33611250Y-22592698D01*
X33613542Y-22798965D01*
X33615725Y-23036561D01*
X33617286Y-23222857D01*
X33627785Y-24501929D01*
X33695821Y-24625018D01*
X33728038Y-24684317D01*
X33752012Y-24730377D01*
X33763450Y-24754893D01*
X33763857Y-24756553D01*
X33746375Y-24758454D01*
X33696574Y-24760205D01*
X33618421Y-24761758D01*
X33515882Y-24763062D01*
X33392922Y-24764070D01*
X33253510Y-24764731D01*
X33101611Y-24764997D01*
X33083500Y-24765000D01*
X32403143Y-24765000D01*
X32403143Y-24610786D01*
X32401982Y-24541094D01*
X32398887Y-24487794D01*
X32394432Y-24459217D01*
X32392463Y-24456572D01*
X32374455Y-24467653D01*
X32337393Y-24496736D01*
X32289222Y-24537579D01*
X32288141Y-24538524D01*
X32200235Y-24603971D01*
X32089217Y-24669688D01*
X31967631Y-24729219D01*
X31848021Y-24776109D01*
X31795357Y-24792133D01*
X31690551Y-24812485D01*
X31561950Y-24825472D01*
X31421325Y-24830909D01*
X31280448Y-24828611D01*
X31151093Y-24818392D01*
X31060571Y-24803689D01*
X30838580Y-24738499D01*
X30638729Y-24645594D01*
X30462319Y-24526126D01*
X30310650Y-24381247D01*
X30185024Y-24212110D01*
X30086741Y-24019867D01*
X30044341Y-23903214D01*
X30017768Y-23789833D01*
X30000158Y-23653722D01*
X29992010Y-23507437D01*
X29992278Y-23486151D01*
X31219321Y-23486151D01*
X31229496Y-23594850D01*
X31263378Y-23685185D01*
X31326000Y-23768995D01*
X31350052Y-23793571D01*
X31435551Y-23860011D01*
X31534373Y-23902574D01*
X31652768Y-23923177D01*
X31777445Y-23924694D01*
X31895698Y-23914677D01*
X31986239Y-23895085D01*
X32025560Y-23880370D01*
X32096432Y-23840265D01*
X32171525Y-23783863D01*
X32240038Y-23720561D01*
X32291172Y-23659755D01*
X32304750Y-23637449D01*
X32315305Y-23606212D01*
X32322810Y-23556507D01*
X32327613Y-23483587D01*
X32330065Y-23382703D01*
X32330571Y-23286689D01*
X32330228Y-23174750D01*
X32328843Y-23093809D01*
X32325881Y-23038585D01*
X32320808Y-23003794D01*
X32313090Y-22984154D01*
X32302192Y-22974380D01*
X32298821Y-22972824D01*
X32269529Y-22968029D01*
X32211756Y-22964108D01*
X32133304Y-22961414D01*
X32041974Y-22960299D01*
X32022143Y-22960298D01*
X31900063Y-22962246D01*
X31805749Y-22968041D01*
X31730807Y-22978475D01*
X31668903Y-22993714D01*
X31515349Y-23051784D01*
X31394932Y-23123179D01*
X31306610Y-23209039D01*
X31249339Y-23310507D01*
X31222078Y-23428725D01*
X31219321Y-23486151D01*
X29992278Y-23486151D01*
X29993823Y-23363533D01*
X30006096Y-23234565D01*
X30015670Y-23182460D01*
X30076801Y-22988997D01*
X30169757Y-22810993D01*
X30292783Y-22650155D01*
X30444124Y-22508190D01*
X30622025Y-22386806D01*
X30824732Y-22287709D01*
X30997071Y-22227533D01*
X31112253Y-22195919D01*
X31222423Y-22171354D01*
X31334719Y-22153039D01*
X31456275Y-22140178D01*
X31594229Y-22131972D01*
X31755715Y-22127624D01*
X31901715Y-22126400D01*
X32334645Y-22125215D01*
X32326351Y-21995080D01*
X32302801Y-21853883D01*
X32252703Y-21732518D01*
X32178191Y-21634017D01*
X32081399Y-21561409D01*
X31996171Y-21525979D01*
X31874056Y-21503650D01*
X31728683Y-21500443D01*
X31566867Y-21515177D01*
X31395422Y-21546670D01*
X31221163Y-21593740D01*
X31050904Y-21655203D01*
X30927176Y-21711417D01*
X30867647Y-21740283D01*
X30822242Y-21760443D01*
X30799150Y-21768310D01*
X30797897Y-21768058D01*
X30789929Y-21750437D01*
X30770031Y-21703733D01*
X30740077Y-21632418D01*
X30701939Y-21540969D01*
X30657488Y-21433859D01*
X30612305Y-21324549D01*
X30431667Y-20886740D01*
X30560155Y-20865636D01*
X30615846Y-20855047D01*
X30699564Y-20837263D01*
X30804139Y-20813898D01*
X30922399Y-20786565D01*
X31047172Y-20756881D01*
X31096857Y-20744818D01*
X31311807Y-20694962D01*
X31499995Y-20657584D01*
X31668446Y-20631927D01*
X31824186Y-20617235D01*
X31974240Y-20612755D01*
X32125632Y-20617730D01*
G37*
X32125632Y-20617730D02*
X32215523Y-20624535D01*
X32472715Y-20658753D01*
X32700485Y-20713331D01*
X32899943Y-20789020D01*
X33072197Y-20886570D01*
X33218359Y-21006732D01*
X33339536Y-21150258D01*
X33436839Y-21317898D01*
X33507891Y-21499286D01*
X33525927Y-21557146D01*
X33541632Y-21611329D01*
X33555192Y-21664752D01*
X33566792Y-21720333D01*
X33576617Y-21780988D01*
X33584853Y-21849635D01*
X33591684Y-21929190D01*
X33597295Y-22022572D01*
X33601872Y-22132696D01*
X33605600Y-22262481D01*
X33608665Y-22414842D01*
X33611250Y-22592698D01*
X33613542Y-22798965D01*
X33615725Y-23036561D01*
X33617286Y-23222857D01*
X33627785Y-24501929D01*
X33695821Y-24625018D01*
X33728038Y-24684317D01*
X33752012Y-24730377D01*
X33763450Y-24754893D01*
X33763857Y-24756553D01*
X33746375Y-24758454D01*
X33696574Y-24760205D01*
X33618421Y-24761758D01*
X33515882Y-24763062D01*
X33392922Y-24764070D01*
X33253510Y-24764731D01*
X33101611Y-24764997D01*
X33083500Y-24765000D01*
X32403143Y-24765000D01*
X32403143Y-24610786D01*
X32401982Y-24541094D01*
X32398887Y-24487794D01*
X32394432Y-24459217D01*
X32392463Y-24456572D01*
X32374455Y-24467653D01*
X32337393Y-24496736D01*
X32289222Y-24537579D01*
X32288141Y-24538524D01*
X32200235Y-24603971D01*
X32089217Y-24669688D01*
X31967631Y-24729219D01*
X31848021Y-24776109D01*
X31795357Y-24792133D01*
X31690551Y-24812485D01*
X31561950Y-24825472D01*
X31421325Y-24830909D01*
X31280448Y-24828611D01*
X31151093Y-24818392D01*
X31060571Y-24803689D01*
X30838580Y-24738499D01*
X30638729Y-24645594D01*
X30462319Y-24526126D01*
X30310650Y-24381247D01*
X30185024Y-24212110D01*
X30086741Y-24019867D01*
X30044341Y-23903214D01*
X30017768Y-23789833D01*
X30000158Y-23653722D01*
X29992010Y-23507437D01*
X29992278Y-23486151D01*
X31219321Y-23486151D01*
X31229496Y-23594850D01*
X31263378Y-23685185D01*
X31326000Y-23768995D01*
X31350052Y-23793571D01*
X31435551Y-23860011D01*
X31534373Y-23902574D01*
X31652768Y-23923177D01*
X31777445Y-23924694D01*
X31895698Y-23914677D01*
X31986239Y-23895085D01*
X32025560Y-23880370D01*
X32096432Y-23840265D01*
X32171525Y-23783863D01*
X32240038Y-23720561D01*
X32291172Y-23659755D01*
X32304750Y-23637449D01*
X32315305Y-23606212D01*
X32322810Y-23556507D01*
X32327613Y-23483587D01*
X32330065Y-23382703D01*
X32330571Y-23286689D01*
X32330228Y-23174750D01*
X32328843Y-23093809D01*
X32325881Y-23038585D01*
X32320808Y-23003794D01*
X32313090Y-22984154D01*
X32302192Y-22974380D01*
X32298821Y-22972824D01*
X32269529Y-22968029D01*
X32211756Y-22964108D01*
X32133304Y-22961414D01*
X32041974Y-22960299D01*
X32022143Y-22960298D01*
X31900063Y-22962246D01*
X31805749Y-22968041D01*
X31730807Y-22978475D01*
X31668903Y-22993714D01*
X31515349Y-23051784D01*
X31394932Y-23123179D01*
X31306610Y-23209039D01*
X31249339Y-23310507D01*
X31222078Y-23428725D01*
X31219321Y-23486151D01*
X29992278Y-23486151D01*
X29993823Y-23363533D01*
X30006096Y-23234565D01*
X30015670Y-23182460D01*
X30076801Y-22988997D01*
X30169757Y-22810993D01*
X30292783Y-22650155D01*
X30444124Y-22508190D01*
X30622025Y-22386806D01*
X30824732Y-22287709D01*
X30997071Y-22227533D01*
X31112253Y-22195919D01*
X31222423Y-22171354D01*
X31334719Y-22153039D01*
X31456275Y-22140178D01*
X31594229Y-22131972D01*
X31755715Y-22127624D01*
X31901715Y-22126400D01*
X32334645Y-22125215D01*
X32326351Y-21995080D01*
X32302801Y-21853883D01*
X32252703Y-21732518D01*
X32178191Y-21634017D01*
X32081399Y-21561409D01*
X31996171Y-21525979D01*
X31874056Y-21503650D01*
X31728683Y-21500443D01*
X31566867Y-21515177D01*
X31395422Y-21546670D01*
X31221163Y-21593740D01*
X31050904Y-21655203D01*
X30927176Y-21711417D01*
X30867647Y-21740283D01*
X30822242Y-21760443D01*
X30799150Y-21768310D01*
X30797897Y-21768058D01*
X30789929Y-21750437D01*
X30770031Y-21703733D01*
X30740077Y-21632418D01*
X30701939Y-21540969D01*
X30657488Y-21433859D01*
X30612305Y-21324549D01*
X30431667Y-20886740D01*
X30560155Y-20865636D01*
X30615846Y-20855047D01*
X30699564Y-20837263D01*
X30804139Y-20813898D01*
X30922399Y-20786565D01*
X31047172Y-20756881D01*
X31096857Y-20744818D01*
X31311807Y-20694962D01*
X31499995Y-20657584D01*
X31668446Y-20631927D01*
X31824186Y-20617235D01*
X31974240Y-20612755D01*
X32125632Y-20617730D01*
G36*
X36981571Y-18890089D02*
G01*
X37135876Y-18890723D01*
X37188321Y-18891042D01*
X37909500Y-18895786D01*
X37918571Y-21662572D01*
X37919769Y-22037756D01*
X37920832Y-22378417D01*
X37921827Y-22686318D01*
X37922823Y-22963221D01*
X37923888Y-23210888D01*
X37925091Y-23431081D01*
X37926499Y-23625562D01*
X37928182Y-23796094D01*
X37930206Y-23944440D01*
X37932641Y-24072361D01*
X37935554Y-24181620D01*
X37939015Y-24273979D01*
X37943090Y-24351200D01*
X37947849Y-24415046D01*
X37953360Y-24467278D01*
X37959691Y-24509660D01*
X37966910Y-24543953D01*
X37975085Y-24571920D01*
X37984285Y-24595324D01*
X37994577Y-24615925D01*
X38006031Y-24635487D01*
X38018715Y-24655772D01*
X38032695Y-24678543D01*
X38035561Y-24683393D01*
X38083640Y-24765433D01*
X36693928Y-24755929D01*
X36684857Y-24603295D01*
X36679918Y-24530045D01*
X36674771Y-24487696D01*
X36667786Y-24470892D01*
X36657337Y-24474277D01*
X36648571Y-24483960D01*
X36610388Y-24519229D01*
X36548155Y-24564563D01*
X36470641Y-24614546D01*
X36386613Y-24663761D01*
X36304839Y-24706791D01*
X36242052Y-24735101D01*
X36094954Y-24781624D01*
X35926180Y-24814579D01*
X35748191Y-24832707D01*
X35573447Y-24834750D01*
X35414407Y-24819447D01*
X35411788Y-24819009D01*
X35194168Y-24764402D01*
X34990455Y-24677401D01*
X34802613Y-24559876D01*
X34632607Y-24413697D01*
X34482402Y-24240734D01*
X34353964Y-24042857D01*
X34249257Y-23821936D01*
X34192246Y-23658286D01*
X34154651Y-23521375D01*
X34126771Y-23388798D01*
X34107753Y-23252502D01*
X34096745Y-23104433D01*
X34092895Y-22936537D01*
X34094600Y-22799440D01*
X35433359Y-22799440D01*
X35439694Y-23029329D01*
X35459679Y-23227111D01*
X35493927Y-23394539D01*
X35543055Y-23533369D01*
X35607676Y-23645358D01*
X35688405Y-23732259D01*
X35781591Y-23793692D01*
X35830080Y-23816626D01*
X35872134Y-23830375D01*
X35919020Y-23836666D01*
X35982004Y-23837222D01*
X36049857Y-23834773D01*
X36183295Y-23823004D01*
X36288832Y-23799955D01*
X36322000Y-23788410D01*
X36397735Y-23754311D01*
X36477614Y-23711491D01*
X36512500Y-23690057D01*
X36603214Y-23630556D01*
X36603214Y-21744584D01*
X36503428Y-21684771D01*
X36364267Y-21617185D01*
X36222087Y-21577214D01*
X36082090Y-21564622D01*
X35949474Y-21579173D01*
X35829440Y-21620632D01*
X35727188Y-21688763D01*
X35694195Y-21721466D01*
X35614667Y-21828619D01*
X35550299Y-21958327D01*
X35500553Y-22112814D01*
X35464891Y-22294302D01*
X35442775Y-22505015D01*
X35433667Y-22747175D01*
X35433359Y-22799440D01*
X34094600Y-22799440D01*
X34095310Y-22742374D01*
X34110605Y-22443713D01*
X34141358Y-22174325D01*
X34188381Y-21930285D01*
X34252482Y-21707670D01*
X34334472Y-21502556D01*
X34363730Y-21441746D01*
X34481581Y-21243440D01*
X34623996Y-21067212D01*
X34787629Y-20915908D01*
X34969131Y-20792371D01*
X35165153Y-20699447D01*
X35282655Y-20661115D01*
X35398054Y-20638359D01*
X35536907Y-20624820D01*
X35687574Y-20620492D01*
X35838413Y-20625368D01*
X35977785Y-20639444D01*
X36089691Y-20661525D01*
X36222884Y-20704828D01*
X36351979Y-20760511D01*
X36464928Y-20822936D01*
X36525043Y-20865303D01*
X36566510Y-20896807D01*
X36595545Y-20915990D01*
X36602150Y-20918714D01*
X36604198Y-20901163D01*
X36606107Y-20850875D01*
X36607836Y-20771400D01*
X36609341Y-20666286D01*
X36610581Y-20539083D01*
X36611513Y-20393339D01*
X36612095Y-20232603D01*
X36612286Y-20068884D01*
X36612179Y-19859188D01*
X36611658Y-19682396D01*
X36610416Y-19535126D01*
X36608148Y-19413997D01*
X36604550Y-19315627D01*
X36599317Y-19236634D01*
X36592144Y-19173638D01*
X36582726Y-19123255D01*
X36570758Y-19082105D01*
X36555935Y-19046806D01*
X36537952Y-19013977D01*
X36516505Y-18980235D01*
X36513745Y-18976057D01*
X36486083Y-18932356D01*
X36469382Y-18902305D01*
X36467143Y-18895967D01*
X36484643Y-18893967D01*
X36534574Y-18892340D01*
X36613085Y-18891112D01*
X36716323Y-18890311D01*
X36840436Y-18889961D01*
X36981571Y-18890089D01*
G37*
X36981571Y-18890089D02*
X37135876Y-18890723D01*
X37188321Y-18891042D01*
X37909500Y-18895786D01*
X37918571Y-21662572D01*
X37919769Y-22037756D01*
X37920832Y-22378417D01*
X37921827Y-22686318D01*
X37922823Y-22963221D01*
X37923888Y-23210888D01*
X37925091Y-23431081D01*
X37926499Y-23625562D01*
X37928182Y-23796094D01*
X37930206Y-23944440D01*
X37932641Y-24072361D01*
X37935554Y-24181620D01*
X37939015Y-24273979D01*
X37943090Y-24351200D01*
X37947849Y-24415046D01*
X37953360Y-24467278D01*
X37959691Y-24509660D01*
X37966910Y-24543953D01*
X37975085Y-24571920D01*
X37984285Y-24595324D01*
X37994577Y-24615925D01*
X38006031Y-24635487D01*
X38018715Y-24655772D01*
X38032695Y-24678543D01*
X38035561Y-24683393D01*
X38083640Y-24765433D01*
X36693928Y-24755929D01*
X36684857Y-24603295D01*
X36679918Y-24530045D01*
X36674771Y-24487696D01*
X36667786Y-24470892D01*
X36657337Y-24474277D01*
X36648571Y-24483960D01*
X36610388Y-24519229D01*
X36548155Y-24564563D01*
X36470641Y-24614546D01*
X36386613Y-24663761D01*
X36304839Y-24706791D01*
X36242052Y-24735101D01*
X36094954Y-24781624D01*
X35926180Y-24814579D01*
X35748191Y-24832707D01*
X35573447Y-24834750D01*
X35414407Y-24819447D01*
X35411788Y-24819009D01*
X35194168Y-24764402D01*
X34990455Y-24677401D01*
X34802613Y-24559876D01*
X34632607Y-24413697D01*
X34482402Y-24240734D01*
X34353964Y-24042857D01*
X34249257Y-23821936D01*
X34192246Y-23658286D01*
X34154651Y-23521375D01*
X34126771Y-23388798D01*
X34107753Y-23252502D01*
X34096745Y-23104433D01*
X34092895Y-22936537D01*
X34094600Y-22799440D01*
X35433359Y-22799440D01*
X35439694Y-23029329D01*
X35459679Y-23227111D01*
X35493927Y-23394539D01*
X35543055Y-23533369D01*
X35607676Y-23645358D01*
X35688405Y-23732259D01*
X35781591Y-23793692D01*
X35830080Y-23816626D01*
X35872134Y-23830375D01*
X35919020Y-23836666D01*
X35982004Y-23837222D01*
X36049857Y-23834773D01*
X36183295Y-23823004D01*
X36288832Y-23799955D01*
X36322000Y-23788410D01*
X36397735Y-23754311D01*
X36477614Y-23711491D01*
X36512500Y-23690057D01*
X36603214Y-23630556D01*
X36603214Y-21744584D01*
X36503428Y-21684771D01*
X36364267Y-21617185D01*
X36222087Y-21577214D01*
X36082090Y-21564622D01*
X35949474Y-21579173D01*
X35829440Y-21620632D01*
X35727188Y-21688763D01*
X35694195Y-21721466D01*
X35614667Y-21828619D01*
X35550299Y-21958327D01*
X35500553Y-22112814D01*
X35464891Y-22294302D01*
X35442775Y-22505015D01*
X35433667Y-22747175D01*
X35433359Y-22799440D01*
X34094600Y-22799440D01*
X34095310Y-22742374D01*
X34110605Y-22443713D01*
X34141358Y-22174325D01*
X34188381Y-21930285D01*
X34252482Y-21707670D01*
X34334472Y-21502556D01*
X34363730Y-21441746D01*
X34481581Y-21243440D01*
X34623996Y-21067212D01*
X34787629Y-20915908D01*
X34969131Y-20792371D01*
X35165153Y-20699447D01*
X35282655Y-20661115D01*
X35398054Y-20638359D01*
X35536907Y-20624820D01*
X35687574Y-20620492D01*
X35838413Y-20625368D01*
X35977785Y-20639444D01*
X36089691Y-20661525D01*
X36222884Y-20704828D01*
X36351979Y-20760511D01*
X36464928Y-20822936D01*
X36525043Y-20865303D01*
X36566510Y-20896807D01*
X36595545Y-20915990D01*
X36602150Y-20918714D01*
X36604198Y-20901163D01*
X36606107Y-20850875D01*
X36607836Y-20771400D01*
X36609341Y-20666286D01*
X36610581Y-20539083D01*
X36611513Y-20393339D01*
X36612095Y-20232603D01*
X36612286Y-20068884D01*
X36612179Y-19859188D01*
X36611658Y-19682396D01*
X36610416Y-19535126D01*
X36608148Y-19413997D01*
X36604550Y-19315627D01*
X36599317Y-19236634D01*
X36592144Y-19173638D01*
X36582726Y-19123255D01*
X36570758Y-19082105D01*
X36555935Y-19046806D01*
X36537952Y-19013977D01*
X36516505Y-18980235D01*
X36513745Y-18976057D01*
X36486083Y-18932356D01*
X36469382Y-18902305D01*
X36467143Y-18895967D01*
X36484643Y-18893967D01*
X36534574Y-18892340D01*
X36613085Y-18891112D01*
X36716323Y-18890311D01*
X36840436Y-18889961D01*
X36981571Y-18890089D01*
G36*
X24337682Y-17673933D02*
G01*
X24473929Y-17721172D01*
X24600779Y-17795527D01*
X24714067Y-17896987D01*
X24809628Y-18025543D01*
X24852554Y-18106572D01*
X24889705Y-18219908D01*
X24907712Y-18350751D01*
X24905717Y-18485265D01*
X24883577Y-18607158D01*
X24823064Y-18756107D01*
X24735314Y-18885309D01*
X24624788Y-18992223D01*
X24495946Y-19074306D01*
X24353247Y-19129016D01*
X24201151Y-19153810D01*
X24044119Y-19146147D01*
X23966714Y-19129772D01*
X23815859Y-19071089D01*
X23681875Y-18981543D01*
X23567994Y-18863893D01*
X23477448Y-18720902D01*
X23469788Y-18705286D01*
X23443306Y-18646686D01*
X23426678Y-18597334D01*
X23417650Y-18545270D01*
X23413968Y-18478539D01*
X23413357Y-18405929D01*
X23414367Y-18318691D01*
X23418928Y-18255624D01*
X23429334Y-18204636D01*
X23447879Y-18153633D01*
X23470770Y-18103313D01*
X23556154Y-17960470D01*
X23661301Y-17844810D01*
X23782045Y-17756325D01*
X23914221Y-17695005D01*
X24053663Y-17660839D01*
X24196205Y-17653818D01*
X24337682Y-17673933D01*
G37*
X24337682Y-17673933D02*
X24473929Y-17721172D01*
X24600779Y-17795527D01*
X24714067Y-17896987D01*
X24809628Y-18025543D01*
X24852554Y-18106572D01*
X24889705Y-18219908D01*
X24907712Y-18350751D01*
X24905717Y-18485265D01*
X24883577Y-18607158D01*
X24823064Y-18756107D01*
X24735314Y-18885309D01*
X24624788Y-18992223D01*
X24495946Y-19074306D01*
X24353247Y-19129016D01*
X24201151Y-19153810D01*
X24044119Y-19146147D01*
X23966714Y-19129772D01*
X23815859Y-19071089D01*
X23681875Y-18981543D01*
X23567994Y-18863893D01*
X23477448Y-18720902D01*
X23469788Y-18705286D01*
X23443306Y-18646686D01*
X23426678Y-18597334D01*
X23417650Y-18545270D01*
X23413968Y-18478539D01*
X23413357Y-18405929D01*
X23414367Y-18318691D01*
X23418928Y-18255624D01*
X23429334Y-18204636D01*
X23447879Y-18153633D01*
X23470770Y-18103313D01*
X23556154Y-17960470D01*
X23661301Y-17844810D01*
X23782045Y-17756325D01*
X23914221Y-17695005D01*
X24053663Y-17660839D01*
X24196205Y-17653818D01*
X24337682Y-17673933D01*
%TD*%
D12*
%TO.P,R7,2*%
%TO.N,Net-(DS1-Pad2)*%
X165100000Y-20320000D03*
D13*
%TO.P,R7,1*%
%TO.N,+5V*%
X154940000Y-20320000D03*
%TD*%
D12*
%TO.P,R6,2*%
%TO.N,Net-(R6-Pad2)*%
X87630000Y-135890000D03*
D13*
%TO.P,R6,1*%
%TO.N,Net-(J5-Pad1)*%
X77470000Y-135890000D03*
%TD*%
D12*
%TO.P,R5,2*%
%TO.N,Net-(R5-Pad2)*%
X66040000Y-135890000D03*
D13*
%TO.P,R5,1*%
%TO.N,Net-(J4-Pad1)*%
X55880000Y-135890000D03*
%TD*%
D12*
%TO.P,R4,2*%
%TO.N,Net-(R4-Pad2)*%
X46990000Y-135890000D03*
D13*
%TO.P,R4,1*%
%TO.N,Net-(J3-Pad1)*%
X36830000Y-135890000D03*
%TD*%
D12*
%TO.P,R3,2*%
%TO.N,Net-(R3-Pad2)*%
X26670000Y-135890000D03*
D13*
%TO.P,R3,1*%
%TO.N,Net-(J1-Pad1)*%
X16510000Y-135890000D03*
%TD*%
D12*
%TO.P,R2,2*%
%TO.N,Net-(J7-Pad1)*%
X278130000Y-41910000D03*
D13*
%TO.P,R2,1*%
%TO.N,Net-(LED1-Pad2)*%
X267970000Y-41910000D03*
%TD*%
D12*
%TO.P,R1,2*%
%TO.N,Net-(J6-Pad1)*%
X247650000Y-41910000D03*
D13*
%TO.P,R1,1*%
%TO.N,Net-(BZ1-Pad1)*%
X237490000Y-41910000D03*
%TD*%
D14*
%TO.P,DS1,*%
%TO.N,*%
X94429580Y-27670760D03*
X94429580Y-64670940D03*
X209430620Y-27670760D03*
X209430620Y-64670940D03*
D15*
%TO.P,DS1,16*%
%TO.N,N/C*%
X201930000Y-26670000D03*
%TO.P,DS1,15*%
X199390000Y-26670000D03*
%TO.P,DS1,14*%
X196850000Y-26670000D03*
%TO.P,DS1,13*%
X194310000Y-26670000D03*
%TO.P,DS1,12*%
X191770000Y-26670000D03*
%TO.P,DS1,11*%
X189230000Y-26670000D03*
%TO.P,DS1,10*%
X186690000Y-26670000D03*
%TO.P,DS1,9*%
X184150000Y-26670000D03*
%TO.P,DS1,8*%
X181610000Y-26670000D03*
%TO.P,DS1,7*%
%TO.N,GND*%
X179070000Y-26670000D03*
%TO.P,DS1,6*%
%TO.N,N/C*%
X176530000Y-26670000D03*
%TO.P,DS1,5*%
%TO.N,GND*%
X173990000Y-26670000D03*
%TO.P,DS1,4*%
%TO.N,N/C*%
X171450000Y-26670000D03*
%TO.P,DS1,3*%
%TO.N,GND*%
X168910000Y-26670000D03*
%TO.P,DS1,2*%
%TO.N,Net-(DS1-Pad2)*%
X166370000Y-26670000D03*
D16*
%TO.P,DS1,1*%
%TO.N,GND*%
X163830000Y-26670000D03*
%TD*%
D17*
%TO.P,SW4,2*%
%TO.N,Net-(R6-Pad2)*%
X83600000Y-153670000D03*
%TO.P,SW4,1*%
%TO.N,Net-(C6-Pad1)*%
X88900000Y-153670000D03*
%TD*%
%TO.P,SW3,2*%
%TO.N,Net-(R5-Pad2)*%
X62010000Y-153670000D03*
%TO.P,SW3,1*%
%TO.N,Net-(C5-Pad1)*%
X67310000Y-153670000D03*
%TD*%
%TO.P,SW2,2*%
%TO.N,Net-(R4-Pad2)*%
X42960000Y-153670000D03*
%TO.P,SW2,1*%
%TO.N,Net-(C4-Pad1)*%
X48260000Y-153670000D03*
%TD*%
%TO.P,SW1,2*%
%TO.N,Net-(R3-Pad2)*%
X21370000Y-153670000D03*
%TO.P,SW1,1*%
%TO.N,Net-(C3-Pad1)*%
X26670000Y-153670000D03*
%TD*%
D18*
%TO.P,J7,2*%
%TO.N,GND*%
X273050000Y-57150000D03*
D19*
%TO.P,J7,1*%
%TO.N,Net-(J7-Pad1)*%
X273050000Y-54610000D03*
%TD*%
D18*
%TO.P,J6,2*%
%TO.N,GND*%
X242570000Y-57150000D03*
D19*
%TO.P,J6,1*%
%TO.N,Net-(J6-Pad1)*%
X242570000Y-54610000D03*
%TD*%
D18*
%TO.P,J5,2*%
%TO.N,GND*%
X77470000Y-120650000D03*
D19*
%TO.P,J5,1*%
%TO.N,Net-(J5-Pad1)*%
X77470000Y-123190000D03*
%TD*%
D18*
%TO.P,J4,2*%
%TO.N,GND*%
X55880000Y-120650000D03*
D19*
%TO.P,J4,1*%
%TO.N,Net-(J4-Pad1)*%
X55880000Y-123190000D03*
%TD*%
D18*
%TO.P,J3,2*%
%TO.N,GND*%
X36830000Y-120650000D03*
D19*
%TO.P,J3,1*%
%TO.N,Net-(J3-Pad1)*%
X36830000Y-123190000D03*
%TD*%
D18*
%TO.P,J1,2*%
%TO.N,GND*%
X16510000Y-120650000D03*
D19*
%TO.P,J1,1*%
%TO.N,Net-(J1-Pad1)*%
X16510000Y-123190000D03*
%TD*%
D13*
%TO.P,C7,2*%
%TO.N,GND*%
X237410000Y-157480000D03*
D20*
%TO.P,C7,1*%
%TO.N,Net-(C7-Pad1)*%
X232410000Y-157480000D03*
%TD*%
D13*
%TO.P,C6,2*%
%TO.N,GND*%
X98625000Y-144780000D03*
D20*
%TO.P,C6,1*%
%TO.N,Net-(C6-Pad1)*%
X93625000Y-144780000D03*
%TD*%
D13*
%TO.P,C5,2*%
%TO.N,GND*%
X77035000Y-144780000D03*
D20*
%TO.P,C5,1*%
%TO.N,Net-(C5-Pad1)*%
X72035000Y-144780000D03*
%TD*%
D13*
%TO.P,C4,2*%
%TO.N,GND*%
X57985000Y-144780000D03*
D20*
%TO.P,C4,1*%
%TO.N,Net-(C4-Pad1)*%
X52985000Y-144780000D03*
%TD*%
D13*
%TO.P,C3,2*%
%TO.N,GND*%
X38020000Y-144780000D03*
D20*
%TO.P,C3,1*%
%TO.N,Net-(C3-Pad1)*%
X33020000Y-144780000D03*
%TD*%
D13*
%TO.P,C2,2*%
%TO.N,GND*%
X79930000Y-52070000D03*
D20*
%TO.P,C2,1*%
%TO.N,+5V*%
X74930000Y-52070000D03*
%TD*%
D13*
%TO.P,C1,2*%
%TO.N,GND*%
X50720000Y-50800000D03*
D20*
%TO.P,C1,1*%
%TO.N,+12V*%
X45720000Y-50800000D03*
%TD*%
D21*
%TO.P,U3,3*%
%TO.N,N/C*%
X231140000Y-140970000D03*
%TO.P,U3,2*%
%TO.N,GND*%
X233680000Y-140970000D03*
D22*
%TO.P,U3,1*%
%TO.N,Net-(C7-Pad1)*%
X236220000Y-140970000D03*
%TD*%
D23*
%TO.P,U1,3*%
%TO.N,+5V*%
X66780000Y-39370000D03*
%TO.P,U1,2*%
%TO.N,GND*%
X61330000Y-39370000D03*
D24*
%TO.P,U1,1*%
%TO.N,+12V*%
X55880000Y-39370000D03*
%TD*%
D25*
%TO.P,Pot4,3*%
%TO.N,GND*%
X175260000Y-157480000D03*
%TO.P,Pot4,2*%
%TO.N,N/C*%
X177800000Y-157480000D03*
%TO.P,Pot4,1*%
%TO.N,+5V*%
X180340000Y-157480000D03*
%TD*%
%TO.P,Pot3,3*%
%TO.N,GND*%
X156210000Y-157480000D03*
%TO.P,Pot3,2*%
%TO.N,N/C*%
X158750000Y-157480000D03*
%TO.P,Pot3,1*%
%TO.N,+5V*%
X161290000Y-157480000D03*
%TD*%
%TO.P,Pot2,3*%
%TO.N,GND*%
X134620000Y-157480000D03*
%TO.P,Pot2,2*%
%TO.N,N/C*%
X137160000Y-157480000D03*
%TO.P,Pot2,1*%
%TO.N,+5V*%
X139700000Y-157480000D03*
%TD*%
%TO.P,Pot1,3*%
%TO.N,GND*%
X113030000Y-157480000D03*
%TO.P,Pot1,2*%
%TO.N,N/C*%
X115570000Y-157480000D03*
%TO.P,Pot1,1*%
%TO.N,+5V*%
X118110000Y-157480000D03*
%TD*%
D26*
%TO.P,LED1,2*%
%TO.N,Net-(LED1-Pad2)*%
X267970000Y-26670000D03*
D27*
%TO.P,LED1,1*%
%TO.N,GND*%
X265430000Y-26670000D03*
%TD*%
D28*
%TO.P,J2,2*%
%TO.N,+12V*%
X26590000Y-38100000D03*
D29*
%TO.P,J2,1*%
%TO.N,GND*%
X21590000Y-38100000D03*
%TD*%
D30*
%TO.P,BZ1,2*%
%TO.N,GND*%
X245090000Y-26670000D03*
D31*
%TO.P,BZ1,1*%
%TO.N,Net-(BZ1-Pad1)*%
X237490000Y-26670000D03*
%TD*%
D32*
%TO.N,Net-(BZ1-Pad1)*%
X237490000Y-26670000D02*
X237490000Y-41910000D01*
%TO.N,+12V*%
X54610000Y-38100000D02*
X55880000Y-39370000D01*
X26590000Y-38100000D02*
X54610000Y-38100000D01*
X55880000Y-39370000D02*
X55880000Y-41910000D01*
X55880000Y-41910000D02*
X54610000Y-43180000D01*
X54610000Y-43180000D02*
X48260000Y-43180000D01*
X45720000Y-45720000D02*
X45720000Y-50800000D01*
X48260000Y-43180000D02*
X45720000Y-45720000D01*
%TO.N,+5V*%
X73660000Y-39370000D02*
X66780000Y-39370000D01*
X74575000Y-40285000D02*
X73660000Y-39370000D01*
X118110000Y-157480000D02*
X127000000Y-157480000D01*
X132080000Y-152400000D02*
X138430000Y-152400000D01*
X127000000Y-157480000D02*
X132080000Y-152400000D01*
X139700000Y-157480000D02*
X144780000Y-157480000D01*
X144780000Y-157480000D02*
X149860000Y-152400000D01*
X161290000Y-157480000D02*
X165100000Y-157480000D01*
X165100000Y-157480000D02*
X170180000Y-152400000D01*
X138430000Y-152400000D02*
X139700000Y-153670000D01*
X139700000Y-153670000D02*
X139700000Y-157480000D01*
X149860000Y-152400000D02*
X160020000Y-152400000D01*
X160020000Y-152400000D02*
X161290000Y-153670000D01*
X161290000Y-153670000D02*
X161290000Y-157480000D01*
X170180000Y-152400000D02*
X179070000Y-152400000D01*
X179070000Y-152400000D02*
X180340000Y-153670000D01*
X180340000Y-153670000D02*
X180340000Y-157480000D01*
X72390000Y-20320000D02*
X154940000Y-20320000D01*
X74575000Y-51715000D02*
X74930000Y-52070000D01*
X74575000Y-40285000D02*
X74575000Y-51715000D01*
X66780000Y-39370000D02*
X66780000Y-25930000D01*
X66780000Y-25930000D02*
X72390000Y-20320000D01*
X74930000Y-82550000D02*
X74930000Y-52070000D01*
X83820000Y-91440000D02*
X74930000Y-82550000D01*
X100330000Y-91440000D02*
X83820000Y-91440000D01*
X118110000Y-109220000D02*
X100330000Y-91440000D01*
X118110000Y-157480000D02*
X118110000Y-109220000D01*
%TO.N,Net-(J1-Pad1)*%
X16510000Y-123190000D02*
X16510000Y-135890000D01*
%TO.N,Net-(J3-Pad1)*%
X36830000Y-135890000D02*
X36830000Y-123190000D01*
%TO.N,Net-(J4-Pad1)*%
X55880000Y-123190000D02*
X55880000Y-135890000D01*
%TO.N,Net-(J5-Pad1)*%
X77470000Y-123190000D02*
X77470000Y-135890000D01*
%TO.N,Net-(J6-Pad1)*%
X247650000Y-41910000D02*
X247650000Y-45720000D01*
X242570000Y-50800000D02*
X242570000Y-54610000D01*
X247650000Y-45720000D02*
X242570000Y-50800000D01*
%TO.N,Net-(J7-Pad1)*%
X278130000Y-41910000D02*
X278130000Y-45720000D01*
X273050000Y-50800000D02*
X273050000Y-54610000D01*
X278130000Y-45720000D02*
X273050000Y-50800000D01*
%TO.N,Net-(LED1-Pad2)*%
X267970000Y-26670000D02*
X267970000Y-41910000D01*
%TO.N,Net-(R3-Pad2)*%
X26670000Y-135890000D02*
X26670000Y-139700000D01*
X26670000Y-139700000D02*
X25400000Y-140970000D01*
X25400000Y-140970000D02*
X22860000Y-140970000D01*
X21370000Y-142460000D02*
X21370000Y-153670000D01*
X22860000Y-140970000D02*
X21370000Y-142460000D01*
%TO.N,Net-(R4-Pad2)*%
X46990000Y-135890000D02*
X46990000Y-137160000D01*
X46990000Y-137160000D02*
X44450000Y-139700000D01*
X44450000Y-152180000D02*
X42960000Y-153670000D01*
X44450000Y-139700000D02*
X44450000Y-152180000D01*
%TO.N,Net-(R5-Pad2)*%
X62010000Y-143730000D02*
X62010000Y-153670000D01*
X66040000Y-139700000D02*
X62010000Y-143730000D01*
X66040000Y-135890000D02*
X66040000Y-139700000D01*
%TO.N,Net-(R6-Pad2)*%
X83600000Y-142460000D02*
X83600000Y-153670000D01*
X87630000Y-138430000D02*
X83600000Y-142460000D01*
X87630000Y-135890000D02*
X87630000Y-138430000D01*
%TO.N,Net-(C3-Pad1)*%
X33020000Y-144780000D02*
X30480000Y-144780000D01*
X26670000Y-148590000D02*
X26670000Y-153670000D01*
X30480000Y-144780000D02*
X26670000Y-148590000D01*
D33*
%TO.N,Net-(C4-Pad1)*%
X52985000Y-144780000D02*
X52560990Y-145204010D01*
D32*
%TO.N,Net-(C5-Pad1)*%
X72035000Y-144780000D02*
X69850000Y-144780000D01*
X67310000Y-147320000D02*
X67310000Y-153670000D01*
X69850000Y-144780000D02*
X67310000Y-147320000D01*
%TO.N,Net-(C6-Pad1)*%
X88900000Y-153670000D02*
X88900000Y-146050000D01*
X90170000Y-144780000D02*
X93625000Y-144780000D01*
X88900000Y-146050000D02*
X90170000Y-144780000D01*
%TO.N,Net-(C7-Pad1)*%
X232410000Y-144780000D02*
X236220000Y-140970000D01*
X232410000Y-157480000D02*
X232410000Y-144780000D01*
%TO.N,Net-(DS1-Pad2)*%
X165100000Y-20320000D02*
X166370000Y-20320000D01*
X167640000Y-21590000D02*
X167640000Y-22860000D01*
X166370000Y-20320000D02*
X167640000Y-21590000D01*
X167640000Y-22860000D02*
X166370000Y-24130000D01*
X166370000Y-24130000D02*
X166370000Y-26670000D01*
%TD*%
M02*
