M48
; DRILL file {KiCad 5.1.9+dfsg1-1} date Wed Apr 21 10:51:15 2021
; FORMAT={-:-/ absolute / inch / decimal}
; #@! TF.CreationDate,2021-04-21T10:51:15+05:30
; #@! TF.GenerationSoftware,Kicad,Pcbnew,5.1.9+dfsg1-1
; #@! TF.FileFunction,Plated,1,2,PTH
FMAT,2
INCH
T1C0.0197
T2C0.0276
T3C0.0315
T4C0.0354
T5C0.0394
T6C0.0472
T7C0.0520
T8C0.0591
%
G90
G05
T2
X0.65Y-5.35
X0.85Y-5.35
X1.45Y-5.35
X1.65Y-5.35
X2.2Y-5.35
X2.4Y-5.35
X3.05Y-5.35
X3.25Y-5.35
X8.45Y-1.6
X8.65Y-1.6
X9.65Y-1.6
X9.85Y-1.6
T3
X1.3Y-5.7
X1.4969Y-5.7
X2.086Y-5.7
X2.2829Y-5.7
X2.414Y-1.55
X2.6108Y-1.55
X2.836Y-5.7
X3.0329Y-5.7
X3.586Y-1.55
X3.686Y-5.7
X3.7829Y-1.55
X3.8829Y-5.7
X4.45Y-6.2
X4.55Y-6.2
X4.65Y-6.2
X5.3Y-6.2
X5.4Y-6.2
X5.5Y-6.2
X6.15Y-6.2
X6.25Y-6.2
X6.35Y-6.2
X6.9Y-6.2
X7.0Y-6.2
X7.1Y-6.2
X9.15Y-6.2
X9.3469Y-6.2
T4
X9.55Y-1.0
X9.65Y-1.0
T5
X0.65Y-4.75
X0.65Y-4.85
X1.45Y-4.75
X1.45Y-4.85
X2.2Y-4.75
X2.2Y-4.85
X3.05Y-4.75
X3.05Y-4.85
X4.6Y-1.1
X4.6Y-1.2
X4.6Y-1.3
X4.6Y-1.4
X4.6Y-1.5
X4.6Y-1.6
X4.6Y-1.7
X4.6Y-1.8
X7.5528Y-1.1
X7.5528Y-1.2
X7.5528Y-1.3
X7.5528Y-1.4
X7.5528Y-1.5
X7.5528Y-1.6
X7.5528Y-1.7
X7.5528Y-1.8
X8.45Y-1.0
X8.65Y-2.1
X8.65Y-2.2
X8.7492Y-1.0
X9.85Y-2.1
X9.85Y-2.2
T6
X0.8413Y-6.05
X1.05Y-6.05
X1.6413Y-6.05
X1.85Y-6.05
X2.4413Y-6.05
X2.65Y-6.05
X3.2913Y-6.05
X3.5Y-6.05
T7
X0.85Y-1.2
X1.0469Y-1.2
T8
X2.85Y-1.2
X3.0646Y-1.2
X3.2791Y-1.2
T1
G00X9.1197Y-5.55
M15
G01X9.0803Y-5.55
M16
G05
G00X9.2197Y-5.55
M15
G01X9.1803Y-5.55
M16
G05
G00X9.3197Y-5.55
M15
G01X9.2803Y-5.55
M16
G05
T0
M30
