%TF.GenerationSoftware,KiCad,Pcbnew,5.1.9+dfsg1-1*%
%TF.CreationDate,2021-04-21T12:01:10+05:30*%
%TF.ProjectId,PCB_Init,5043425f-496e-4697-942e-6b696361645f,rev?*%
%TF.SameCoordinates,Original*%
%TF.FileFunction,Copper,L1,Top*%
%TF.FilePolarity,Positive*%
%FSLAX46Y46*%
G04 Gerber Fmt 4.6, Leading zero omitted, Abs format (unit mm)*
G04 Created by KiCad (PCBNEW 5.1.9+dfsg1-1) date 2021-04-21 12:01:10*
%MOMM*%
%LPD*%
G01*
G04 APERTURE LIST*
%TA.AperFunction,NonConductor*%
%ADD10C,0.600000*%
%TD*%
%TA.AperFunction,ComponentPad*%
%ADD11O,1.400000X1.400000*%
%TD*%
%TA.AperFunction,ComponentPad*%
%ADD12C,1.400000*%
%TD*%
%TA.AperFunction,ComponentPad*%
%ADD13C,2.400000*%
%TD*%
%TA.AperFunction,ComponentPad*%
%ADD14O,1.700000X1.700000*%
%TD*%
%TA.AperFunction,ComponentPad*%
%ADD15R,1.700000X1.700000*%
%TD*%
%TA.AperFunction,ComponentPad*%
%ADD16C,1.600000*%
%TD*%
%TA.AperFunction,ComponentPad*%
%ADD17R,1.600000X1.600000*%
%TD*%
%TA.AperFunction,ComponentPad*%
%ADD18O,2.250000X1.250000*%
%TD*%
%TA.AperFunction,ComponentPad*%
%ADD19R,2.250000X1.250000*%
%TD*%
%TA.AperFunction,ComponentPad*%
%ADD20C,1.500000*%
%TD*%
%TA.AperFunction,ComponentPad*%
%ADD21R,1.500000X1.500000*%
%TD*%
%TA.AperFunction,ComponentPad*%
%ADD22O,2.500000X4.500000*%
%TD*%
%TA.AperFunction,ComponentPad*%
%ADD23R,2.500000X4.500000*%
%TD*%
%TA.AperFunction,ComponentPad*%
%ADD24C,1.440000*%
%TD*%
%TA.AperFunction,ComponentPad*%
%ADD25C,1.800000*%
%TD*%
%TA.AperFunction,ComponentPad*%
%ADD26R,1.800000X1.800000*%
%TD*%
%TA.AperFunction,ComponentPad*%
%ADD27O,1.980000X3.960000*%
%TD*%
%TA.AperFunction,ComponentPad*%
%ADD28R,1.980000X3.960000*%
%TD*%
%TA.AperFunction,ComponentPad*%
%ADD29C,2.000000*%
%TD*%
%TA.AperFunction,ComponentPad*%
%ADD30R,2.000000X2.000000*%
%TD*%
%TA.AperFunction,Conductor*%
%ADD31C,0.400000*%
%TD*%
%TA.AperFunction,Conductor*%
%ADD32C,0.250000*%
%TD*%
G04 APERTURE END LIST*
D10*
X141590000Y-88987142D02*
X140590000Y-87558571D01*
X139875714Y-88987142D02*
X139875714Y-85987142D01*
X141018571Y-85987142D01*
X141304285Y-86130000D01*
X141447142Y-86272857D01*
X141590000Y-86558571D01*
X141590000Y-86987142D01*
X141447142Y-87272857D01*
X141304285Y-87415714D01*
X141018571Y-87558571D01*
X139875714Y-87558571D01*
X144018571Y-88844285D02*
X143732857Y-88987142D01*
X143161428Y-88987142D01*
X142875714Y-88844285D01*
X142732857Y-88558571D01*
X142732857Y-87415714D01*
X142875714Y-87130000D01*
X143161428Y-86987142D01*
X143732857Y-86987142D01*
X144018571Y-87130000D01*
X144161428Y-87415714D01*
X144161428Y-87701428D01*
X142732857Y-87987142D01*
X145447142Y-87844285D02*
X147732857Y-87844285D01*
X148732857Y-85987142D02*
X149732857Y-88987142D01*
X150732857Y-85987142D01*
X152875714Y-88844285D02*
X152590000Y-88987142D01*
X152018571Y-88987142D01*
X151732857Y-88844285D01*
X151590000Y-88558571D01*
X151590000Y-87415714D01*
X151732857Y-87130000D01*
X152018571Y-86987142D01*
X152590000Y-86987142D01*
X152875714Y-87130000D01*
X153018571Y-87415714D01*
X153018571Y-87701428D01*
X151590000Y-87987142D01*
X154304285Y-86987142D02*
X154304285Y-88987142D01*
X154304285Y-87272857D02*
X154447142Y-87130000D01*
X154732857Y-86987142D01*
X155161428Y-86987142D01*
X155447142Y-87130000D01*
X155590000Y-87415714D01*
X155590000Y-88987142D01*
X156590000Y-86987142D02*
X157732857Y-86987142D01*
X157018571Y-85987142D02*
X157018571Y-88558571D01*
X157161428Y-88844285D01*
X157447142Y-88987142D01*
X157732857Y-88987142D01*
D11*
%TO.P,R7,2*%
%TO.N,Net-(R7-Pad2)*%
X160020000Y-16510000D03*
D12*
%TO.P,R7,1*%
%TO.N,+5V*%
X154940000Y-16510000D03*
%TD*%
D13*
%TO.P,SW4,2*%
%TO.N,Net-(R6-Pad2)*%
X83600000Y-153670000D03*
%TO.P,SW4,1*%
%TO.N,Net-(C6-Pad1)*%
X88900000Y-153670000D03*
%TD*%
%TO.P,SW3,2*%
%TO.N,Net-(R5-Pad2)*%
X62010000Y-153670000D03*
%TO.P,SW3,1*%
%TO.N,Net-(C5-Pad1)*%
X67310000Y-153670000D03*
%TD*%
%TO.P,SW2,2*%
%TO.N,Net-(R4-Pad2)*%
X41690000Y-153670000D03*
%TO.P,SW2,1*%
%TO.N,Net-(C4-Pad1)*%
X46990000Y-153670000D03*
%TD*%
%TO.P,SW1,2*%
%TO.N,Net-(R3-Pad2)*%
X21370000Y-153670000D03*
%TO.P,SW1,1*%
%TO.N,Net-(C3-Pad1)*%
X26670000Y-153670000D03*
%TD*%
D14*
%TO.P,J7,2*%
%TO.N,GND*%
X250190000Y-55880000D03*
D15*
%TO.P,J7,1*%
%TO.N,Net-(J7-Pad1)*%
X250190000Y-53340000D03*
%TD*%
D14*
%TO.P,J6,2*%
%TO.N,GND*%
X219710000Y-55880000D03*
D15*
%TO.P,J6,1*%
%TO.N,Net-(J6-Pad1)*%
X219710000Y-53340000D03*
%TD*%
D14*
%TO.P,J5,2*%
%TO.N,GND*%
X77470000Y-120650000D03*
D15*
%TO.P,J5,1*%
%TO.N,Net-(J5-Pad1)*%
X77470000Y-123190000D03*
%TD*%
D14*
%TO.P,J4,2*%
%TO.N,GND*%
X55880000Y-120650000D03*
D15*
%TO.P,J4,1*%
%TO.N,Net-(J4-Pad1)*%
X55880000Y-123190000D03*
%TD*%
D14*
%TO.P,J3,2*%
%TO.N,GND*%
X36830000Y-120650000D03*
D15*
%TO.P,J3,1*%
%TO.N,Net-(J3-Pad1)*%
X36830000Y-123190000D03*
%TD*%
D14*
%TO.P,J1,2*%
%TO.N,GND*%
X16510000Y-120650000D03*
D15*
%TO.P,J1,1*%
%TO.N,Net-(J1-Pad1)*%
X16510000Y-123190000D03*
%TD*%
D16*
%TO.P,C7,2*%
%TO.N,GND*%
X237410000Y-157480000D03*
D17*
%TO.P,C7,1*%
%TO.N,Net-(C7-Pad1)*%
X232410000Y-157480000D03*
%TD*%
D16*
%TO.P,C6,2*%
%TO.N,GND*%
X98625000Y-144780000D03*
D17*
%TO.P,C6,1*%
%TO.N,Net-(C6-Pad1)*%
X93625000Y-144780000D03*
%TD*%
D16*
%TO.P,C5,2*%
%TO.N,GND*%
X77035000Y-144780000D03*
D17*
%TO.P,C5,1*%
%TO.N,Net-(C5-Pad1)*%
X72035000Y-144780000D03*
%TD*%
D16*
%TO.P,C4,2*%
%TO.N,GND*%
X57985000Y-144780000D03*
D17*
%TO.P,C4,1*%
%TO.N,Net-(C4-Pad1)*%
X52985000Y-144780000D03*
%TD*%
D16*
%TO.P,C3,2*%
%TO.N,GND*%
X38020000Y-144780000D03*
D17*
%TO.P,C3,1*%
%TO.N,Net-(C3-Pad1)*%
X33020000Y-144780000D03*
%TD*%
D16*
%TO.P,C2,2*%
%TO.N,GND*%
X96085000Y-39370000D03*
D17*
%TO.P,C2,1*%
%TO.N,+5V*%
X91085000Y-39370000D03*
%TD*%
D16*
%TO.P,C1,2*%
%TO.N,GND*%
X66315000Y-39370000D03*
D17*
%TO.P,C1,1*%
%TO.N,+12V*%
X61315000Y-39370000D03*
%TD*%
D18*
%TO.P,U3,3*%
%TO.N,N/C*%
X231140000Y-140970000D03*
%TO.P,U3,2*%
%TO.N,GND*%
X233680000Y-140970000D03*
D19*
%TO.P,U3,1*%
%TO.N,Net-(C7-Pad1)*%
X236220000Y-140970000D03*
%TD*%
D20*
%TO.P,U2,15*%
%TO.N,GND*%
X191840000Y-43180000D03*
%TO.P,U2,16*%
%TO.N,Net-(R7-Pad2)*%
X191840000Y-45720000D03*
%TO.P,U2,9*%
%TO.N,N/C*%
X191840000Y-27940000D03*
%TO.P,U2,14*%
X191840000Y-40640000D03*
%TO.P,U2,13*%
X191840000Y-38100000D03*
%TO.P,U2,12*%
X191840000Y-35560000D03*
%TO.P,U2,11*%
X191840000Y-33020000D03*
%TO.P,U2,10*%
X191840000Y-30480000D03*
%TO.P,U2,8*%
X116840000Y-45720000D03*
%TO.P,U2,7*%
X116840000Y-43180000D03*
%TO.P,U2,6*%
X116840000Y-40640000D03*
%TO.P,U2,5*%
%TO.N,GND*%
X116840000Y-38100000D03*
%TO.P,U2,4*%
%TO.N,N/C*%
X116840000Y-35560000D03*
%TO.P,U2,3*%
%TO.N,GND*%
X116840000Y-33020000D03*
%TO.P,U2,2*%
%TO.N,N/C*%
X116840000Y-30480000D03*
D21*
%TO.P,U2,1*%
%TO.N,GND*%
X116840000Y-27940000D03*
%TD*%
D22*
%TO.P,U1,3*%
%TO.N,+5V*%
X83290000Y-30480000D03*
%TO.P,U1,2*%
%TO.N,GND*%
X77840000Y-30480000D03*
D23*
%TO.P,U1,1*%
%TO.N,+12V*%
X72390000Y-30480000D03*
%TD*%
D11*
%TO.P,R6,2*%
%TO.N,Net-(R6-Pad2)*%
X82550000Y-135890000D03*
D12*
%TO.P,R6,1*%
%TO.N,Net-(J5-Pad1)*%
X77470000Y-135890000D03*
%TD*%
D11*
%TO.P,R5,2*%
%TO.N,Net-(R5-Pad2)*%
X60960000Y-135890000D03*
D12*
%TO.P,R5,1*%
%TO.N,Net-(J4-Pad1)*%
X55880000Y-135890000D03*
%TD*%
D11*
%TO.P,R4,2*%
%TO.N,Net-(R4-Pad2)*%
X41910000Y-135890000D03*
D12*
%TO.P,R4,1*%
%TO.N,Net-(J3-Pad1)*%
X36830000Y-135890000D03*
%TD*%
D11*
%TO.P,R3,2*%
%TO.N,Net-(R3-Pad2)*%
X21590000Y-135890000D03*
D12*
%TO.P,R3,1*%
%TO.N,Net-(J1-Pad1)*%
X16510000Y-135890000D03*
%TD*%
D11*
%TO.P,R2,2*%
%TO.N,Net-(J7-Pad1)*%
X250190000Y-40640000D03*
D12*
%TO.P,R2,1*%
%TO.N,Net-(LED1-Pad2)*%
X245110000Y-40640000D03*
%TD*%
D11*
%TO.P,R1,2*%
%TO.N,Net-(J6-Pad1)*%
X219710000Y-40640000D03*
D12*
%TO.P,R1,1*%
%TO.N,Net-(BZ1-Pad1)*%
X214630000Y-40640000D03*
%TD*%
D24*
%TO.P,Pot4,3*%
%TO.N,GND*%
X175260000Y-157480000D03*
%TO.P,Pot4,2*%
%TO.N,N/C*%
X177800000Y-157480000D03*
%TO.P,Pot4,1*%
%TO.N,+5V*%
X180340000Y-157480000D03*
%TD*%
%TO.P,Pot3,3*%
%TO.N,GND*%
X156210000Y-157480000D03*
%TO.P,Pot3,2*%
%TO.N,N/C*%
X158750000Y-157480000D03*
%TO.P,Pot3,1*%
%TO.N,+5V*%
X161290000Y-157480000D03*
%TD*%
%TO.P,Pot2,3*%
%TO.N,GND*%
X134620000Y-157480000D03*
%TO.P,Pot2,2*%
%TO.N,N/C*%
X137160000Y-157480000D03*
%TO.P,Pot2,1*%
%TO.N,+5V*%
X139700000Y-157480000D03*
%TD*%
%TO.P,Pot1,3*%
%TO.N,GND*%
X113030000Y-157480000D03*
%TO.P,Pot1,2*%
%TO.N,N/C*%
X115570000Y-157480000D03*
%TO.P,Pot1,1*%
%TO.N,+5V*%
X118110000Y-157480000D03*
%TD*%
D25*
%TO.P,LED1,2*%
%TO.N,Net-(LED1-Pad2)*%
X245110000Y-25400000D03*
D26*
%TO.P,LED1,1*%
%TO.N,GND*%
X242570000Y-25400000D03*
%TD*%
D27*
%TO.P,J2,2*%
%TO.N,+12V*%
X26590000Y-30480000D03*
D28*
%TO.P,J2,1*%
%TO.N,GND*%
X21590000Y-30480000D03*
%TD*%
D29*
%TO.P,BZ1,2*%
%TO.N,GND*%
X222230000Y-25400000D03*
D30*
%TO.P,BZ1,1*%
%TO.N,Net-(BZ1-Pad1)*%
X214630000Y-25400000D03*
%TD*%
D31*
%TO.N,Net-(BZ1-Pad1)*%
X214630000Y-25400000D02*
X214630000Y-40640000D01*
%TO.N,+12V*%
X63500000Y-30480000D02*
X72390000Y-30480000D01*
X61315000Y-32665000D02*
X63500000Y-30480000D01*
X61315000Y-33375000D02*
X61315000Y-32665000D01*
X61315000Y-39370000D02*
X61315000Y-33375000D01*
X59130000Y-30480000D02*
X61315000Y-32665000D01*
X26590000Y-30480000D02*
X59130000Y-30480000D01*
%TO.N,+5V*%
X91085000Y-39370000D02*
X91085000Y-31395000D01*
X90170000Y-30480000D02*
X83290000Y-30480000D01*
X91085000Y-31395000D02*
X90170000Y-30480000D01*
X91085000Y-39370000D02*
X91085000Y-101245000D01*
X118110000Y-128270000D02*
X118110000Y-157480000D01*
X91085000Y-101245000D02*
X118110000Y-128270000D01*
X118110000Y-157480000D02*
X127000000Y-157480000D01*
X132080000Y-152400000D02*
X138430000Y-152400000D01*
X127000000Y-157480000D02*
X132080000Y-152400000D01*
X139700000Y-157480000D02*
X144780000Y-157480000D01*
X144780000Y-157480000D02*
X149860000Y-152400000D01*
X161290000Y-157480000D02*
X165100000Y-157480000D01*
X165100000Y-157480000D02*
X170180000Y-152400000D01*
X138430000Y-152400000D02*
X139700000Y-153670000D01*
X139700000Y-153670000D02*
X139700000Y-157480000D01*
X149860000Y-152400000D02*
X160020000Y-152400000D01*
X160020000Y-152400000D02*
X161290000Y-153670000D01*
X161290000Y-153670000D02*
X161290000Y-157480000D01*
X170180000Y-152400000D02*
X179070000Y-152400000D01*
X179070000Y-152400000D02*
X180340000Y-153670000D01*
X180340000Y-153670000D02*
X180340000Y-157480000D01*
X83290000Y-30480000D02*
X83290000Y-20850000D01*
X87630000Y-16510000D02*
X154940000Y-16510000D01*
X83290000Y-20850000D02*
X87630000Y-16510000D01*
%TO.N,Net-(J1-Pad1)*%
X16510000Y-123190000D02*
X16510000Y-135890000D01*
%TO.N,Net-(J3-Pad1)*%
X36830000Y-135890000D02*
X36830000Y-123190000D01*
%TO.N,Net-(J4-Pad1)*%
X55880000Y-123190000D02*
X55880000Y-135890000D01*
%TO.N,Net-(J5-Pad1)*%
X77470000Y-123190000D02*
X77470000Y-135890000D01*
%TO.N,Net-(J6-Pad1)*%
X219710000Y-40640000D02*
X219710000Y-53340000D01*
%TO.N,Net-(J7-Pad1)*%
X250190000Y-40640000D02*
X250190000Y-53340000D01*
%TO.N,Net-(LED1-Pad2)*%
X245110000Y-25400000D02*
X245110000Y-40640000D01*
%TO.N,Net-(R3-Pad2)*%
X21590000Y-153450000D02*
X21370000Y-153670000D01*
X21590000Y-135890000D02*
X21590000Y-153450000D01*
D32*
%TO.N,Net-(R4-Pad2)*%
X41910000Y-153450000D02*
X41690000Y-153670000D01*
D31*
X41690000Y-136110000D02*
X41910000Y-135890000D01*
X41690000Y-153670000D02*
X41690000Y-136110000D01*
%TO.N,Net-(R5-Pad2)*%
X60960000Y-152620000D02*
X62010000Y-153670000D01*
X60960000Y-135890000D02*
X60960000Y-152620000D01*
%TO.N,Net-(R6-Pad2)*%
X82550000Y-152620000D02*
X83600000Y-153670000D01*
X82550000Y-135890000D02*
X82550000Y-152620000D01*
%TO.N,Net-(C3-Pad1)*%
X26670000Y-153670000D02*
X26670000Y-146050000D01*
X27940000Y-144780000D02*
X33020000Y-144780000D01*
X26670000Y-146050000D02*
X27940000Y-144780000D01*
D32*
%TO.N,Net-(C4-Pad1)*%
X52985000Y-144780000D02*
X52560990Y-145204010D01*
D31*
%TO.N,Net-(C5-Pad1)*%
X67310000Y-153670000D02*
X67310000Y-146050000D01*
X68580000Y-144780000D02*
X72035000Y-144780000D01*
X67310000Y-146050000D02*
X68580000Y-144780000D01*
%TO.N,Net-(C6-Pad1)*%
X88900000Y-153670000D02*
X88900000Y-146050000D01*
X90170000Y-144780000D02*
X93625000Y-144780000D01*
X88900000Y-146050000D02*
X90170000Y-144780000D01*
%TO.N,Net-(C7-Pad1)*%
X232410000Y-144780000D02*
X236220000Y-140970000D01*
X232410000Y-157480000D02*
X232410000Y-144780000D01*
%TO.N,Net-(R7-Pad2)*%
X160020000Y-16510000D02*
X194310000Y-16510000D01*
X194310000Y-16510000D02*
X195580000Y-17780000D01*
X195580000Y-41980000D02*
X191840000Y-45720000D01*
X195580000Y-17780000D02*
X195580000Y-41910000D01*
%TD*%
M02*
